<?xml version="1.0" encoding="UTF-8" standalone="no"?>
<!-- Created with Inkscape (http://www.inkscape.org/) -->

<svg
   xmlns:dc="http://purl.org/dc/elements/1.1/"
   xmlns:cc="http://creativecommons.org/ns#"
   xmlns:rdf="http://www.w3.org/1999/02/22-rdf-syntax-ns#"
   xmlns:svg="http://www.w3.org/2000/svg"
   xmlns="http://www.w3.org/2000/svg"
   xmlns:sodipodi="http://sodipodi.sourceforge.net/DTD/sodipodi-0.dtd"
   xmlns:inkscape="http://www.inkscape.org/namespaces/inkscape"
   width="50"
   height="50"
   viewBox="0 0 50 50.000001"
   id="svg2"
   version="1.1"
   inkscape:version="0.92.4 (5da689c313, 2019-01-14)"
   sodipodi:docname="DIN0369_Tauchtiefe.svg"
   inkscape:export-filename="P:\Files\Axialis\Library\Baldwin\Inkscape-png-export\DIN0276_Dampf_Energie.png"
   inkscape:export-xdpi="92.160004"
   inkscape:export-ydpi="92.160004">
  <defs
     id="defs4" />
  <sodipodi:namedview
     id="base"
     pagecolor="#ffffff"
     bordercolor="#666666"
     borderopacity="1.0"
     inkscape:pageopacity="0.0"
     inkscape:pageshadow="2"
     inkscape:zoom="9.7209677"
     inkscape:cx="21.000574"
     inkscape:cy="22.706194"
     inkscape:document-units="px"
     inkscape:current-layer="layer1"
     showgrid="true"
     units="px"
     showborder="true"
     borderlayer="false"
     inkscape:showpageshadow="true"
     inkscape:window-width="1644"
     inkscape:window-height="994"
     inkscape:window-x="474"
     inkscape:window-y="55"
     inkscape:window-maximized="0">
    <inkscape:grid
       type="xygrid"
       id="grid10233" />
  </sodipodi:namedview>
  <metadata
     id="metadata7">
    <rdf:RDF>
      <cc:Work
         rdf:about="">
        <dc:format>image/svg+xml</dc:format>
        <dc:type
           rdf:resource="http://purl.org/dc/dcmitype/StillImage" />
        <dc:title></dc:title>
      </cc:Work>
    </rdf:RDF>
  </metadata>
  <g
     inkscape:label="Ebene 1"
     inkscape:groupmode="layer"
     id="layer1"
     transform="translate(0,-1002.3622)">
    <path
       style="color:#000000;font-style:normal;font-variant:normal;font-weight:normal;font-stretch:normal;font-size:medium;line-height:normal;font-family:sans-serif;font-variant-ligatures:normal;font-variant-position:normal;font-variant-caps:normal;font-variant-numeric:normal;font-variant-alternates:normal;font-feature-settings:normal;text-indent:0;text-align:start;text-decoration:none;text-decoration-line:none;text-decoration-style:solid;text-decoration-color:#000000;letter-spacing:normal;word-spacing:normal;text-transform:none;writing-mode:lr-tb;direction:ltr;text-orientation:mixed;dominant-baseline:auto;baseline-shift:baseline;text-anchor:start;white-space:normal;shape-padding:0;clip-rule:nonzero;display:inline;overflow:visible;visibility:visible;opacity:1;isolation:auto;mix-blend-mode:normal;color-interpolation:sRGB;color-interpolation-filters:linearRGB;solid-color:#000000;solid-opacity:1;vector-effect:none;fill:#000000;fill-opacity:1;fill-rule:nonzero;stroke:none;stroke-width:1.5;stroke-linecap:butt;stroke-linejoin:miter;stroke-miterlimit:4;stroke-dasharray:none;stroke-dashoffset:0;stroke-opacity:1;paint-order:normal;color-rendering:auto;image-rendering:auto;shape-rendering:auto;text-rendering:auto;enable-background:accumulate"
       d="m 35.75,11.910156 -1.5,0.002 c -2e-6,2.3412 -1.871834,4.2293 -4.212891,4.25 -2.341039,0.021 -4.245576,-1.833028 -4.287109,-4.173828 l -0.681641,0.0098 L 24.25,12 c -2e-6,2.3412 -1.871834,4.2293 -4.212891,4.25 C 17.696037,16.271 15.791487,14.416972 15.75,12.076172 h -0.0059 c 6.34e-4,-0.0218 0.0055,-0.0426 0.0059,-0.06445 l -1.5,-0.02344 c -0.03455,1.897864 -1.31481,3.536014 -3.148438,4.027344 l 0.386719,1.449219 c 1.508135,-0.404108 2.73673,-1.395002 3.482422,-2.683594 0.992124,1.784124 2.904124,2.986088 5.080078,2.966797 1.804517,-0.01606 3.405218,-0.876448 4.449219,-2.195313 V 39.5 H 20 v 1 h 10 v -1 H 25.5 V 15.46875 c 1.065598,1.344574 2.710917,2.207719 4.550781,2.191406 2.120466,-0.01887 3.967645,-1.196385 4.949219,-2.923828 0.742689,1.311394 1.985458,2.31955 3.511719,2.728516 l 0.386719,-1.449219 C 37.064811,15.524294 35.784549,13.886145 35.75,11.988281 h -0.0039 c 3.55e-4,-0.02623 0.0039,-0.0518 0.0039,-0.07813 z"
       transform="translate(0,1002.3622)"
       id="path839"
       inkscape:connector-curvature="0" />
  </g>
</svg>
