<?xml version="1.0" encoding="UTF-8" standalone="no"?>
<!-- Created with Inkscape (http://www.inkscape.org/) -->

<svg
   xmlns:dc="http://purl.org/dc/elements/1.1/"
   xmlns:cc="http://creativecommons.org/ns#"
   xmlns:rdf="http://www.w3.org/1999/02/22-rdf-syntax-ns#"
   xmlns:svg="http://www.w3.org/2000/svg"
   xmlns="http://www.w3.org/2000/svg"
   xmlns:sodipodi="http://sodipodi.sourceforge.net/DTD/sodipodi-0.dtd"
   xmlns:inkscape="http://www.inkscape.org/namespaces/inkscape"
   width="50"
   height="50"
   viewBox="0 0 50 50.000001"
   id="svg2"
   version="1.1"
   inkscape:version="0.92.4 (5da689c313, 2019-01-14)"
   sodipodi:docname="DIN0315_Warenbahn_transportieren.svg"
   inkscape:export-filename="P:\Files\Axialis\Library\Baldwin\Inkscape-png-export\DIN0174_Getriebe_allgemein.png"
   inkscape:export-xdpi="92.160004"
   inkscape:export-ydpi="92.160004">
  <defs
     id="defs4" />
  <sodipodi:namedview
     id="base"
     pagecolor="#ffffff"
     bordercolor="#666666"
     borderopacity="1.0"
     inkscape:pageopacity="0.0"
     inkscape:pageshadow="2"
     inkscape:zoom="9.7209677"
     inkscape:cx="8.6448389"
     inkscape:cy="15.510504"
     inkscape:document-units="px"
     inkscape:current-layer="g4519"
     showgrid="true"
     units="px"
     showborder="true"
     borderlayer="false"
     inkscape:showpageshadow="true"
     inkscape:window-width="1658"
     inkscape:window-height="1007"
     inkscape:window-x="547"
     inkscape:window-y="225"
     inkscape:window-maximized="0"
     inkscape:snap-grids="false">
    <inkscape:grid
       type="xygrid"
       id="grid13545" />
  </sodipodi:namedview>
  <metadata
     id="metadata7">
    <rdf:RDF>
      <cc:Work
         rdf:about="">
        <dc:format>image/svg+xml</dc:format>
        <dc:type
           rdf:resource="http://purl.org/dc/dcmitype/StillImage" />
        <dc:title />
      </cc:Work>
    </rdf:RDF>
  </metadata>
  <g
     inkscape:label="Ebene 1"
     inkscape:groupmode="layer"
     id="layer1"
     transform="translate(0,-1002.3622)">
    <g
       id="g4519"
       transform="translate(35.658528,8.0694144)">
      <path
         style="color:#000000;font-style:normal;font-variant:normal;font-weight:normal;font-stretch:normal;font-size:medium;line-height:normal;font-family:sans-serif;font-variant-ligatures:normal;font-variant-position:normal;font-variant-caps:normal;font-variant-numeric:normal;font-variant-alternates:normal;font-feature-settings:normal;text-indent:0;text-align:start;text-decoration:none;text-decoration-line:none;text-decoration-style:solid;text-decoration-color:#000000;letter-spacing:normal;word-spacing:normal;text-transform:none;writing-mode:lr-tb;direction:ltr;text-orientation:mixed;dominant-baseline:auto;baseline-shift:baseline;text-anchor:start;white-space:normal;shape-padding:0;clip-rule:nonzero;display:inline;overflow:visible;visibility:visible;opacity:1;isolation:auto;mix-blend-mode:normal;color-interpolation:sRGB;color-interpolation-filters:linearRGB;solid-color:#000000;solid-opacity:1;vector-effect:none;fill:#000000;fill-opacity:1;fill-rule:nonzero;stroke:none;stroke-width:1.5;stroke-linecap:square;stroke-linejoin:miter;stroke-miterlimit:4;stroke-dasharray:none;stroke-dashoffset:0;stroke-opacity:1;color-rendering:auto;image-rendering:auto;shape-rendering:auto;text-rendering:auto;enable-background:accumulate"
         d="m 33.109375,7.8085938 -0.669922,1.3417968 2.658203,1.3300784 H 17.498047 c -4.444191,0 -8.4574852,2.683162 -10.1582032,6.789062 -1.700718,4.1059 -0.7597046,8.839822 2.3828124,11.982422 l 0.1777344,-0.179687 c 0,0 0.00195,0.002 0.00195,0.002 l -0.1757781,0.17964 13.0683595,12.933594 1.40625,-1.421875 -8.847656,-8.755859 c 0.692899,0.140768 1.410684,0.214843 2.144531,0.214843 5.925416,0 10.74414,-4.81874 10.744141,-10.74414 0,-3.766254 -1.950281,-7.080576 -4.890626,-9 h 11.746094 l -2.658203,1.328125 0.669922,1.341797 5.341797,-2.669922 h 5.046875 v -2 H 38.451172 Z M 17.498047,12.480469 h 2.091797 c 4.101386,0.946857 7.152343,4.606247 7.152344,9 0,5.1147 -4.129385,9.24414 -9.244141,9.24414 -1.767147,0 -3.411915,-0.501238 -4.814453,-1.357421 l -1.546875,-1.53125 C 8.5621357,25.261438 7.794146,21.397103 9.1875,18.033203 c 1.393354,-3.3638 4.669537,-5.552734 8.310547,-5.552734 z m 0,6.25 c -1.5099,0 -2.75,1.2401 -2.75,2.75 0,1.5099 1.2401,2.75 2.75,2.75 1.509899,0 2.75,-1.2401 2.75,-2.75 0,-1.5099 -1.240101,-2.75 -2.75,-2.75 z m 0,1.5 c 0.699239,0 1.25,0.5507 1.25,1.25 0,0.6992 -0.550761,1.25 -1.25,1.25 -0.69924,0 -1.25,-0.5508 -1.25,-1.25 0,-0.6993 0.55076,-1.25 1.25,-1.25 z"
         transform="translate(-35.658528,994.29279)"
         id="path5057-8"
         inkscape:connector-curvature="0" />
    </g>
  </g>
</svg>
