<?xml version="1.0" encoding="UTF-8" standalone="no"?>
<!-- Created with Inkscape (http://www.inkscape.org/) -->

<svg
   xmlns:dc="http://purl.org/dc/elements/1.1/"
   xmlns:cc="http://creativecommons.org/ns#"
   xmlns:rdf="http://www.w3.org/1999/02/22-rdf-syntax-ns#"
   xmlns:svg="http://www.w3.org/2000/svg"
   xmlns="http://www.w3.org/2000/svg"
   xmlns:sodipodi="http://sodipodi.sourceforge.net/DTD/sodipodi-0.dtd"
   xmlns:inkscape="http://www.inkscape.org/namespaces/inkscape"
   width="50"
   height="50"
   viewBox="0 0 50 50.000001"
   id="svg2"
   version="1.1"
   inkscape:version="0.92.4 (5da689c313, 2019-01-14)"
   sodipodi:docname="DIN0370_Oszillierende_Drehbewegung_beidseitig_begrenzt.svg"
   inkscape:export-filename="P:\DIN-Kreis.png"
   inkscape:export-xdpi="90"
   inkscape:export-ydpi="90">
  <defs
     id="defs4" />
  <sodipodi:namedview
     id="base"
     pagecolor="#ffffff"
     bordercolor="#666666"
     borderopacity="1.0"
     inkscape:pageopacity="0.0"
     inkscape:pageshadow="2"
     inkscape:zoom="9.7209674"
     inkscape:cx="3.9085131"
     inkscape:cy="14.828591"
     inkscape:document-units="px"
     inkscape:current-layer="layer1"
     showgrid="true"
     units="px"
     showborder="true"
     borderlayer="false"
     inkscape:showpageshadow="true"
     inkscape:window-width="1920"
     inkscape:window-height="1017"
     inkscape:window-x="-8"
     inkscape:window-y="-8"
     inkscape:window-maximized="1">
    <inkscape:grid
       type="xygrid"
       id="grid13545" />
  </sodipodi:namedview>
  <metadata
     id="metadata7">
    <rdf:RDF>
      <cc:Work
         rdf:about="">
        <dc:format>image/svg+xml</dc:format>
        <dc:type
           rdf:resource="http://purl.org/dc/dcmitype/StillImage" />
        <dc:title></dc:title>
      </cc:Work>
    </rdf:RDF>
  </metadata>
  <g
     inkscape:label="Ebene 1"
     inkscape:groupmode="layer"
     id="layer1"
     transform="translate(0,-1002.3622)">
    <path
       style="color:#000000;font-style:normal;font-variant:normal;font-weight:normal;font-stretch:normal;font-size:medium;line-height:normal;font-family:sans-serif;font-variant-ligatures:normal;font-variant-position:normal;font-variant-caps:normal;font-variant-numeric:normal;font-variant-alternates:normal;font-feature-settings:normal;text-indent:0;text-align:start;text-decoration:none;text-decoration-line:none;text-decoration-style:solid;text-decoration-color:#000000;letter-spacing:normal;word-spacing:normal;text-transform:none;writing-mode:lr-tb;direction:ltr;text-orientation:mixed;dominant-baseline:auto;baseline-shift:baseline;text-anchor:start;white-space:normal;shape-padding:0;clip-rule:nonzero;display:inline;overflow:visible;visibility:visible;opacity:1;isolation:auto;mix-blend-mode:normal;color-interpolation:sRGB;color-interpolation-filters:linearRGB;solid-color:#000000;solid-opacity:1;vector-effect:none;fill:#000000;fill-opacity:1;fill-rule:nonzero;stroke:none;stroke-width:1.5;stroke-linecap:butt;stroke-linejoin:miter;stroke-miterlimit:6;stroke-dasharray:none;stroke-dashoffset:1.5;stroke-opacity:1;paint-order:normal;color-rendering:auto;image-rendering:auto;shape-rendering:auto;text-rendering:auto;enable-background:accumulate"
       d="m 23.0625,15.162109 c -5.32015,0 -10.636126,1.98751 -14.7460938,5.953125 l -2.6171874,-3.220703 -1.1640626,0.945313 12.9999998,16 1.164063,-0.945313 -2.53125,-3.115234 c 3.594294,-3.594301 9.271089,-3.799531 13.105469,-0.619141 h -4.488282 v 1.5 h 8.332032 l -1.816407,2.234375 1.164063,0.945313 13,-16 -1.164063,-0.945313 -11.136719,13.707031 -4.130859,-6.988281 -1.291015,0.761719 1.871093,3.167969 C 27.66152,27.141674 25.365188,26.429688 23.0625,26.429688 c -2.832215,0 -5.66065,1.065202 -7.839844,3.185546 l -3.189453,-3.925781 h 8.359375 v -1.5 h -4.544922 c 5.692142,-3.201733 12.915598,-2.307129 17.644532,2.421875 l 1.060546,-1.060547 c -2.855819,-2.8558 -6.547924,-4.446597 -10.333984,-4.716797 -2.965496,-0.211638 -5.984553,0.399184 -8.708984,1.832032 l 1.925781,-3.261719 -1.292969,-0.763672 -4.140625,7.011719 -2.736328,-3.369141 C 16.64247,15.07356 28.235433,14.793667 35.941406,21.441406 h -4.15625 v 1.5 h 8.41211 l -4.164063,-7.048828 -1.291015,0.761719 2.130859,3.611328 C 32.908043,16.866817 27.987833,15.162109 23.0625,15.162109 Z"
       transform="translate(0,1002.3622)"
       id="path11452-7"
       inkscape:connector-curvature="0" />
  </g>
</svg>
