<?xml version="1.0" encoding="UTF-8" standalone="no"?>
<!-- Created with Inkscape (http://www.inkscape.org/) -->

<svg
   xmlns:dc="http://purl.org/dc/elements/1.1/"
   xmlns:cc="http://creativecommons.org/ns#"
   xmlns:rdf="http://www.w3.org/1999/02/22-rdf-syntax-ns#"
   xmlns:svg="http://www.w3.org/2000/svg"
   xmlns="http://www.w3.org/2000/svg"
   xmlns:sodipodi="http://sodipodi.sourceforge.net/DTD/sodipodi-0.dtd"
   xmlns:inkscape="http://www.inkscape.org/namespaces/inkscape"
   width="50"
   height="50"
   viewBox="0 0 50 50.000001"
   id="svg2"
   version="1.1"
   inkscape:version="0.92.4 (5da689c313, 2019-01-14)"
   sodipodi:docname="DIN0484_Reinigen_manuell.svg"
   inkscape:export-filename="P:\Files\Axialis\Library\Baldwin\Inkscape-png-export\DIN0484_Reinigen_manuell.png"
   inkscape:export-xdpi="92.160004"
   inkscape:export-ydpi="92.160004">
  <defs
     id="defs4" />
  <sodipodi:namedview
     id="base"
     pagecolor="#ffffff"
     bordercolor="#666666"
     borderopacity="1.0"
     inkscape:pageopacity="0.0"
     inkscape:pageshadow="2"
     inkscape:zoom="9.7209677"
     inkscape:cx="-4.4945811"
     inkscape:cy="23.323417"
     inkscape:document-units="px"
     inkscape:current-layer="layer1"
     showgrid="true"
     units="px"
     showborder="true"
     borderlayer="false"
     inkscape:showpageshadow="true"
     inkscape:window-width="2560"
     inkscape:window-height="1377"
     inkscape:window-x="-8"
     inkscape:window-y="-8"
     inkscape:window-maximized="1"
     inkscape:snap-global="false">
    <inkscape:grid
       type="xygrid"
       id="grid5234" />
  </sodipodi:namedview>
  <metadata
     id="metadata7">
    <rdf:RDF>
      <cc:Work
         rdf:about="">
        <dc:format>image/svg+xml</dc:format>
        <dc:type
           rdf:resource="http://purl.org/dc/dcmitype/StillImage" />
        <dc:title />
      </cc:Work>
    </rdf:RDF>
  </metadata>
  <g
     inkscape:label="Ebene 1"
     inkscape:groupmode="layer"
     id="layer1"
     transform="translate(0,-1002.3622)"
     style="display:inline">
    <g
       id="g9280"
       transform="translate(0.7942592,-1.0000004)">
      <path
         style="color:#000000;font-style:normal;font-variant:normal;font-weight:normal;font-stretch:normal;font-size:medium;line-height:normal;font-family:sans-serif;font-variant-ligatures:normal;font-variant-position:normal;font-variant-caps:normal;font-variant-numeric:normal;font-variant-alternates:normal;font-feature-settings:normal;text-indent:0;text-align:start;text-decoration:none;text-decoration-line:none;text-decoration-style:solid;text-decoration-color:#000000;letter-spacing:normal;word-spacing:normal;text-transform:none;writing-mode:lr-tb;direction:ltr;text-orientation:mixed;dominant-baseline:auto;baseline-shift:baseline;text-anchor:start;white-space:normal;shape-padding:0;clip-rule:nonzero;display:inline;overflow:visible;visibility:visible;opacity:1;isolation:auto;mix-blend-mode:normal;color-interpolation:sRGB;color-interpolation-filters:linearRGB;solid-color:#000000;solid-opacity:1;vector-effect:none;fill:#000000;fill-opacity:1;fill-rule:evenodd;stroke:none;stroke-width:1px;stroke-linecap:butt;stroke-linejoin:miter;stroke-miterlimit:4;stroke-dasharray:none;stroke-dashoffset:0;stroke-opacity:1;color-rendering:auto;image-rendering:auto;shape-rendering:auto;text-rendering:auto;enable-background:accumulate"
         d="m 25.039062,10.445312 c -2.888905,0.11223 -6.127781,2.102777 -7.796874,6.22461 -0.674869,-0.186569 -1.374994,-0.336131 -2.113282,-0.296875 -1.233747,0.066 -2.4923,0.731656 -3.476562,2.410156 -0.711695,1.213754 -1.320958,2.973335 -1.8164065,5.460938 -2.86611,2.272658 -3.2798774,6.57192 -1.8300781,9.785156 0.7598367,1.6841 2.0544186,3.098934 3.8203126,3.740234 1.420192,0.515675 3.123035,0.499719 5.021484,-0.208984 2.406988,1.948851 4.920924,2.354742 7.105469,1.716797 2.318282,-0.677 4.252193,-2.443803 5.505859,-4.533203 l -0.857422,-0.513672 c -1.146765,1.9113 -2.920997,3.499437 -4.929687,4.085937 -1.776007,0.518649 -3.745053,0.298756 -5.791016,-1.203125 0.128396,-0.06307 0.25483,-0.11612 0.384766,-0.185547 l -0.470703,-0.880859 c -2.290122,1.2237 -4.157476,1.316803 -5.626953,0.783203 -1.469478,-0.5336 -2.5782562,-1.722137 -3.2500002,-3.210937 -1.1009101,-2.43997 -0.9644473,-5.600234 0.6308593,-7.669922 -0.077774,0.489985 -0.1619819,0.932817 -0.2324219,1.472656 l 0.9921878,0.130859 c 0.13161,-1.008635 0.278741,-1.912237 0.435547,-2.740234 0.02501,-0.01731 0.04687,-0.03776 0.07226,-0.05469 l -0.05078,-0.07617 c 0.494447,-2.566347 1.099899,-4.287288 1.748047,-5.392579 0.865182,-1.4755 1.722161,-1.867668 2.667969,-1.917968 0.945807,-0.05 2.020135,0.328478 3.09375,0.642578 1.073615,0.3141 2.220001,0.579309 3.230468,-0.02539 l -0.513671,-0.857422 c -0.598645,0.3585 -1.409718,0.223728 -2.435547,-0.07617 -0.107086,-0.03133 -0.231697,-0.06583 -0.341797,-0.09961 1.552559,-3.741988 4.423185,-5.414985 6.863281,-5.509766 1.23575,-0.048 2.352243,0.307982 3.150391,0.988282 0.6708,0.57184 1.113329,1.386072 1.24414,2.441406 -0.312418,0.01263 -0.625422,0.03979 -0.941406,0.0957 -0.921367,0.1631 -1.852877,0.51605 -2.767578,1.09375 l 0.533203,0.845703 c 3.251529,-2.0536 6.566707,-0.929462 8.767578,1.460938 2.200872,2.3904 3.14872,6.006894 1.53125,8.871094 l 0.871094,0.490234 c 1.874068,-3.3187 0.776461,-7.384163 -1.667969,-10.039063 -1.391337,-1.511153 -3.266301,-2.576049 -5.296875,-2.789062 -0.133747,-1.36021 -0.733057,-2.472109 -1.625,-3.232422 -1.016513,-0.8665 -2.387379,-1.282863 -3.837891,-1.226563 z"
         transform="translate(-0.7942592,1003.3622)"
         id="path7478"
         inkscape:connector-curvature="0" />
    </g>
    <g
       id="g9287"
       transform="translate(1.2057409,-0.69138911)">
      <path
         style="color:#000000;font-style:normal;font-variant:normal;font-weight:normal;font-stretch:normal;font-size:medium;line-height:normal;font-family:sans-serif;font-variant-ligatures:normal;font-variant-position:normal;font-variant-caps:normal;font-variant-numeric:normal;font-variant-alternates:normal;font-feature-settings:normal;text-indent:0;text-align:start;text-decoration:none;text-decoration-line:none;text-decoration-style:solid;text-decoration-color:#000000;letter-spacing:normal;word-spacing:normal;text-transform:none;writing-mode:lr-tb;direction:ltr;text-orientation:mixed;dominant-baseline:auto;baseline-shift:baseline;text-anchor:start;white-space:normal;shape-padding:0;clip-rule:nonzero;display:inline;overflow:visible;visibility:visible;opacity:1;isolation:auto;mix-blend-mode:normal;color-interpolation:sRGB;color-interpolation-filters:linearRGB;solid-color:#000000;solid-opacity:1;vector-effect:none;fill:#000000;fill-opacity:1;fill-rule:evenodd;stroke:none;stroke-width:1px;stroke-linecap:butt;stroke-linejoin:miter;stroke-miterlimit:4;stroke-dasharray:none;stroke-dashoffset:0;stroke-opacity:1;color-rendering:auto;image-rendering:auto;shape-rendering:auto;text-rendering:auto;enable-background:accumulate"
         d="m 26.306641,20.560547 c -0.329786,0.03686 -0.652948,0.188225 -0.96875,0.40625 l -0.458985,0.316406 c -0.265846,-0.159729 -0.535888,-0.287967 -0.826172,-0.335937 -0.480478,-0.079 -0.979678,0.06199 -1.421875,0.367187 L 22.25,21.576172 c -0.355326,-0.296014 -0.707912,-0.552644 -1.080078,-0.705078 v 0.0078 c -0.513688,-0.2103 -1.101031,-0.228303 -1.625,0.0293 h -0.0078 l -4.802734,2.578125 0.04883,-0.02148 c -0.532636,0.2179 -0.893427,0.6523 -1.019531,1.125 -0.126104,0.4727 -0.03978,0.976872 0.228516,1.388672 0.268299,0.4117 0.734973,0.725981 1.310546,0.800781 0.575573,0.075 1.240667,-0.078 1.964844,-0.5 l 0.0078,-0.01172 0.0078,-0.0098 c 0.435867,-0.277299 1.185917,-0.804303 2.041016,-0.970703 0.855099,-0.1664 1.768444,-0.04601 2.765625,1.183594 l 0.03516,0.04297 0.04492,0.03516 c 1.102865,0.8616 1.857183,1.865997 2.287109,2.779297 0.414065,0.8797 0.477576,1.647191 0.371094,2.087891 -0.02495,0.017 -0.106028,0.08699 -0.394531,0.117187 -0.327059,0.034 -0.779961,0.01031 -1.222656,-0.05469 -0.423873,-0.05798 -0.828373,-0.142631 -1.144532,-0.214844 0.05862,-0.384719 0.120859,-0.747715 0.199219,-1.056641 0.137784,-0.5433 0.336965,-0.905472 0.478516,-1.013672 L 22.136711,28.3984 c -0.476742,0.364499 -0.679914,0.9319 -0.839844,1.5625 -0.15993,0.630499 -0.256011,1.352225 -0.351563,2.078124 -0.191099,1.451801 -0.455263,2.928294 -0.884765,3.433594 l 0.761719,0.646485 c 0.247477,-0.291147 0.416842,-0.651121 0.55664,-1.035157 5.93641,0.01556 8.974631,0.30614 10.734375,0.886719 1.808608,0.5967 2.4107,1.475631 3.875,2.894531 0.09998,0.097 0.203897,0.194622 0.310547,0.294922 l 0.683594,-0.728515 c -0.10382,-0.098 -0.203077,-0.192357 -0.298828,-0.285157 -1.413524,-1.3697 -2.226643,-2.4548 -4.257813,-3.125 -1.943166,-0.641067 -4.999825,-0.910724 -10.771484,-0.933593 0.11686,-0.594092 0.191745,-1.2185 0.271484,-1.833985 0.32848,0.07423 0.718426,0.157718 1.150391,0.216797 0.48695,0.067 0.99529,0.106294 1.460937,0.05859 0.465648,-0.048 0.967994,-0.177697 1.22461,-0.654297 l 0.02539,-0.04687 0.01367,-0.04883 c 0.237637,-0.808 0.0615,-1.812753 -0.439453,-2.876953 -0.488132,-1.0371 -1.321312,-2.1221 -2.496094,-3.0625 h -0.002 c -1.184611,-1.4593 -2.600605,-1.753103 -3.730469,-1.533203 -1.119318,0.21782 -1.998149,0.861799 -2.36914,1.099609 -0.58515,0.3414 -1.028881,0.412447 -1.332031,0.373047 -0.303149,-0.04 -0.486253,-0.176516 -0.601563,-0.353516 -0.11531,-0.1769 -0.149518,-0.398837 -0.09961,-0.585937 0.04991,-0.1871 0.162179,-0.347631 0.429687,-0.457032 l 0.02539,-0.0098 4.802734,-2.578125 c 0.278067,-0.1364 0.484063,-0.1344 0.802735,0 0.319447,0.1308 0.722958,0.425869 1.185546,0.855469 0.925178,0.8593 2.085308,2.232997 3.642579,3.716797 l 0.691406,-0.72461 c -1.3534,-1.289538 -2.382457,-2.460836 -3.308594,-3.371094 l 0.197266,-0.134765 c 0.294389,-0.2033 0.47201,-0.237172 0.689453,-0.201172 0.217442,0.036 0.512119,0.182422 0.888672,0.482422 0.753105,0.6001 1.788188,1.755822 3.33789,3.232422 l 0.689454,-0.72461 c -1.344526,-1.28116 -2.27441,-2.298478 -3.083985,-3.007812 l 0.185547,-0.128907 c 0.315517,-0.217799 0.475662,-0.249221 0.605469,-0.232421 0.129806,0.017 0.323768,0.115165 0.61914,0.384765 0.590745,0.5392 1.477101,1.657978 3.035157,3.142578 l 0.689453,-0.724609 c -0.895,-0.852777 -1.514353,-1.529792 -2.046816,-2.111254 l 0.49414,-0.443359 c 0.133144,-0.1196 0.22881,-0.17296 0.304688,-0.19336 0.07588,-0.02 0.151473,-0.0277 0.3125,0.0293 0.322053,0.1144 0.918278,0.530966 1.814453,1.384766 1.79235,1.7076 4.836419,5.105821 10.337891,11.107421 l 0.736328,-0.675781 c -5.498529,-5.9984 -8.523424,-9.38295 -10.384766,-11.15625 -0.930671,-0.8867 -1.557717,-1.384862 -2.167969,-1.601562 -0.305126,-0.1083 -0.623808,-0.132741 -0.908203,-0.05664 v 0.002 c -0.284394,0.076 -0.515094,0.236516 -0.714844,0.416016 l -0.517578,0.464844 c -0.0952,-0.09575 -0.219792,-0.241377 -0.310546,-0.324219 -0.359111,-0.3278 -0.720651,-0.579019 -1.166016,-0.636719 -0.111341,-0.0145 -0.222103,-0.01619 -0.332031,-0.0039 z"
         transform="translate(-1.2057409,1003.0536)"
         id="path7488"
         inkscape:connector-curvature="0" />
    </g>
  </g>
</svg>
