<?xml version="1.0" encoding="UTF-8" standalone="no"?>
<!-- Created with Inkscape (http://www.inkscape.org/) -->

<svg
   xmlns:dc="http://purl.org/dc/elements/1.1/"
   xmlns:cc="http://creativecommons.org/ns#"
   xmlns:rdf="http://www.w3.org/1999/02/22-rdf-syntax-ns#"
   xmlns:svg="http://www.w3.org/2000/svg"
   xmlns="http://www.w3.org/2000/svg"
   xmlns:sodipodi="http://sodipodi.sourceforge.net/DTD/sodipodi-0.dtd"
   xmlns:inkscape="http://www.inkscape.org/namespaces/inkscape"
   width="50"
   height="50"
   viewBox="0 0 50 50.000001"
   id="svg2"
   version="1.1"
   inkscape:version="0.92.4 (5da689c313, 2019-01-14)"
   sodipodi:docname="DIN0277_Wasser_Energie.svg"
   inkscape:export-filename="P:\Files\Axialis\Library\Baldwin\Inkscape-png-export\DIN0277_Wasser_Energie.png"
   inkscape:export-xdpi="92.160004"
   inkscape:export-ydpi="92.160004">
  <defs
     id="defs4" />
  <sodipodi:namedview
     id="base"
     pagecolor="#ffffff"
     bordercolor="#666666"
     borderopacity="1.0"
     inkscape:pageopacity="0.0"
     inkscape:pageshadow="2"
     inkscape:zoom="9.7209677"
     inkscape:cx="-4.4945811"
     inkscape:cy="22.706194"
     inkscape:document-units="px"
     inkscape:current-layer="layer1"
     showgrid="true"
     units="px"
     showborder="true"
     borderlayer="false"
     inkscape:showpageshadow="true"
     inkscape:window-width="2560"
     inkscape:window-height="1377"
     inkscape:window-x="-8"
     inkscape:window-y="-8"
     inkscape:window-maximized="1">
    <inkscape:grid
       type="xygrid"
       id="grid10233" />
  </sodipodi:namedview>
  <metadata
     id="metadata7">
    <rdf:RDF>
      <cc:Work
         rdf:about="">
        <dc:format>image/svg+xml</dc:format>
        <dc:type
           rdf:resource="http://purl.org/dc/dcmitype/StillImage" />
        <dc:title />
      </cc:Work>
    </rdf:RDF>
  </metadata>
  <g
     inkscape:label="Ebene 1"
     inkscape:groupmode="layer"
     id="layer1"
     transform="translate(0,-1002.3622)">
    <path
       style="color:#000000;font-style:normal;font-variant:normal;font-weight:normal;font-stretch:normal;font-size:medium;line-height:normal;font-family:sans-serif;font-variant-ligatures:normal;font-variant-position:normal;font-variant-caps:normal;font-variant-numeric:normal;font-variant-alternates:normal;font-feature-settings:normal;text-indent:0;text-align:start;text-decoration:none;text-decoration-line:none;text-decoration-style:solid;text-decoration-color:#000000;letter-spacing:normal;word-spacing:normal;text-transform:none;writing-mode:lr-tb;direction:ltr;text-orientation:mixed;dominant-baseline:auto;baseline-shift:baseline;text-anchor:start;white-space:normal;shape-padding:0;clip-rule:nonzero;display:inline;overflow:visible;visibility:visible;opacity:1;isolation:auto;mix-blend-mode:normal;color-interpolation:sRGB;color-interpolation-filters:linearRGB;solid-color:#000000;solid-opacity:1;vector-effect:none;fill:#000000;fill-opacity:1;fill-rule:nonzero;stroke:none;stroke-width:1.5;stroke-linecap:butt;stroke-linejoin:miter;stroke-miterlimit:4;stroke-dasharray:none;stroke-dashoffset:0;stroke-opacity:1;color-rendering:auto;image-rendering:auto;shape-rendering:auto;text-rendering:auto;enable-background:accumulate"
       d="M 25,9.2558594 C 16.31316,9.2558594 9.2558594,16.3132 9.2558594,25 9.2558594,33.6869 16.31316,40.746094 25,40.746094 33.68684,40.746094 40.744141,33.6869 40.744141,25 40.744141,16.3132 33.68684,9.2558594 25,9.2558594 Z m 0,1.4999996 c 7.87618,0 14.244141,6.367941 14.244141,14.244141 0,0.487655 -0.02655,0.968407 -0.07422,1.443359 -1.640948,-0.732246 -2.739581,-2.365407 -2.740234,-4.21875 h -1.5 c 0,0 0,0.002 0,0.002 -10e-7,1.653901 -0.880187,3.17886 -2.3125,4.00586 -1.432315,0.8269 -3.194696,0.827 -4.626954,0 -1.432257,-0.8271 -2.312611,-2.353913 -2.3125,-4.007813 h -1.5 c 0,1.6539 -0.880186,3.180813 -2.3125,4.007813 -1.432313,0.8269 -3.194695,0.827 -4.626953,0 -1.432257,-0.8271 -2.312611,-2.353913 -2.3125,-4.007813 h -1.5 c 0,1.795959 -1.033128,3.385233 -2.599609,4.148438 C 10.782984,25.920597 10.755859,25.463895 10.755859,25 10.755859,17.1238 17.12382,10.755859 25,10.755859 Z m -0.07227,14.388672 c 0.530293,0.976586 1.317902,1.812414 2.3125,2.386719 1.894275,1.0938 4.232604,1.0936 6.126954,0 0.99401,-0.573891 1.782236,-1.407534 2.3125,-2.382812 0.697912,1.280192 1.846743,2.282774 3.255859,2.804687 C 37.577901,34.408143 31.862868,39.246094 25,39.246094 c -6.881067,0 -12.609228,-4.86303 -13.947266,-11.34375 1.350448,-0.536451 2.450244,-1.51548 3.125,-2.753906 0.53029,0.974924 1.317253,1.80926 2.310547,2.382812 1.894275,1.0938 4.232605,1.0936 6.126953,0 0.994638,-0.574253 1.782236,-1.410119 2.3125,-2.386719 z"
       transform="translate(0,1002.3622)"
       id="path3336"
       inkscape:connector-curvature="0" />
  </g>
</svg>
