<?xml version="1.0" encoding="UTF-8" standalone="no"?>
<!-- Created with Inkscape (http://www.inkscape.org/) -->

<svg
   xmlns:dc="http://purl.org/dc/elements/1.1/"
   xmlns:cc="http://creativecommons.org/ns#"
   xmlns:rdf="http://www.w3.org/1999/02/22-rdf-syntax-ns#"
   xmlns:svg="http://www.w3.org/2000/svg"
   xmlns="http://www.w3.org/2000/svg"
   xmlns:sodipodi="http://sodipodi.sourceforge.net/DTD/sodipodi-0.dtd"
   xmlns:inkscape="http://www.inkscape.org/namespaces/inkscape"
   width="50"
   height="50"
   viewBox="0 0 50 50.000001"
   id="svg2"
   version="1.1"
   inkscape:version="0.92.4 (5da689c313, 2019-01-14)"
   sodipodi:docname="DIN0523_Nicht_im_Lauf_betaetigen.svg"
   inkscape:export-filename="P:\Files\Axialis\Library\Baldwin\Inkscape-png-export\DIN0523_Nicht_im_Lauf_betaetigen.png"
   inkscape:export-xdpi="92.160004"
   inkscape:export-ydpi="92.160004">
  <defs
     id="defs4" />
  <sodipodi:namedview
     id="base"
     pagecolor="#ffffff"
     bordercolor="#666666"
     borderopacity="1.0"
     inkscape:pageopacity="0.0"
     inkscape:pageshadow="2"
     inkscape:zoom="9.7209677"
     inkscape:cx="-4.4945811"
     inkscape:cy="22.706194"
     inkscape:document-units="px"
     inkscape:current-layer="layer1"
     showgrid="true"
     units="px"
     showborder="true"
     borderlayer="false"
     inkscape:showpageshadow="true"
     inkscape:window-width="2560"
     inkscape:window-height="1377"
     inkscape:window-x="-8"
     inkscape:window-y="-8"
     inkscape:window-maximized="1">
    <inkscape:grid
       type="xygrid"
       id="grid10233" />
  </sodipodi:namedview>
  <metadata
     id="metadata7">
    <rdf:RDF>
      <cc:Work
         rdf:about="">
        <dc:format>image/svg+xml</dc:format>
        <dc:type
           rdf:resource="http://purl.org/dc/dcmitype/StillImage" />
        <dc:title />
      </cc:Work>
    </rdf:RDF>
  </metadata>
  <g
     inkscape:label="Ebene 1"
     inkscape:groupmode="layer"
     id="layer1"
     transform="translate(0,-1002.3622)">
    <path
       style="color:#000000;font-style:normal;font-variant:normal;font-weight:normal;font-stretch:normal;font-size:medium;line-height:normal;font-family:sans-serif;font-variant-ligatures:normal;font-variant-position:normal;font-variant-caps:normal;font-variant-numeric:normal;font-variant-alternates:normal;font-feature-settings:normal;text-indent:0;text-align:start;text-decoration:none;text-decoration-line:none;text-decoration-style:solid;text-decoration-color:#000000;letter-spacing:normal;word-spacing:normal;text-transform:none;writing-mode:lr-tb;direction:ltr;text-orientation:mixed;dominant-baseline:auto;baseline-shift:baseline;text-anchor:start;white-space:normal;shape-padding:0;clip-rule:nonzero;display:inline;overflow:visible;visibility:visible;opacity:1;isolation:auto;mix-blend-mode:normal;color-interpolation:sRGB;color-interpolation-filters:linearRGB;solid-color:#000000;solid-opacity:1;vector-effect:none;fill:#000000;fill-opacity:1;fill-rule:nonzero;stroke:none;stroke-width:1.5;stroke-linecap:butt;stroke-linejoin:miter;stroke-miterlimit:4;stroke-dasharray:none;stroke-dashoffset:0;stroke-opacity:1;color-rendering:auto;image-rendering:auto;shape-rendering:auto;text-rendering:auto;enable-background:accumulate"
       d="M 25,9.2558594 C 16.31316,9.2558594 9.2558594,16.3132 9.2558594,25 c 0,7.68112 5.5216076,14.079934 12.8046876,15.460938 l 6.273437,3.136718 0.671875,-1.341797 -3.111328,-1.554687 C 34.163499,40.233556 40.744141,33.384771 40.744141,25 40.744141,16.3132 33.68684,9.2558594 25,9.2558594 Z m 0,1.4999996 c 7.87618,0 14.244141,6.367941 14.244141,14.244141 0,7.608282 -5.947458,13.791897 -13.451172,14.205078 l 3.21289,-1.605469 -0.671875,-1.341797 -5.585937,2.792969 C 15.947909,37.970641 10.755859,32.107567 10.755859,25 10.755859,17.1238 17.12382,10.755859 25,10.755859 Z"
       transform="translate(0,1002.3622)"
       id="path3336"
       inkscape:connector-curvature="0" />
    <g
       transform="matrix(0.9122541,0,0,0.9122541,2.6757907,85.17239)"
       style="stroke-width:1.64427876;stroke-miterlimit:4;stroke-dasharray:none"
       id="g9287">
      <path
         style="color:#000000;font-style:normal;font-variant:normal;font-weight:normal;font-stretch:normal;font-size:medium;line-height:normal;font-family:sans-serif;font-variant-ligatures:normal;font-variant-position:normal;font-variant-caps:normal;font-variant-numeric:normal;font-variant-alternates:normal;font-feature-settings:normal;text-indent:0;text-align:start;text-decoration:none;text-decoration-line:none;text-decoration-style:solid;text-decoration-color:#000000;letter-spacing:normal;word-spacing:normal;text-transform:none;writing-mode:lr-tb;direction:ltr;text-orientation:mixed;dominant-baseline:auto;baseline-shift:baseline;text-anchor:start;white-space:normal;shape-padding:0;clip-rule:nonzero;display:inline;overflow:visible;visibility:visible;opacity:1;isolation:auto;mix-blend-mode:normal;color-interpolation:sRGB;color-interpolation-filters:linearRGB;solid-color:#000000;solid-opacity:1;vector-effect:none;fill:#000000;fill-opacity:1;fill-rule:evenodd;stroke:none;stroke-width:1.5;stroke-linecap:butt;stroke-linejoin:miter;stroke-miterlimit:4;stroke-dasharray:none;stroke-dashoffset:0;stroke-opacity:1;color-rendering:auto;image-rendering:auto;shape-rendering:auto;text-rendering:auto;enable-background:accumulate"
         d="m 25.546875,16.314453 c -0.364749,0.04097 -0.712082,0.204949 -1.023437,0.419922 l -0.257813,0.177734 c -0.218468,-0.114661 -0.447961,-0.200667 -0.699219,-0.242187 -0.515617,-0.08484 -1.064886,0.07252 -1.511718,0.380859 l -0.171876,0.119141 C 21.601189,16.950954 21.315719,16.758205 21,16.628906 v -0.0059 c -0.525696,-0.215292 -1.174656,-0.233557 -1.724609,0.03711 l -0.0098,0.0098 -4.386719,2.353516 0.07227,-0.03125 c -0.563813,0.230709 -0.964132,0.707415 -1.101563,1.222656 -0.13743,0.51515 -0.04362,1.05732 0.246094,1.501953 0.289717,0.444633 0.797217,0.782692 1.402344,0.861328 0.605126,0.07845 1.277026,-0.08463 1.978515,-0.494141 l 0.01172,-0.0098 0.01367,-0.0098 c 0.273326,-0.173967 0.914356,-0.485684 1.652344,-0.552734 0.737988,-0.06751 1.568815,0.06546 2.453125,0.789062 l 0.0059,0.0098 0.0059,0.0098 c 1.036006,0.809444 1.690484,1.444799 2.003906,1.914063 0.283965,0.425202 0.280117,0.647213 0.205078,0.960937 -0.02705,0.01277 -0.07833,0.07676 -0.302734,0.173829 -0.283426,0.122698 -0.674407,0.237227 -1.058594,0.326171 -0.768374,0.177708 -1.496095,0.257813 -1.496094,0.257813 h -0.0293 l -0.02539,0.0098 c -1.23109,0.228154 -2.018243,1.158885 -2.103516,2.123047 -0.04264,0.482126 0.08214,0.983755 0.404297,1.380859 0.322151,0.397013 0.842638,0.653398 1.416015,0.683594 h 0.01953 0.01953 c 5.711985,0 8.522917,0.277968 10.107422,0.800781 1.584504,0.522721 2.071139,1.261501 3.421875,2.570312 0.09321,0.09031 0.189358,0.181483 0.287109,0.273438 l 1.029297,-1.09961 C 35.423328,32.606824 35.33143,32.520333 35.246094,32.4375 33.971522,31.202399 33.168347,30.1505 31.25,29.517578 c -1.913433,-0.6313 -4.811096,-0.873762 -10.539062,-0.875 -0.214621,-0.01095 -0.279401,-0.06632 -0.330079,-0.128906 -0.05068,-0.06203 -0.08653,-0.165478 -0.07422,-0.304688 0.02461,-0.278328 0.215354,-0.657913 0.880859,-0.78125 0.05161,-0.0091 0.774197,-0.08344 1.619141,-0.279296 0.437319,-0.101169 0.896606,-0.228527 1.316406,-0.410157 0.419799,-0.18163 0.838088,-0.382715 1.107422,-0.882812 l 0.03516,-0.07031 0.02344,-0.07422 c 0.222734,-0.757354 0.06468,-1.595672 -0.417968,-2.31836 -0.48021,-0.718947 -1.235835,-1.406256 -2.314453,-2.25 h -0.0039 c -1.188048,-0.970365 -2.483415,-1.216698 -3.535156,-1.121094 -1.052758,0.0957 -1.863705,0.488744 -2.320312,0.779297 l 0.02344,-0.01563 c -0.492948,0.287543 -0.832805,0.328278 -1.029297,0.302735 -0.196491,-0.02554 -0.279611,-0.09899 -0.339844,-0.191407 -0.06023,-0.0925 -0.07588,-0.212072 -0.05273,-0.298828 0.02313,-0.08666 0.05458,-0.15274 0.220703,-0.220703 l 0.03516,-0.01563 4.388671,-2.353516 c 0.179797,-0.08758 0.255644,-0.09162 0.488282,0.0078 0.234334,0.09597 0.581949,0.343561 0.992187,0.724609 0.820477,0.761915 1.88872,2.02071 3.322266,3.386719 l 1.033203,-1.087891 c -1.107232,-1.055054 -1.966063,-2.005479 -2.761719,-2.8125 0.128297,-0.07257 0.208695,-0.09371 0.302734,-0.07812 0.121065,0.02007 0.351384,0.122326 0.675782,0.380859 0.648793,0.516974 1.603197,1.576578 3.02539,2.931641 l 1.035157,-1.087891 c -1.062336,-1.012232 -1.841018,-1.850616 -2.529297,-2.492188 0.112469,-0.05995 0.179065,-0.0785 0.197265,-0.07617 0.02568,0 0.153573,0.0466 0.404297,0.27539 0.501448,0.457678 1.330902,1.496269 2.765625,2.863281 l 1.033203,-1.083984 c -0.685498,-0.653163 -1.209761,-1.216834 -1.65039,-1.697266 l 0.226562,-0.205078 c 0.151998,-0.136564 0.135204,-0.111747 0.173828,-0.109375 0.03862,0 0.253707,0.05843 0.638672,0.345703 0.76993,0.573808 2.113683,1.93808 4.367188,4.378907 l 1.103515,-1.017578 C 32.523515,19.102913 31.203562,17.728522 30.212891,16.990234 29.717555,16.621045 29.278701,16.3809 28.769531,16.349609 28.26036,16.318593 27.801035,16.571405 27.5,16.841797 l -0.261719,0.236328 c -0.03033,-0.02872 -0.06947,-0.07601 -0.09961,-0.103516 -0.346331,-0.316096 -0.723636,-0.593615 -1.222656,-0.658203 -0.124755,-0.01619 -0.247558,-0.01561 -0.369141,-0.002 z"
         transform="matrix(1.0961858,0,0,1.0961858,-2.9331638,1005.4105)"
         id="path7492"
         inkscape:connector-curvature="0" />
    </g>
    <path
       style="fill:none;fill-rule:evenodd;stroke:#000000;stroke-width:3;stroke-linecap:butt;stroke-linejoin:miter;stroke-miterlimit:4;stroke-dasharray:none;stroke-opacity:1"
       d="m 19,1038.3622 15.428571,-18"
       id="path7391"
       inkscape:connector-curvature="0" />
  </g>
</svg>
