<?xml version="1.0" encoding="UTF-8" standalone="no"?>
<!-- Created with Inkscape (http://www.inkscape.org/) -->

<svg
   xmlns:dc="http://purl.org/dc/elements/1.1/"
   xmlns:cc="http://creativecommons.org/ns#"
   xmlns:rdf="http://www.w3.org/1999/02/22-rdf-syntax-ns#"
   xmlns:svg="http://www.w3.org/2000/svg"
   xmlns="http://www.w3.org/2000/svg"
   xmlns:sodipodi="http://sodipodi.sourceforge.net/DTD/sodipodi-0.dtd"
   xmlns:inkscape="http://www.inkscape.org/namespaces/inkscape"
   width="50"
   height="50"
   viewBox="0 0 50 50.000001"
   id="svg2"
   version="1.1"
   inkscape:version="0.92.4 (5da689c313, 2019-01-14)"
   sodipodi:docname="DIN0355_Sauberkeitsstufe_2.svg"
   inkscape:export-filename="P:\Files\Axialis\Library\Baldwin\Inkscape-png-export\DIN0278_Elektrische_Energie.png"
   inkscape:export-xdpi="92.160004"
   inkscape:export-ydpi="92.160004">
  <defs
     id="defs4" />
  <sodipodi:namedview
     id="base"
     pagecolor="#ffffff"
     bordercolor="#666666"
     borderopacity="1.0"
     inkscape:pageopacity="0.0"
     inkscape:pageshadow="2"
     inkscape:zoom="9.7209677"
     inkscape:cx="-49.448953"
     inkscape:cy="22.706194"
     inkscape:document-units="px"
     inkscape:current-layer="text6042"
     showgrid="true"
     units="px"
     showborder="true"
     borderlayer="false"
     inkscape:showpageshadow="true"
     inkscape:window-width="2560"
     inkscape:window-height="1377"
     inkscape:window-x="-8"
     inkscape:window-y="-8"
     inkscape:window-maximized="1">
    <inkscape:grid
       type="xygrid"
       id="grid10233" />
  </sodipodi:namedview>
  <metadata
     id="metadata7">
    <rdf:RDF>
      <cc:Work
         rdf:about="">
        <dc:format>image/svg+xml</dc:format>
        <dc:type
           rdf:resource="http://purl.org/dc/dcmitype/StillImage" />
        <dc:title />
      </cc:Work>
    </rdf:RDF>
  </metadata>
  <g
     inkscape:label="Ebene 1"
     inkscape:groupmode="layer"
     id="layer1"
     transform="translate(0,-1002.3622)">
    <path
       style="color:#000000;font-style:normal;font-variant:normal;font-weight:normal;font-stretch:normal;font-size:medium;line-height:normal;font-family:sans-serif;font-variant-ligatures:normal;font-variant-position:normal;font-variant-caps:normal;font-variant-numeric:normal;font-variant-alternates:normal;font-feature-settings:normal;text-indent:0;text-align:start;text-decoration:none;text-decoration-line:none;text-decoration-style:solid;text-decoration-color:#000000;letter-spacing:normal;word-spacing:normal;text-transform:none;writing-mode:lr-tb;direction:ltr;text-orientation:mixed;dominant-baseline:auto;baseline-shift:baseline;text-anchor:start;white-space:normal;shape-padding:0;clip-rule:nonzero;display:inline;overflow:visible;visibility:visible;opacity:1;isolation:auto;mix-blend-mode:normal;color-interpolation:sRGB;color-interpolation-filters:linearRGB;solid-color:#000000;solid-opacity:1;vector-effect:none;fill:#000000;fill-opacity:1;fill-rule:nonzero;stroke:none;stroke-width:1.5;stroke-linecap:butt;stroke-linejoin:miter;stroke-miterlimit:4;stroke-dasharray:none;stroke-dashoffset:0;stroke-opacity:1;color-rendering:auto;image-rendering:auto;shape-rendering:auto;text-rendering:auto;enable-background:accumulate"
       d="m 7.25,7.25 v 35.5 h 35.5 V 35 h -1.5 v 6.25 H 8.75 V 8.75 h 4.220703 a 1.5,1.5 0 0 0 -0.253906,0.8359375 1.5,1.5 0 0 0 1.5,1.5000005 1.5,1.5 0 0 0 1.5,-1.5000005 A 1.5,1.5 0 0 0 15.462891,8.75 H 41.25 V 15 h 1.5 V 7.25 Z m 29.996094,3.451172 a 0.98564792,0.98564792 0 0 0 -0.986328,0.986328 0.98564792,0.98564792 0 0 0 0.986328,0.984375 0.98564792,0.98564792 0 0 0 0.986328,-0.984375 0.98564792,0.98564792 0 0 0 -0.986328,-0.986328 z m -10.490235,3.308594 a 1.5,1.5 0 0 0 -1.5,1.5 1.5,1.5 0 0 0 1.5,1.5 1.5,1.5 0 0 0 1.5,-1.5 1.5,1.5 0 0 0 -1.5,-1.5 z m -6.726562,18.689453 a 0.98564792,0.98564792 0 0 0 -0.986328,0.984375 0.98564792,0.98564792 0 0 0 0.986328,0.986328 0.98564792,0.98564792 0 0 0 0.984375,-0.986328 0.98564792,0.98564792 0 0 0 -0.984375,-0.984375 z M 14.9375,34.935547 a 1.5,1.5 0 0 0 -1.5,1.5 1.5,1.5 0 0 0 1.5,1.5 1.5,1.5 0 0 0 1.5,-1.5 1.5,1.5 0 0 0 -1.5,-1.5 z m 18.052734,0.511719 a 0.98564792,0.98564792 0 0 0 -0.986328,0.986328 0.98564792,0.98564792 0 0 0 0.986328,0.984375 0.98564792,0.98564792 0 0 0 0.986328,-0.984375 0.98564792,0.98564792 0 0 0 -0.986328,-0.986328 z"
       transform="translate(0,1002.3622)"
       id="path6038"
       inkscape:connector-curvature="0" />
    <g
       aria-label="2"
       style="font-style:normal;font-variant:normal;font-weight:normal;font-stretch:normal;font-size:14.66666698px;line-height:1.25;font-family:Constantia;-inkscape-font-specification:Constantia;text-align:center;letter-spacing:0px;word-spacing:0px;text-anchor:middle;fill:#000000;fill-opacity:1;stroke:none"
       id="text6042">
      <path
         style="font-style:normal;font-variant:normal;font-weight:normal;font-stretch:normal;font-size:21.33333397px;font-family:'DIN 1451 Mittelschrift';-inkscape-font-specification:'DIN 1451 Mittelschrift'"
         d="m 41.8125,17.259766 c -1.145833,0 -2.135417,0.424284 -2.96875,1.271484 -0.833331,0.840267 -1.252819,1.874316 -1.259766,3.103516 h 2.175782 c 0.04861,-0.680534 0.282552,-1.214583 0.699218,-1.603516 0.423611,-0.3958 0.929254,-0.59375 1.519532,-0.59375 0.645833,0 1.15625,0.229167 1.53125,0.6875 0.375,0.4514 0.5625,0.941017 0.5625,1.46875 0,0.2292 -0.03407,0.465918 -0.103516,0.708984 -0.06944,0.243 -0.218099,0.509115 -0.447266,0.800782 l -5.9375,7.427734 v 2.041016 h 8.65625 V 30.40625 h -5.792968 l 4.886718,-6.125 c 0.604167,-0.75 0.90625,-1.638282 0.90625,-2.666016 0,-1.2014 -0.424261,-2.226952 -1.271484,-3.074218 -0.840277,-0.854134 -1.892361,-1.28125 -3.15625,-1.28125 z"
         transform="translate(0,1002.3622)"
         id="path6662"
         inkscape:connector-curvature="0" />
    </g>
  </g>
</svg>
