<?xml version="1.0" encoding="UTF-8" standalone="no"?>
<!-- Created with Inkscape (http://www.inkscape.org/) -->

<svg
   xmlns:dc="http://purl.org/dc/elements/1.1/"
   xmlns:cc="http://creativecommons.org/ns#"
   xmlns:rdf="http://www.w3.org/1999/02/22-rdf-syntax-ns#"
   xmlns:svg="http://www.w3.org/2000/svg"
   xmlns="http://www.w3.org/2000/svg"
   xmlns:sodipodi="http://sodipodi.sourceforge.net/DTD/sodipodi-0.dtd"
   xmlns:inkscape="http://www.inkscape.org/namespaces/inkscape"
   width="50"
   height="50"
   viewBox="0 0 50 50.000001"
   id="svg2"
   version="1.1"
   inkscape:version="0.92.4 (5da689c313, 2019-01-14)"
   sodipodi:docname="DIN0524_Nur_im_Lauf_betaetigen.svg"
   inkscape:export-filename="P:\Files\Axialis\Library\Baldwin\Inkscape-png-export\DIN0524_Nur_im_Lauf_betaetigen.png"
   inkscape:export-xdpi="92.160004"
   inkscape:export-ydpi="92.160004">
  <defs
     id="defs4" />
  <sodipodi:namedview
     id="base"
     pagecolor="#ffffff"
     bordercolor="#666666"
     borderopacity="1.0"
     inkscape:pageopacity="0.0"
     inkscape:pageshadow="2"
     inkscape:zoom="9.7209677"
     inkscape:cx="-4.4945811"
     inkscape:cy="22.706194"
     inkscape:document-units="px"
     inkscape:current-layer="layer1"
     showgrid="true"
     units="px"
     showborder="true"
     borderlayer="false"
     inkscape:showpageshadow="true"
     inkscape:window-width="2560"
     inkscape:window-height="1377"
     inkscape:window-x="-8"
     inkscape:window-y="-8"
     inkscape:window-maximized="1">
    <inkscape:grid
       type="xygrid"
       id="grid10233" />
  </sodipodi:namedview>
  <metadata
     id="metadata7">
    <rdf:RDF>
      <cc:Work
         rdf:about="">
        <dc:format>image/svg+xml</dc:format>
        <dc:type
           rdf:resource="http://purl.org/dc/dcmitype/StillImage" />
        <dc:title />
      </cc:Work>
    </rdf:RDF>
  </metadata>
  <g
     inkscape:label="Ebene 1"
     inkscape:groupmode="layer"
     id="layer1"
     transform="translate(0,-1002.3622)">
    <path
       style="color:#000000;font-style:normal;font-variant:normal;font-weight:normal;font-stretch:normal;font-size:medium;line-height:normal;font-family:sans-serif;font-variant-ligatures:normal;font-variant-position:normal;font-variant-caps:normal;font-variant-numeric:normal;font-variant-alternates:normal;font-feature-settings:normal;text-indent:0;text-align:start;text-decoration:none;text-decoration-line:none;text-decoration-style:solid;text-decoration-color:#000000;letter-spacing:normal;word-spacing:normal;text-transform:none;writing-mode:lr-tb;direction:ltr;text-orientation:mixed;dominant-baseline:auto;baseline-shift:baseline;text-anchor:start;white-space:normal;shape-padding:0;clip-rule:nonzero;display:inline;overflow:visible;visibility:visible;opacity:1;isolation:auto;mix-blend-mode:normal;color-interpolation:sRGB;color-interpolation-filters:linearRGB;solid-color:#000000;solid-opacity:1;vector-effect:none;fill:#000000;fill-opacity:1;fill-rule:nonzero;stroke:none;stroke-width:1.5;stroke-linecap:butt;stroke-linejoin:miter;stroke-miterlimit:4;stroke-dasharray:none;stroke-dashoffset:0;stroke-opacity:1;color-rendering:auto;image-rendering:auto;shape-rendering:auto;text-rendering:auto;enable-background:accumulate"
       d="M 25,9.2558594 C 16.31316,9.2558594 9.2558594,16.3132 9.2558594,25 c 0,7.68112 5.5216076,14.079934 12.8046876,15.460938 l 6.273437,3.136718 0.671875,-1.341797 -3.111328,-1.554687 C 34.163499,40.233556 40.744141,33.384771 40.744141,25 40.744141,16.3132 33.68684,9.2558594 25,9.2558594 Z m 0,1.4999996 c 7.87618,0 14.244141,6.367941 14.244141,14.244141 0,7.608282 -5.947458,13.791897 -13.451172,14.205078 l 3.21289,-1.605469 -0.671875,-1.341797 -5.585937,2.792969 C 15.947909,37.970641 10.755859,32.107567 10.755859,25 10.755859,17.1238 17.12382,10.755859 25,10.755859 Z"
       transform="translate(0,1002.3622)"
       id="path3336"
       inkscape:connector-curvature="0" />
    <path
       style="color:#000000;font-style:normal;font-variant:normal;font-weight:normal;font-stretch:normal;font-size:medium;line-height:normal;font-family:sans-serif;font-variant-ligatures:normal;font-variant-position:normal;font-variant-caps:normal;font-variant-numeric:normal;font-variant-alternates:normal;font-feature-settings:normal;text-indent:0;text-align:start;text-decoration:none;text-decoration-line:none;text-decoration-style:solid;text-decoration-color:#000000;letter-spacing:normal;word-spacing:normal;text-transform:none;writing-mode:lr-tb;direction:ltr;text-orientation:mixed;dominant-baseline:auto;baseline-shift:baseline;text-anchor:start;white-space:normal;shape-padding:0;clip-rule:nonzero;display:inline;overflow:visible;visibility:visible;opacity:1;isolation:auto;mix-blend-mode:normal;color-interpolation:sRGB;color-interpolation-filters:linearRGB;solid-color:#000000;solid-opacity:1;vector-effect:none;fill:#000000;fill-opacity:1;fill-rule:evenodd;stroke:none;stroke-width:1.5;stroke-linecap:butt;stroke-linejoin:miter;stroke-miterlimit:4;stroke-dasharray:none;stroke-dashoffset:0;stroke-opacity:1;color-rendering:auto;image-rendering:auto;shape-rendering:auto;text-rendering:auto;enable-background:accumulate"
       d="m 25.546875,16.314453 c -0.364749,0.04094 -0.712082,0.204972 -1.023437,0.419922 l -0.257813,0.177734 c -0.218468,-0.114645 -0.447961,-0.200669 -0.699219,-0.242187 -0.515617,-0.085 -1.064887,0.07256 -1.511718,0.380859 l -0.171876,0.119141 C 21.601496,16.951279 21.315359,16.760015 21,16.630859 v -0.0078 c -0.525696,-0.2153 -1.174655,-0.233191 -1.724609,0.03711 l -0.0098,0.0098 -4.386719,2.353516 0.07227,-0.03125 c -0.563813,0.230699 -0.964132,0.707456 -1.101563,1.222656 -0.13743,0.5152 -0.04362,1.057253 0.246094,1.501953 0.289717,0.4446 0.797217,0.782728 1.402344,0.861328 0.605127,0.079 1.277026,-0.08494 1.978515,-0.494141 l 0.01172,-0.0098 0.01367,-0.0098 c 0.273326,-0.1739 0.914356,-0.485734 1.652344,-0.552734 0.737988,-0.068 1.568815,0.06586 2.453125,0.789062 l 0.0059,0.0098 0.0059,0.0098 c 1.036007,0.809401 1.690483,1.444863 2.003906,1.914063 0.283964,0.4252 0.280117,0.647138 0.205078,0.960937 -0.02705,0.013 -0.07833,0.07703 -0.302734,0.173829 -0.283426,0.1226 -0.674407,0.237172 -1.058594,0.326171 -0.768375,0.1777 -1.496095,0.257813 -1.496094,0.257813 h -0.0293 l -0.02539,0.0098 c -1.23109,0.2281 -2.018244,1.1608 -2.103516,2.125 -0.04264,0.4821 0.08214,0.983659 0.404297,1.380859 0.32215,0.397 0.842639,0.653394 1.416015,0.683594 h 0.01953 0.01953 c 5.711985,0 8.522917,0.277981 10.107422,0.800781 1.584504,0.5227 2.07114,1.261512 3.421875,2.570313 0.09321,0.09 0.189358,0.181437 0.287109,0.273437 l 1.029297,-1.101563 c -0.09425,-0.089 -0.186148,-0.172959 -0.271484,-0.255859 -1.274571,-1.2351 -2.077747,-2.286922 -3.996094,-2.919922 -1.913432,-0.631278 -4.811097,-0.873762 -10.539062,-0.875 -0.214621,-0.011 -0.279401,-0.06876 -0.330079,-0.130859 -0.05068,-0.062 -0.08653,-0.165488 -0.07422,-0.304688 0.02461,-0.2783 0.215354,-0.655997 0.880859,-0.779296 0.05161,-0.01 0.774197,-0.08545 1.619141,-0.28125 0.437319,-0.101201 0.896606,-0.226604 1.316406,-0.408204 0.419799,-0.1816 0.838089,-0.384665 1.107422,-0.884765 l 0.03516,-0.06836 0.02344,-0.07617 c 0.222734,-0.7574 0.06468,-1.593707 -0.417968,-2.316407 -0.480209,-0.7189 -1.235835,-1.408253 -2.314453,-2.251953 h -0.0039 c -1.188048,-0.9704 -2.483416,-1.21474 -3.535156,-1.11914 -1.037469,0.09461 -1.836742,0.474472 -2.296875,0.763671 -0.492948,0.2875 -0.832806,0.328235 -1.029297,0.302735 -0.196491,-0.026 -0.279611,-0.10096 -0.339844,-0.19336 -0.06023,-0.092 -0.07587,-0.210175 -0.05273,-0.296875 0.02313,-0.087 0.05458,-0.152703 0.220703,-0.220703 l 0.03516,-0.01758 4.388671,-2.353516 c 0.179797,-0.088 0.255644,-0.09023 0.488282,0.0098 0.234334,0.096 0.581949,0.34361 0.992187,0.72461 0.820477,0.761999 1.888719,2.020618 3.322266,3.386718 l 1.033203,-1.085937 c -1.108109,-1.055927 -1.967527,-2.009063 -2.763672,-2.816407 0.129341,-0.07346 0.210274,-0.0938 0.304687,-0.07812 0.121065,0.02 0.351384,0.122359 0.675782,0.380859 0.648793,0.517 1.603197,1.576641 3.02539,2.931641 l 1.035157,-1.087891 c -1.062336,-1.012294 -1.841018,-1.850628 -2.529297,-2.492188 0.112469,-0.05994 0.179065,-0.07851 0.197265,-0.07617 0.02568,0 0.153573,0.04619 0.404297,0.27539 0.501448,0.4577 1.330902,1.496281 2.765625,2.863281 l 1.033203,-1.083984 c -0.685498,-0.653178 -1.209761,-1.216824 -1.65039,-1.697266 l 0.226562,-0.205078 c 0.151998,-0.1365 0.135204,-0.111775 0.173828,-0.109375 0.03862,0 0.253707,0.0581 0.638672,0.345703 0.76993,0.5738 2.113683,1.938007 4.367188,4.378907 l 1.103515,-1.017578 c -2.263595,-2.4517 -3.583547,-3.826154 -4.574218,-4.564454 -0.495336,-0.3692 -0.934189,-0.609325 -1.44336,-0.640625 -0.509171,-0.031 -0.968496,0.221788 -1.269531,0.492188 l -0.261719,0.236328 c -0.03033,-0.02872 -0.06947,-0.07601 -0.09961,-0.103516 -0.346331,-0.3161 -0.723636,-0.593603 -1.222656,-0.658203 -0.124755,-0.01625 -0.247558,-0.0156 -0.369141,-0.002 z"
       transform="translate(0,1002.3622)"
       id="path7492"
       inkscape:connector-curvature="0" />
  </g>
</svg>
