<?xml version="1.0" encoding="UTF-8" standalone="no"?>
<svg
   xmlns:dc="http://purl.org/dc/elements/1.1/"
   xmlns:cc="http://creativecommons.org/ns#"
   xmlns:rdf="http://www.w3.org/1999/02/22-rdf-syntax-ns#"
   xmlns:svg="http://www.w3.org/2000/svg"
   xmlns="http://www.w3.org/2000/svg"
   xmlns:sodipodi="http://sodipodi.sourceforge.net/DTD/sodipodi-0.dtd"
   xmlns:inkscape="http://www.inkscape.org/namespaces/inkscape"
   width="50"
   height="50"
   viewBox="0 0 50 50.000001"
   id="svg2"
   version="1.1"
   inkscape:version="1.0.1 (3bc2e813f5, 2020-09-07)"
   sodipodi:docname="DIN0473_Temperatur_Tiefstwertbegrenzung.svg"
   inkscape:export-filename="P:\Files\Axialis\Library\Baldwin\Inkscape-png-export\DIN0473_Temperatur_Tiefstwertbegrenzung.png"
   inkscape:export-xdpi="92.160004"
   inkscape:export-ydpi="92.160004">
  <defs
     id="defs4" />
  <sodipodi:namedview
     id="base"
     pagecolor="#ffffff"
     bordercolor="#666666"
     borderopacity="1.0"
     inkscape:pageopacity="0.0"
     inkscape:pageshadow="2"
     inkscape:zoom="38.883871"
     inkscape:cx="17.74939"
     inkscape:cy="12.653989"
     inkscape:document-units="px"
     inkscape:current-layer="layer1"
     showgrid="true"
     units="px"
     showborder="true"
     borderlayer="false"
     inkscape:showpageshadow="true"
     inkscape:window-width="2560"
     inkscape:window-height="1377"
     inkscape:window-x="-8"
     inkscape:window-y="-8"
     inkscape:window-maximized="1"
     showguides="false"
     inkscape:document-rotation="0">
    <inkscape:grid
       type="xygrid"
       id="grid10233" />
  </sodipodi:namedview>
  <metadata
     id="metadata7">
    <rdf:RDF>
      <cc:Work
         rdf:about="">
        <dc:format>image/svg+xml</dc:format>
        <dc:type
           rdf:resource="http://purl.org/dc/dcmitype/StillImage" />
        <dc:title></dc:title>
      </cc:Work>
    </rdf:RDF>
  </metadata>
  <g
     inkscape:label="Ebene 1"
     inkscape:groupmode="layer"
     id="layer1"
     transform="translate(0,-1002.3622)">
    <path
       id="path1562"
       style="opacity:1;fill:#000000;fill-opacity:1;stroke:none;stroke-width:1.5;stroke-linecap:butt;stroke-linejoin:miter;stroke-miterlimit:4;stroke-dasharray:none;stroke-dashoffset:0;stroke-opacity:1;paint-order:normal"
       d="m 25,5.9101562 c -1.609085,0 -3.025774,1.2085 -3.277026,2.75 H 21.75 v 0.5 14.7968748 L 17.632812,29.25 H 12 v 1.5 h 6.367188 L 21.75,26.400391 v 8.410156 c -1.590669,1.2873 -2.36254,3.367025 -1.820312,5.390625 0.614067,2.2917 2.697761,3.890625 5.070312,3.890625 2.372551,0 4.456244,-1.598925 5.070312,-3.890625 0.542229,-2.0236 -0.229643,-4.103325 -1.820312,-5.390625 V 18.042969 L 32.591797,12.460938 31.408203,11.541016 28.25,15.601562 v -6.4414058 -0.5 h 0.0013 C 28.000055,7.1186562 26.609085,5.9101563 25,5.9101562 Z m 0,1.5 c 0.975382,0 1.75,0.7746 1.75,1.75 v 8.3691408 l -3.5,4.5 V 9.1601562 c 0,-0.9754 0.774618,-1.75 1.75,-1.75 z"
       transform="translate(0,1002.3622)"
       sodipodi:nodetypes="sccccccccccsssccccccccsssccss" />
  </g>
</svg>
