<?xml version="1.0" encoding="UTF-8" standalone="no"?>
<!-- Created with Inkscape (http://www.inkscape.org/) -->

<svg
   xmlns:dc="http://purl.org/dc/elements/1.1/"
   xmlns:cc="http://creativecommons.org/ns#"
   xmlns:rdf="http://www.w3.org/1999/02/22-rdf-syntax-ns#"
   xmlns:svg="http://www.w3.org/2000/svg"
   xmlns="http://www.w3.org/2000/svg"
   xmlns:sodipodi="http://sodipodi.sourceforge.net/DTD/sodipodi-0.dtd"
   xmlns:inkscape="http://www.inkscape.org/namespaces/inkscape"
   width="50"
   height="50"
   viewBox="0 0 50 50.000001"
   id="svg2"
   version="1.1"
   inkscape:version="0.92.1 r15371"
   sodipodi:docname="DIN0174_Getriebe_allgemein.svg"
   inkscape:export-filename="P:\Files\Axialis\Library\Baldwin\Inkscape-png-export\DIN0174_Getriebe_allgemein.png"
   inkscape:export-xdpi="92.160004"
   inkscape:export-ydpi="92.160004">
  <defs
     id="defs4" />
  <sodipodi:namedview
     id="base"
     pagecolor="#ffffff"
     bordercolor="#666666"
     borderopacity="1.0"
     inkscape:pageopacity="0.0"
     inkscape:pageshadow="2"
     inkscape:zoom="9.7209677"
     inkscape:cx="17.982605"
     inkscape:cy="22.706194"
     inkscape:document-units="px"
     inkscape:current-layer="g4515"
     showgrid="true"
     units="px"
     showborder="true"
     borderlayer="false"
     inkscape:showpageshadow="true"
     inkscape:window-width="1920"
     inkscape:window-height="1028"
     inkscape:window-x="-8"
     inkscape:window-y="-8"
     inkscape:window-maximized="1">
    <inkscape:grid
       type="xygrid"
       id="grid13545" />
  </sodipodi:namedview>
  <metadata
     id="metadata7">
    <rdf:RDF>
      <cc:Work
         rdf:about="">
        <dc:format>image/svg+xml</dc:format>
        <dc:type
           rdf:resource="http://purl.org/dc/dcmitype/StillImage" />
        <dc:title></dc:title>
      </cc:Work>
    </rdf:RDF>
  </metadata>
  <g
     inkscape:label="Ebene 1"
     inkscape:groupmode="layer"
     id="layer1"
     transform="translate(0,-1002.3622)">
    <g
       id="g4515"
       transform="translate(-8.3499998,7.5000174)">
      <path
         style="color:#000000;font-style:normal;font-variant:normal;font-weight:normal;font-stretch:normal;font-size:medium;line-height:normal;font-family:sans-serif;font-variant-ligatures:normal;font-variant-position:normal;font-variant-caps:normal;font-variant-numeric:normal;font-variant-alternates:normal;font-feature-settings:normal;text-indent:0;text-align:start;text-decoration:none;text-decoration-line:none;text-decoration-style:solid;text-decoration-color:#000000;letter-spacing:normal;word-spacing:normal;text-transform:none;writing-mode:lr-tb;direction:ltr;text-orientation:mixed;dominant-baseline:auto;baseline-shift:baseline;text-anchor:start;white-space:normal;shape-padding:0;clip-rule:nonzero;display:inline;overflow:visible;visibility:visible;opacity:1;isolation:auto;mix-blend-mode:normal;color-interpolation:sRGB;color-interpolation-filters:linearRGB;solid-color:#000000;solid-opacity:1;vector-effect:none;fill:#000000;fill-opacity:1;fill-rule:nonzero;stroke:none;stroke-width:1.5;stroke-linecap:square;stroke-linejoin:miter;stroke-miterlimit:4;stroke-dasharray:none;stroke-dashoffset:0;stroke-opacity:1;color-rendering:auto;image-rendering:auto;shape-rendering:auto;text-rendering:auto;enable-background:accumulate"
         d="m 25,1024.6113 c -1.5099,0 -2.75,1.2401 -2.75,2.75 0,1.5099 1.2401,2.75 2.75,2.75 1.5099,0 2.75,-1.2401 2.75,-2.75 0,-1.5099 -1.2401,-2.75 -2.75,-2.75 z m 0,1.5 c 0.699239,0 1.25,0.5508 1.25,1.25 0,0.6993 -0.550761,1.25 -1.25,1.25 -0.699239,0 -1.25,-0.5507 -1.25,-1.25 0,-0.6992 0.550761,-1.25 1.25,-1.25 z"
         id="path5057"
         inkscape:connector-curvature="0" />
      <path
         style="color:#000000;font-style:normal;font-variant:normal;font-weight:normal;font-stretch:normal;font-size:medium;line-height:normal;font-family:sans-serif;font-variant-ligatures:normal;font-variant-position:normal;font-variant-caps:normal;font-variant-numeric:normal;font-variant-alternates:normal;font-feature-settings:normal;text-indent:0;text-align:start;text-decoration:none;text-decoration-line:none;text-decoration-style:solid;text-decoration-color:#000000;letter-spacing:normal;word-spacing:normal;text-transform:none;writing-mode:lr-tb;direction:ltr;text-orientation:mixed;dominant-baseline:auto;baseline-shift:baseline;text-anchor:start;white-space:normal;shape-padding:0;clip-rule:nonzero;display:inline;overflow:visible;visibility:visible;opacity:1;isolation:auto;mix-blend-mode:normal;color-interpolation:sRGB;color-interpolation-filters:linearRGB;solid-color:#000000;solid-opacity:1;vector-effect:none;fill:#000000;fill-opacity:1;fill-rule:nonzero;stroke:none;stroke-width:1.5;stroke-linecap:butt;stroke-linejoin:miter;stroke-miterlimit:4;stroke-dasharray:3, 1.5;stroke-dashoffset:0;stroke-opacity:1;color-rendering:auto;image-rendering:auto;shape-rendering:auto;text-rendering:auto;enable-background:accumulate"
         d="m 25.650391,1020.6504 h 0.04102 l 0.677735,0.1055 0.628906,0.1602 0.615234,0.2246 0.605469,0.291 0.650391,-1.3516 -0.626953,-0.3008 -0.0332,-0.018 -0.0332,-0.012 -0.689453,-0.252 -0.03516,-0.014 -0.03516,-0.01 -0.71875,-0.1855 -0.03711,-0.01 -0.03711,-0.01 -0.744141,-0.1132 -0.03711,-0.01 h -0.03711 -0.07813 z m -2.273438,-1.3731 -0.03711,0.01 -0.03711,0.01 -0.71875,0.1855 -0.03516,0.01 -0.03516,0.014 -0.689453,0.252 -0.0332,0.012 -0.0332,0.018 -0.65625,0.3145 -0.0332,0.016 -0.03125,0.02 -0.07422,0.045 0.779297,1.2832 0.04102,-0.025 0.603516,-0.291 0.615234,-0.2246 0.628906,-0.1602 0.673829,-0.1035 -0.226563,-1.4824 z m 5.904297,2.8731 0.486328,0.4434 0.445313,0.4902 0.378906,0.5058 0.339844,0.5606 0.04492,0.092 1.351563,-0.6504 -0.0625,-0.127 -0.01563,-0.033 -0.01953,-0.031 -0.375,-0.6172 -0.01758,-0.031 -0.02148,-0.029 -0.43164,-0.5762 -0.02148,-0.029 -0.02539,-0.027 -0.482422,-0.5312 -0.02539,-0.027 -0.02539,-0.023 -0.515626,-0.4687 z m -10.085938,-0.6426 -0.02539,0.023 -0.02539,0.027 -0.482422,0.5312 -0.02539,0.027 -0.02148,0.029 -0.43164,0.5762 -0.02148,0.029 -0.01758,0.031 -0.375,0.6172 -0.01953,0.031 -0.01563,0.033 -0.115234,0.2364 1.351562,0.6504 0.09961,-0.2032 0.337891,-0.5586 0.378906,-0.5058 0.445313,-0.4902 0.398437,-0.3633 -1.009765,-1.1094 z m 12.28125,3.9883 0.13086,0.5019 0.101562,0.6719 0.03516,0.6914 -0.03516,0.6934 -0.101562,0.6719 -0.166016,0.6386 -0.240234,0.6563 0.654297,0.2402 0.724609,0.3477 h 0.002 l 0.01563,-0.033 0.01172,-0.035 0.253906,-0.6875 0.01172,-0.035 0.0098,-0.037 0.183593,-0.7187 0.0098,-0.035 0.0059,-0.037 0.113282,-0.7441 0.0059,-0.037 0.002,-0.039 0.03906,-0.7656 -0.748047,-0.037 0.748047,-0.039 -0.03906,-0.7656 -0.002,-0.039 -0.0059,-0.037 -0.113282,-0.7441 -0.0059,-0.037 -0.0098,-0.037 -0.138671,-0.5411 z m -14.544921,0.168 -0.0098,0.037 -0.0059,0.037 -0.113282,0.7441 -0.0059,0.037 -0.002,0.039 -0.03906,0.7656 -0.002,0.037 0.002,0.039 0.03906,0.7656 0.002,0.039 0.0059,0.037 0.04102,0.2695 1.482422,-0.2265 -0.03516,-0.2305 -0.03516,-0.6934 0.03516,-0.6914 0.101562,-0.6699 0.101563,-0.3867 -1.453125,-0.375 z m 0.300781,4.4453 0.158203,0.4277 0.01172,0.035 0.01563,0.033 0.316406,0.6543 0.01563,0.033 0.01953,0.031 0.375,0.6172 0.01758,0.031 0.02148,0.029 0.43164,0.5761 0.02148,0.029 0.02539,0.027 0.251953,0.2754 1.109376,-1.0079 -0.228516,-0.2519 -0.386719,-0.5156 -0.337891,-0.5567 -0.283203,-0.5879 -0.144531,-0.3964 z m 12.972656,1.541 -0.4375,0.4805 -0.478516,0.4355 -0.509765,0.3809 -0.128906,0.08 0.779297,1.2813 0.15039,-0.09 0.03125,-0.02 0.0293,-0.022 0.576172,-0.4316 0.0293,-0.022 0.02539,-0.023 0.533204,-0.4844 0.02539,-0.023 0.02539,-0.027 0.482422,-0.5312 0.02539,-0.027 0.02148,-0.029 0.398437,-0.5332 -1.201172,-0.8984 z m -10.072266,2.3574 0.226563,0.1699 0.0293,0.022 0.03125,0.02 0.617187,0.375 0.03125,0.019 0.0332,0.016 0.65625,0.3145 0.0332,0.016 0.0332,0.014 0.689453,0.2519 0.03516,0.014 0.03516,0.01 0.515625,0.1328 0.373047,-1.4531 -0.488281,-0.125 -0.597656,-0.2188 -0.609375,-0.2929 -0.556641,-0.3399 -0.189453,-0.1426 z m 6.88086,-0.207 -0.646484,0.166 -0.69336,0.1055 -0.671875,0.033 -0.193359,-0.01 -0.07617,1.4981 0.230469,0.012 h 0.03711 0.03711 l 0.767579,-0.037 h 0.03711 l 0.03711,-0.01 0.744141,-0.1132 0.03711,-0.01 0.03711,-0.01 0.71875,-0.1855 0.03516,-0.01 0.03516,-0.014 0.478516,-0.1738 -0.515625,-1.4102 z"
         id="path10084-9-3"
         inkscape:connector-curvature="0" />
    </g>
    <g
       id="g4519"
       transform="translate(35.658528,8.0694144)">
      <path
         style="color:#000000;font-style:normal;font-variant:normal;font-weight:normal;font-stretch:normal;font-size:medium;line-height:normal;font-family:sans-serif;font-variant-ligatures:normal;font-variant-position:normal;font-variant-caps:normal;font-variant-numeric:normal;font-variant-alternates:normal;font-feature-settings:normal;text-indent:0;text-align:start;text-decoration:none;text-decoration-line:none;text-decoration-style:solid;text-decoration-color:#000000;letter-spacing:normal;word-spacing:normal;text-transform:none;writing-mode:lr-tb;direction:ltr;text-orientation:mixed;dominant-baseline:auto;baseline-shift:baseline;text-anchor:start;white-space:normal;shape-padding:0;clip-rule:nonzero;display:inline;overflow:visible;visibility:visible;opacity:1;isolation:auto;mix-blend-mode:normal;color-interpolation:sRGB;color-interpolation-filters:linearRGB;solid-color:#000000;solid-opacity:1;vector-effect:none;fill:#000000;fill-opacity:1;fill-rule:nonzero;stroke:none;stroke-width:1.5;stroke-linecap:square;stroke-linejoin:miter;stroke-miterlimit:4;stroke-dasharray:none;stroke-dashoffset:0;stroke-opacity:1;color-rendering:auto;image-rendering:auto;shape-rendering:auto;text-rendering:auto;enable-background:accumulate"
         d="m -4.8085938,1011.543 c -1.5098995,0 -2.75,1.2401 -2.75,2.75 0,1.5099 1.2401005,2.75 2.75,2.75 1.5098996,0 2.75,-1.2401 2.75,-2.75 0,-1.5099 -1.2401004,-2.75 -2.75,-2.75 z m 0,1.5 c 0.6992395,0 1.25,0.5507 1.25,1.25 0,0.6992 -0.5507605,1.25 -1.25,1.25 -0.6992394,0 -1.25,-0.5508 -1.25,-1.25 0,-0.6993 0.5507606,-1.25 1.25,-1.25 z"
         id="path5057-8"
         inkscape:connector-curvature="0" />
      <path
         style="color:#000000;font-style:normal;font-variant:normal;font-weight:normal;font-stretch:normal;font-size:medium;line-height:normal;font-family:sans-serif;font-variant-ligatures:normal;font-variant-position:normal;font-variant-caps:normal;font-variant-numeric:normal;font-variant-alternates:normal;font-feature-settings:normal;text-indent:0;text-align:start;text-decoration:none;text-decoration-line:none;text-decoration-style:solid;text-decoration-color:#000000;letter-spacing:normal;word-spacing:normal;text-transform:none;writing-mode:lr-tb;direction:ltr;text-orientation:mixed;dominant-baseline:auto;baseline-shift:baseline;text-anchor:start;white-space:normal;shape-padding:0;clip-rule:nonzero;display:inline;overflow:visible;visibility:visible;opacity:1;isolation:auto;mix-blend-mode:normal;color-interpolation:sRGB;color-interpolation-filters:linearRGB;solid-color:#000000;solid-opacity:1;vector-effect:none;fill:#000000;fill-opacity:1;fill-rule:nonzero;stroke:none;stroke-width:1.5;stroke-linecap:butt;stroke-linejoin:miter;stroke-miterlimit:4;stroke-dasharray:3, 1.5;stroke-dashoffset:0;stroke-opacity:1;color-rendering:auto;image-rendering:auto;shape-rendering:auto;text-rendering:auto;enable-background:accumulate"
         d="m -4.8457031,1003.5488 -1.0234375,0.051 h -0.037109 l -0.037109,0.01 -0.9921875,0.1524 -0.037109,0.01 -0.037109,0.01 -0.058594,0.014 0.3398438,1.3222 0.019531,0.1309 h 0.013672 v 0 l 0.019531,-0.01 0.9199218,-0.1406 0.9472656,-0.047 0.8730469,0.045 0.076172,-1.4981 -0.9121094,-0.047 h -0.037109 z m 2.2382812,1.7735 0.5449219,0.1406 0.8378906,0.3066 0.82421878,0.3946 0.34960937,0.2129 0.77929687,-1.2813 -0.3828125,-0.2324 -0.03125,-0.019 -0.0332031,-0.016 -0.87304688,-0.4199 -0.0332031,-0.018 -0.0351563,-0.012 -0.91796874,-0.3359 -0.035156,-0.014 -0.037109,-0.01 -0.5839844,-0.1504 z m -6.3496093,-0.9434 -0.035156,0.012 -0.033203,0.018 -0.8730469,0.4199 -0.033203,0.016 -0.03125,0.019 -0.8242189,0.5 -0.0293,0.019 -0.0293,0.022 -0.529297,0.3945 0.898438,1.2012 0.4980459,-0.3711 0.7617187,-0.4648 0.8222657,-0.3946 0.3339843,-0.1211 -0.515625,-1.4082 z m 10.0195312,2.7715 0.6542969,0.5957 0.5996093,0.6562 0.5429688,0.7247 0.054687,0.09 1.28125,-0.7793 -0.074219,-0.123 -0.019531,-0.029 -0.021484,-0.029 -0.5761719,-0.7696 -0.021484,-0.029 -0.023437,-0.027 -0.6445313,-0.709 -0.025391,-0.027 -0.025391,-0.024 -0.6933594,-0.6289 z m -14.138672,0.2793 -0.02344,0.027 -0.02149,0.029 -0.576172,0.7696 -0.02148,0.029 -0.01953,0.029 -0.5,0.8242 -0.01953,0.031 -0.01563,0.033 -0.154296,0.3203 1.351562,0.6504 0.138672,-0.289 0.462891,-0.7598 0.541015,-0.7227 0.451172,-0.4941 -1.109375,-1.0098 z m 16.6757814,3.0371 0.1152344,0.2402 0.3066406,0.8399 0.2265625,0.8769 0.1054687,0.7032 1.484375,-0.2266 -0.1132812,-0.7344 -0.00586,-0.037 -0.00977,-0.037 -0.2460938,-0.957 -0.00781,-0.037 -0.013672,-0.035 -0.3359374,-0.918 -0.013672,-0.035 -0.015625,-0.033 -0.125,-0.2598 z m -18.6582034,0.5957 -0.01172,0.035 -0.0098,0.037 -0.246094,0.957 -0.0098,0.037 -0.0059,0.037 -0.152344,0.9922 -0.0059,0.037 v 0.037 l -0.04687,0.9141 1.498047,0.076 0.04492,-0.877 0.138672,-0.9219 0.232422,-0.8965 0.01367,-0.035 -1.408203,-0.5156 z m 19.4472659,4.1582 -0.1425781,0.9453 -0.2304688,0.8965 1.4511719,0.373 0.2421875,-0.9414 0.00977,-0.037 0.00586,-0.037 0.1523437,-0.9922 0.00586,-0.037 0.00195,-0.037 0.050781,-1.0234 -1.4980469,-0.074 z m -19.8261719,0.5723 0.0957,0.6269 0.0059,0.037 0.0098,0.037 0.246094,0.9571 0.0098,0.037 0.01172,0.035 0.335938,0.918 0.01367,0.035 0.01563,0.031 0.171875,0.3594 1.351562,-0.6504 -0.162109,-0.3379 -0.300781,-0.8223 -0.230469,-0.8925 -0.0918,-0.5977 z m 18.7578125,2.9082 -0.4628906,0.7597 -0.5410157,0.7207 -0.3789062,0.4161 1.1113281,1.0097 0.4101563,-0.4531 0.023437,-0.025 0.021484,-0.029 0.5761719,-0.7695 0.021484,-0.029 0.019531,-0.031 0.5,-0.8222 0.019531,-0.031 0.015625,-0.033 0.2011719,-0.418 -1.3515625,-0.6503 z m -16.1171875,0.955 -0.958984,0.584 0.01758,0.029 0.01953,0.031 0.02148,0.029 0.576172,0.7695 0.02149,0.029 0.02344,0.025 0.644531,0.7109 0.02539,0.025 0.02539,0.025 0.710937,0.6445 0.02539,0.023 0.0293,0.022 0.06836,0.051 0.898437,-1.2011 -0.05078,-0.037 -0.644531,-0.5899 -0.589844,-0.6445 -0.541015,-0.7227 -0.02149,-0.029 z m 13.15625,2.3028 -0.75976562,0.4629 -0.82226558,0.3945 -0.2324219,0.084 0.51562498,1.4082 0.27929687,-0.1016 0.0351563,-0.014 0.0332031,-0.016 0.87304688,-0.4199 0.0332031,-0.016 0.03125,-0.019 0.82421877,-0.5 0.029297,-0.02 0.029297,-0.021 0.6152344,-0.4609 -0.89843749,-1.2012 z m -10.611328,1.5859 0.2890624,0.1778 0.03125,0.019 0.033203,0.016 0.8730469,0.4199 0.033203,0.016 0.035156,0.014 0.9179687,0.336 0.035156,0.012 0.037109,0.01 0.6894531,0.1777 0.3730469,-1.4531 -0.6679687,-0.1719 -0.8203125,-0.3008 -0.8242188,-0.3945 -0.2578125,-0.1582 z m 7.298828,-0.1933 -0.9082031,0.1367 -0.9472657,0.049 -0.765625,-0.039 -0.074219,1.4981 0.8027344,0.041 h 0.037109 0.037109 l 1.0234375,-0.053 h 0.037109 0.037109 l 0.9921875,-0.1523 0.037109,-0.01 0.037109,-0.01 0.1640625,-0.041 -0.375,-1.4531 z"
         id="path10084-9-8"
         inkscape:connector-curvature="0" />
    </g>
  </g>
</svg>
