<?xml version="1.0" encoding="UTF-8" standalone="no"?>
<!-- Created with Inkscape (http://www.inkscape.org/) -->

<svg
   xmlns:dc="http://purl.org/dc/elements/1.1/"
   xmlns:cc="http://creativecommons.org/ns#"
   xmlns:rdf="http://www.w3.org/1999/02/22-rdf-syntax-ns#"
   xmlns:svg="http://www.w3.org/2000/svg"
   xmlns="http://www.w3.org/2000/svg"
   xmlns:sodipodi="http://sodipodi.sourceforge.net/DTD/sodipodi-0.dtd"
   xmlns:inkscape="http://www.inkscape.org/namespaces/inkscape"
   width="50"
   height="50"
   viewBox="0 0 50 50.000001"
   id="svg2"
   version="1.1"
   inkscape:version="0.92.4 (5da689c313, 2019-01-14)"
   sodipodi:docname="DIN0448_Umdrehung_je_Minute.svg"
   inkscape:export-filename="P:\Files\Axialis\Library\Baldwin\Inkscape-png-export\DIN0448_Umdrehung_je_Minute.png"
   inkscape:export-xdpi="92.160004"
   inkscape:export-ydpi="92.160004">
  <defs
     id="defs4">
    <marker
       inkscape:stockid="Arrow1Lend"
       orient="auto"
       refY="0"
       refX="0"
       id="Arrow1Lend"
       style="overflow:visible"
       inkscape:isstock="true">
      <path
         id="path4794"
         d="M 0,0 5,-5 -12.5,0 5,5 Z"
         style="fill:#cd0000;fill-opacity:1;fill-rule:evenodd;stroke:#000000;stroke-width:1.00000003pt;stroke-opacity:1"
         transform="matrix(-0.8,0,0,-0.8,-10,0)"
         inkscape:connector-curvature="0" />
    </marker>
    <marker
       inkscape:stockid="Arrow1Lstart"
       orient="auto"
       refY="0"
       refX="0"
       id="Arrow1Lstart"
       style="overflow:visible"
       inkscape:isstock="true">
      <path
         id="path4791"
         d="M 0,0 5,-5 -12.5,0 5,5 Z"
         style="fill:#cd0000;fill-opacity:1;fill-rule:evenodd;stroke:#000000;stroke-width:1.00000003pt;stroke-opacity:1"
         transform="matrix(0.8,0,0,0.8,10,0)"
         inkscape:connector-curvature="0" />
    </marker>
    <marker
       inkscape:stockid="DiamondLend"
       orient="auto"
       refY="0"
       refX="0"
       id="DiamondLend"
       style="overflow:visible"
       inkscape:isstock="true">
      <path
         id="path4888"
         d="M 0,-7.0710768 -7.0710894,0 0,7.0710589 7.0710462,0 Z"
         style="fill:#000000;fill-opacity:1;fill-rule:evenodd;stroke:#000000;stroke-width:1.00000003pt;stroke-opacity:1"
         transform="matrix(0.8,0,0,0.8,-5.6,0)"
         inkscape:connector-curvature="0" />
    </marker>
    <marker
       inkscape:stockid="DiamondLstart"
       orient="auto"
       refY="0"
       refX="0"
       id="DiamondLstart"
       style="overflow:visible"
       inkscape:isstock="true">
      <path
         id="path4879"
         d="M 0,-7.0710768 -7.0710894,0 0,7.0710589 7.0710462,0 Z"
         style="fill:#000000;fill-opacity:1;fill-rule:evenodd;stroke:#000000;stroke-width:1.00000003pt;stroke-opacity:1"
         transform="matrix(0.8,0,0,0.8,5.6,0)"
         inkscape:connector-curvature="0" />
    </marker>
  </defs>
  <sodipodi:namedview
     id="base"
     pagecolor="#ffffff"
     bordercolor="#666666"
     borderopacity="1.0"
     inkscape:pageopacity="0.0"
     inkscape:pageshadow="2"
     inkscape:zoom="9.7209677"
     inkscape:cx="-16.900656"
     inkscape:cy="23.323417"
     inkscape:document-units="px"
     inkscape:current-layer="layer1"
     showgrid="true"
     units="px"
     showborder="true"
     borderlayer="false"
     inkscape:showpageshadow="true"
     inkscape:window-width="1550"
     inkscape:window-height="1011"
     inkscape:window-x="355"
     inkscape:window-y="0"
     inkscape:window-maximized="0"
     inkscape:snap-grids="false"
     inkscape:snap-to-guides="false">
    <inkscape:grid
       type="xygrid"
       id="grid19132" />
  </sodipodi:namedview>
  <metadata
     id="metadata7">
    <rdf:RDF>
      <cc:Work
         rdf:about="">
        <dc:format>image/svg+xml</dc:format>
        <dc:type
           rdf:resource="http://purl.org/dc/dcmitype/StillImage" />
        <dc:title />
      </cc:Work>
    </rdf:RDF>
  </metadata>
  <g
     inkscape:label="Ebene 1"
     inkscape:groupmode="layer"
     id="layer1"
     transform="translate(0,-1002.3622)">
    <path
       style="color:#000000;font-style:normal;font-variant:normal;font-weight:normal;font-stretch:normal;font-size:medium;line-height:normal;font-family:sans-serif;font-variant-ligatures:normal;font-variant-position:normal;font-variant-caps:normal;font-variant-numeric:normal;font-variant-alternates:normal;font-feature-settings:normal;text-indent:0;text-align:start;text-decoration:none;text-decoration-line:none;text-decoration-style:solid;text-decoration-color:#000000;letter-spacing:normal;word-spacing:normal;text-transform:none;writing-mode:lr-tb;direction:ltr;text-orientation:mixed;dominant-baseline:auto;baseline-shift:baseline;text-anchor:start;white-space:normal;shape-padding:0;clip-rule:nonzero;display:inline;overflow:visible;visibility:visible;opacity:1;isolation:auto;mix-blend-mode:normal;color-interpolation:sRGB;color-interpolation-filters:linearRGB;solid-color:#000000;solid-opacity:1;vector-effect:none;fill:#000000;fill-opacity:1;fill-rule:nonzero;stroke:none;stroke-width:1.5;stroke-linecap:square;stroke-linejoin:miter;stroke-miterlimit:6.0999999;stroke-dasharray:none;stroke-dashoffset:0;stroke-opacity:1;color-rendering:auto;image-rendering:auto;shape-rendering:auto;text-rendering:auto;enable-background:accumulate"
       d="M 25.097656,9.2558594 C 16.637363,9.2048594 9.7288061,15.8739 9.3261719,24.25 H 9.2578125 V 24.875 25 l -0.00586,0.625 h 0.068359 C 9.6167686,33.031706 15.00933,39.135466 22.099609,40.466797 l 5.833985,3.544922 0.779297,-1.283203 -3.296875,-2.003907 c 8.467905,-0.221591 15.298036,-7.136032 15.332031,-15.660156 0.0346,-8.6746 -6.975911,-15.7566936 -15.650391,-15.8085936 z m -0.0098,1.4999996 c 7.864892,0.047 14.191522,6.437835 14.160156,14.302735 -0.03122,7.827382 -6.348985,14.136886 -14.162109,14.18164 L 29.0625,37.113281 28.355469,35.791016 22.371094,38.992188 C 15.755864,37.757866 10.757812,31.974297 10.757812,25 v -0.113281 c 0.06273,-7.8647 6.465186,-14.17796 14.330079,-14.13086 z"
       transform="translate(0,1002.3622)"
       id="path11334"
       inkscape:connector-curvature="0" />
    <path
       style="color:#000000;font-style:normal;font-variant:normal;font-weight:normal;font-stretch:normal;font-size:medium;line-height:normal;font-family:sans-serif;font-variant-ligatures:normal;font-variant-position:normal;font-variant-caps:normal;font-variant-numeric:normal;font-variant-alternates:normal;font-feature-settings:normal;text-indent:0;text-align:start;text-decoration:none;text-decoration-line:none;text-decoration-style:solid;text-decoration-color:#000000;letter-spacing:normal;word-spacing:normal;text-transform:none;writing-mode:lr-tb;direction:ltr;text-orientation:mixed;dominant-baseline:auto;baseline-shift:baseline;text-anchor:start;white-space:normal;shape-padding:0;clip-rule:nonzero;display:inline;overflow:visible;visibility:visible;opacity:1;isolation:auto;mix-blend-mode:normal;color-interpolation:sRGB;color-interpolation-filters:linearRGB;solid-color:#000000;solid-opacity:1;vector-effect:none;fill:#000000;fill-opacity:1;fill-rule:evenodd;stroke:none;stroke-width:1.5;stroke-linecap:butt;stroke-linejoin:miter;stroke-miterlimit:4;stroke-dasharray:none;stroke-dashoffset:0;stroke-opacity:1;color-rendering:auto;image-rendering:auto;shape-rendering:auto;text-rendering:auto;enable-background:accumulate"
       d="m 12.859375,1026.6152 v 1.5 h 24.277344 v -1.5 z"
       id="path12755"
       inkscape:connector-curvature="0" />
    <g
       aria-label="x"
       style="font-style:normal;font-variant:normal;font-weight:normal;font-stretch:normal;font-size:10.66666698px;line-height:125%;font-family:Arial;-inkscape-font-specification:'Arial, Normal';font-variant-ligatures:normal;font-variant-caps:normal;font-variant-numeric:normal;font-feature-settings:normal;text-align:start;letter-spacing:0px;word-spacing:0px;writing-mode:lr-tb;text-anchor:start;fill:#000000;fill-opacity:1;stroke:none;stroke-width:1px;stroke-linecap:butt;stroke-linejoin:miter;stroke-opacity:1"
       id="text12759">
      <path
         d="m 22.411459,1024.9689 2.020833,-2.875 -1.869791,-2.6563 h 1.171875 l 0.848958,1.2969 q 0.239583,0.3698 0.385417,0.6198 0.229166,-0.3438 0.421875,-0.6094 l 0.932291,-1.3073 h 1.119792 l -1.911458,2.6042 2.057291,2.9271 h -1.151041 l -1.135417,-1.7188 -0.302083,-0.4635 -1.453125,2.1823 z"
         style="font-style:normal;font-variant:normal;font-weight:normal;font-stretch:normal;font-size:10.66666698px;font-family:Arial;-inkscape-font-specification:'Arial, Normal';font-variant-ligatures:normal;font-variant-caps:normal;font-variant-numeric:normal;font-feature-settings:normal;text-align:start;writing-mode:lr-tb;text-anchor:start;stroke-width:1px"
         id="path12785"
         inkscape:connector-curvature="0" />
    </g>
    <g
       aria-label="min"
       style="font-style:normal;font-variant:normal;font-weight:normal;font-stretch:normal;font-size:10.66666698px;line-height:125%;font-family:Arial;-inkscape-font-specification:'Arial, Normal';font-variant-ligatures:normal;font-variant-caps:normal;font-variant-numeric:normal;font-feature-settings:normal;text-align:start;letter-spacing:0px;word-spacing:0px;writing-mode:lr-tb;text-anchor:start;fill:#000000;fill-opacity:1;stroke:none;stroke-width:0.99999994px;stroke-linecap:butt;stroke-linejoin:miter;stroke-opacity:1"
       id="text12759-9">
      <path
         d="m 17.106771,1036.5522 v -5.5312 h 0.838542 v 0.776 q 0.260417,-0.4062 0.692709,-0.651 0.432291,-0.25 0.984375,-0.25 0.614583,0 1.005208,0.2552 0.395833,0.2552 0.557292,0.7135 0.65625,-0.9687 1.708333,-0.9687 0.822917,0 1.265625,0.4583 0.442708,0.4532 0.442708,1.4011 v 3.7968 h -0.932291 v -3.4843 q 0,-0.5625 -0.09375,-0.8073 -0.08854,-0.25 -0.328125,-0.4011 -0.239584,-0.151 -0.5625,-0.151 -0.583334,0 -0.96875,0.3906 -0.385417,0.3854 -0.385417,1.2396 v 3.2135 h -0.9375 v -3.5937 q 0,-0.625 -0.229167,-0.9375 -0.229166,-0.3125 -0.75,-0.3125 -0.395833,0 -0.734375,0.2083 -0.333333,0.2084 -0.484375,0.6094 -0.151041,0.401 -0.151041,1.1563 v 2.8697 z"
         style="font-style:normal;font-variant:normal;font-weight:normal;font-stretch:normal;font-size:10.66666698px;font-family:Arial;-inkscape-font-specification:'Arial, Normal';font-variant-ligatures:normal;font-variant-caps:normal;font-variant-numeric:normal;font-feature-settings:normal;text-align:start;writing-mode:lr-tb;text-anchor:start;stroke-width:0.99999994px"
         id="path12788"
         inkscape:connector-curvature="0" />
      <path
         d="m 26.028647,1029.995 v -1.0782 h 0.9375 v 1.0782 z m 0,6.5572 v -5.5312 h 0.9375 v 5.5312 z"
         style="font-style:normal;font-variant:normal;font-weight:normal;font-stretch:normal;font-size:10.66666698px;font-family:Arial;-inkscape-font-specification:'Arial, Normal';font-variant-ligatures:normal;font-variant-caps:normal;font-variant-numeric:normal;font-feature-settings:normal;text-align:start;writing-mode:lr-tb;text-anchor:start;stroke-width:0.99999994px"
         id="path12790"
         inkscape:connector-curvature="0" />
      <path
         d="m 28.398438,1036.5522 v -5.5312 h 0.84375 v 0.7865 q 0.609376,-0.9115 1.760417,-0.9115 0.5,0 0.916667,0.1823 0.421875,0.1771 0.630208,0.4687 0.208334,0.2917 0.291667,0.6927 0.05208,0.2605 0.05208,0.9115 v 3.401 h -0.9375 v -3.3645 q 0,-0.573 -0.109375,-0.8542 -0.109375,-0.2865 -0.390625,-0.4531 -0.276041,-0.1719 -0.651041,-0.1719 -0.598959,0 -1.036459,0.3802 -0.432291,0.3802 -0.432291,1.4427 v 3.0208 z"
         style="font-style:normal;font-variant:normal;font-weight:normal;font-stretch:normal;font-size:10.66666698px;font-family:Arial;-inkscape-font-specification:'Arial, Normal';font-variant-ligatures:normal;font-variant-caps:normal;font-variant-numeric:normal;font-feature-settings:normal;text-align:start;writing-mode:lr-tb;text-anchor:start;stroke-width:0.99999994px"
         id="path12792"
         inkscape:connector-curvature="0" />
    </g>
  </g>
</svg>
