<?xml version="1.0" encoding="UTF-8" standalone="no"?>
<!-- Created with Inkscape (http://www.inkscape.org/) -->

<svg
   xmlns:dc="http://purl.org/dc/elements/1.1/"
   xmlns:cc="http://creativecommons.org/ns#"
   xmlns:rdf="http://www.w3.org/1999/02/22-rdf-syntax-ns#"
   xmlns:svg="http://www.w3.org/2000/svg"
   xmlns="http://www.w3.org/2000/svg"
   xmlns:sodipodi="http://sodipodi.sourceforge.net/DTD/sodipodi-0.dtd"
   xmlns:inkscape="http://www.inkscape.org/namespaces/inkscape"
   width="50"
   height="50"
   viewBox="0 0 50 50.000001"
   id="svg2"
   version="1.1"
   inkscape:version="0.92.4 (5da689c313, 2019-01-14)"
   sodipodi:docname="DIN0375_Trinkgefaess_fuellen_Becher_fuellen.svg"
   inkscape:export-filename="P:\Files\Axialis\Library\Baldwin\Inkscape-png-export\DIN_0375_Trinkgefaess_fuellen_Becher_fuellen.png"
   inkscape:export-xdpi="92.160004"
   inkscape:export-ydpi="92.160004">
  <defs
     id="defs4" />
  <sodipodi:namedview
     id="base"
     pagecolor="#ffffff"
     bordercolor="#666666"
     borderopacity="1.0"
     inkscape:pageopacity="0.0"
     inkscape:pageshadow="2"
     inkscape:zoom="9.7209677"
     inkscape:cx="-28.247739"
     inkscape:cy="22.68824"
     inkscape:document-units="px"
     inkscape:current-layer="layer1"
     showgrid="true"
     units="px"
     showborder="true"
     borderlayer="false"
     inkscape:showpageshadow="true"
     inkscape:window-width="2560"
     inkscape:window-height="1377"
     inkscape:window-x="-8"
     inkscape:window-y="-8"
     inkscape:window-maximized="1">
    <inkscape:grid
       type="xygrid"
       id="grid13545" />
  </sodipodi:namedview>
  <metadata
     id="metadata7">
    <rdf:RDF>
      <cc:Work
         rdf:about="">
        <dc:format>image/svg+xml</dc:format>
        <dc:type
           rdf:resource="http://purl.org/dc/dcmitype/StillImage" />
        <dc:title />
      </cc:Work>
    </rdf:RDF>
  </metadata>
  <g
     inkscape:label="Ebene 1"
     inkscape:groupmode="layer"
     id="layer1"
     transform="translate(0,-1002.3622)">
    <path
       style="color:#000000;font-style:normal;font-variant:normal;font-weight:normal;font-stretch:normal;font-size:medium;line-height:normal;font-family:sans-serif;font-variant-ligatures:normal;font-variant-position:normal;font-variant-caps:normal;font-variant-numeric:normal;font-variant-alternates:normal;font-feature-settings:normal;text-indent:0;text-align:start;text-decoration:none;text-decoration-line:none;text-decoration-style:solid;text-decoration-color:#000000;letter-spacing:normal;word-spacing:normal;text-transform:none;writing-mode:lr-tb;direction:ltr;text-orientation:mixed;dominant-baseline:auto;baseline-shift:baseline;text-anchor:start;white-space:normal;shape-padding:0;clip-rule:nonzero;display:inline;overflow:visible;visibility:visible;opacity:1;isolation:auto;mix-blend-mode:normal;color-interpolation:sRGB;color-interpolation-filters:linearRGB;solid-color:#000000;solid-opacity:1;vector-effect:none;fill:#000000;fill-opacity:1;fill-rule:nonzero;stroke:none;stroke-width:1.5;stroke-linecap:butt;stroke-linejoin:miter;stroke-miterlimit:4;stroke-dasharray:none;stroke-dashoffset:0;stroke-opacity:1;color-rendering:auto;image-rendering:auto;shape-rendering:auto;text-rendering:auto;enable-background:accumulate"
       d="m 21.09375,12.681641 -0.197266,0.982421 h -9.410156 l 3.328125,31.617188 h 20.371094 l 3.328125,-31.617188 h -9.410156 l -0.197266,-0.982421 -1.470703,0.292968 3.169922,15.851563 1.470703,-0.294922 -2.673828,-13.367188 h 7.443359 L 34.191406,40.40625 C 33.275954,39.949864 32.66985,39.018389 32.669922,37.957031 h -1.5 c 0,0.9822 -0.522404,1.887807 -1.373047,2.378907 -0.850643,0.491099 -1.895484,0.491099 -2.746094,0 -0.850609,-0.4912 -1.373113,-1.396707 -1.373047,-2.378907 h -1.5 c 0,0.9822 -0.522405,1.887807 -1.373046,2.378907 -0.850644,0.491099 -1.893532,0.491099 -2.744141,0 -0.85061,-0.4912 -1.373113,-1.396707 -1.373047,-2.378907 h -1.5 c 0,1.005799 -0.545708,1.89731 -1.386719,2.376953 L 13.154297,15.164062 h 7.443359 l -2.673828,13.367188 1.470703,0.294922 3.169922,-15.851563 z M 31.923828,40.34375 c 0.503857,0.73624 1.231242,1.307724 2.103516,1.611328 L 33.835938,43.78125 H 16.164062 l -0.197265,-1.876953 c 0.81306,-0.314556 1.490101,-0.862488 1.966797,-1.558594 0.353493,0.518291 0.815921,0.965127 1.376953,1.289063 1.312627,0.7579 2.931462,0.7578 4.244141,0 0.558954,-0.322681 1.02003,-0.767415 1.373046,-1.283204 0.353034,0.515782 0.814115,0.96048 1.373047,1.283204 1.312627,0.7579 2.933416,0.7578 4.246094,0 0.561537,-0.324172 1.023372,-0.77214 1.376953,-1.291016 z"
       transform="translate(0,1002.3622)"
       id="path1867"
       inkscape:connector-curvature="0" />
    <path
       style="color:#000000;font-style:normal;font-variant:normal;font-weight:normal;font-stretch:normal;font-size:medium;line-height:normal;font-family:sans-serif;font-variant-ligatures:normal;font-variant-position:normal;font-variant-caps:normal;font-variant-numeric:normal;font-variant-alternates:normal;font-feature-settings:normal;text-indent:0;text-align:start;text-decoration:none;text-decoration-line:none;text-decoration-style:solid;text-decoration-color:#000000;letter-spacing:normal;word-spacing:normal;text-transform:none;writing-mode:lr-tb;direction:ltr;text-orientation:mixed;dominant-baseline:auto;baseline-shift:baseline;text-anchor:start;white-space:normal;shape-padding:0;clip-rule:nonzero;display:inline;overflow:visible;visibility:visible;opacity:1;isolation:auto;mix-blend-mode:normal;color-interpolation:sRGB;color-interpolation-filters:linearRGB;solid-color:#000000;solid-opacity:1;vector-effect:none;fill:#000000;fill-opacity:1;fill-rule:nonzero;stroke:none;stroke-width:1.5;stroke-linecap:butt;stroke-linejoin:miter;stroke-miterlimit:4;stroke-dasharray:none;stroke-dashoffset:0;stroke-opacity:1;color-rendering:auto;image-rendering:auto;shape-rendering:auto;text-rendering:auto;enable-background:accumulate"
       d="m 20.337891,1007.082 -1.455079,0.3633 1.726563,6.9102 h 8.78125 l 1.726563,-6.9102 -1.455079,-0.3633 -1.443359,5.7735 h -6.4375 z"
       id="path1888"
       inkscape:connector-curvature="0" />
  </g>
</svg>
