<?xml version="1.0" encoding="UTF-8" standalone="no"?>
<!-- Created with Inkscape (http://www.inkscape.org/) -->

<svg
   xmlns:dc="http://purl.org/dc/elements/1.1/"
   xmlns:cc="http://creativecommons.org/ns#"
   xmlns:rdf="http://www.w3.org/1999/02/22-rdf-syntax-ns#"
   xmlns:svg="http://www.w3.org/2000/svg"
   xmlns="http://www.w3.org/2000/svg"
   xmlns:sodipodi="http://sodipodi.sourceforge.net/DTD/sodipodi-0.dtd"
   xmlns:inkscape="http://www.inkscape.org/namespaces/inkscape"
   width="50"
   height="50"
   viewBox="0 0 50 50.000001"
   id="svg2"
   version="1.1"
   inkscape:version="0.92.4 (5da689c313, 2019-01-14)"
   sodipodi:docname="DIN0988_Kuehlung_mit_Luft.svg"
   inkscape:export-filename="P:\Files\Axialis\Library\Baldwin\Inkscape-png-export\DIN0492_Abstreichen_Escape.png"
   inkscape:export-xdpi="92.160004"
   inkscape:export-ydpi="92.160004">
  <defs
     id="defs4" />
  <sodipodi:namedview
     id="base"
     pagecolor="#ffffff"
     bordercolor="#666666"
     borderopacity="1.0"
     inkscape:pageopacity="0.0"
     inkscape:pageshadow="2"
     inkscape:zoom="9.7209677"
     inkscape:cx="-36.373851"
     inkscape:cy="20.567845"
     inkscape:document-units="px"
     inkscape:current-layer="layer1"
     showgrid="true"
     units="px"
     showborder="true"
     borderlayer="false"
     inkscape:showpageshadow="true"
     inkscape:window-width="2560"
     inkscape:window-height="1377"
     inkscape:window-x="-8"
     inkscape:window-y="-8"
     inkscape:window-maximized="1">
    <inkscape:grid
       type="xygrid"
       id="grid10233" />
  </sodipodi:namedview>
  <metadata
     id="metadata7">
    <rdf:RDF>
      <cc:Work
         rdf:about="">
        <dc:format>image/svg+xml</dc:format>
        <dc:type
           rdf:resource="http://purl.org/dc/dcmitype/StillImage" />
        <dc:title></dc:title>
      </cc:Work>
    </rdf:RDF>
  </metadata>
  <g
     inkscape:label="Ebene 1"
     inkscape:groupmode="layer"
     id="layer1"
     transform="translate(0,-1002.3622)">
    <path
       style="color:#000000;font-style:normal;font-variant:normal;font-weight:normal;font-stretch:normal;font-size:medium;line-height:normal;font-family:sans-serif;font-variant-ligatures:normal;font-variant-position:normal;font-variant-caps:normal;font-variant-numeric:normal;font-variant-alternates:normal;font-feature-settings:normal;text-indent:0;text-align:start;text-decoration:none;text-decoration-line:none;text-decoration-style:solid;text-decoration-color:#000000;letter-spacing:normal;word-spacing:normal;text-transform:none;writing-mode:lr-tb;direction:ltr;text-orientation:mixed;dominant-baseline:auto;baseline-shift:baseline;text-anchor:start;white-space:normal;shape-padding:0;clip-rule:nonzero;display:inline;overflow:visible;visibility:visible;opacity:1;isolation:auto;mix-blend-mode:normal;color-interpolation:sRGB;color-interpolation-filters:linearRGB;solid-color:#000000;solid-opacity:1;vector-effect:none;fill:#000000;fill-opacity:1;fill-rule:nonzero;stroke:none;stroke-width:1;stroke-linecap:butt;stroke-linejoin:miter;stroke-miterlimit:4;stroke-dasharray:none;stroke-dashoffset:0;stroke-opacity:1;color-rendering:auto;image-rendering:auto;shape-rendering:auto;text-rendering:auto;enable-background:accumulate"
       d="m 13.820312,14.835938 v 1.652343 l -1.134765,-0.660156 -0.501953,0.865234 1.164062,0.677735 -5.1152341,2.929687 0.00391,-1.30664 h -1 l -0.00391,1.33789 -1.4648438,-0.845703 -0.4980469,0.865234 1.4296876,0.826172 -1.1386719,0.652344 0.4960937,0.869141 1.1699219,-0.669922 -0.021484,5.894531 -1.125,-0.654297 -0.5019531,0.863281 1.1542969,0.671876 -1.4648438,0.845703 0.5019531,0.865234 1.4296876,-0.826172 -0.00391,1.3125 h 1 l 0.00391,-1.34375 5.0957028,2.966797 -1.128906,0.646484 0.496093,0.867188 1.158203,-0.664063 v 1.691407 h 1 v -1.654297 l 1.136719,0.662109 0.501953,-0.865234 -1.164062,-0.677735 5.115234,-2.929687 -0.0039,1.300781 h 1 l 0.0039,-1.332031 1.462891,0.845703 0.5,-0.865234 -1.429688,-0.826172 1.138672,-0.652344 -0.496093,-0.869141 -1.169922,0.669922 0.02148,-5.894531 1.125,0.654297 0.501953,-0.863281 -1.154297,-0.671875 1.462891,-0.845704 -0.5,-0.865234 -1.429688,0.826172 0.0039,-1.318359 h -1 l -0.0039,1.349609 -5.095703,-2.966797 1.128906,-0.646484 -0.496093,-0.867188 -1.160157,0.664063 v -1.691406 z m 0.525391,3.115234 6.09375,3.544922 -0.02539,7.050781 -6.117187,3.503906 -6.09375,-3.544922 0.025391,-7.050781 z"
       transform="translate(0,1002.3622)"
       id="path833-1"
       inkscape:connector-curvature="0" />
    <path
       style="color:#000000;font-style:normal;font-variant:normal;font-weight:normal;font-stretch:normal;font-size:medium;line-height:normal;font-family:sans-serif;font-variant-ligatures:normal;font-variant-position:normal;font-variant-caps:normal;font-variant-numeric:normal;font-variant-alternates:normal;font-feature-settings:normal;text-indent:0;text-align:start;text-decoration:none;text-decoration-line:none;text-decoration-style:solid;text-decoration-color:#000000;letter-spacing:normal;word-spacing:normal;text-transform:none;writing-mode:lr-tb;direction:ltr;text-orientation:mixed;dominant-baseline:auto;baseline-shift:baseline;text-anchor:start;white-space:normal;shape-padding:0;clip-rule:nonzero;display:inline;overflow:visible;visibility:visible;opacity:1;isolation:auto;mix-blend-mode:normal;color-interpolation:sRGB;color-interpolation-filters:linearRGB;solid-color:#000000;solid-opacity:1;vector-effect:none;fill:#000000;fill-opacity:1;fill-rule:evenodd;stroke:none;stroke-width:0.99999988;stroke-linecap:butt;stroke-linejoin:miter;stroke-miterlimit:4;stroke-dasharray:none;stroke-dashoffset:0;stroke-opacity:1;color-rendering:auto;image-rendering:auto;shape-rendering:auto;text-rendering:auto;enable-background:accumulate"
       d="m 40.896484,13.408203 c -1.683152,0.01508 -2.943515,0.351097 -3.933593,0.904297 -1.320106,0.7381 -2.117831,1.834703 -2.828125,2.908203 -0.710294,1.0735 -1.344576,2.1295 -2.310547,2.9375 -0.965972,0.808 -2.267438,1.403884 -4.429688,1.521485 l 0.05469,0.998046 c 2.328559,-0.1267 3.889362,-0.809853 5.015625,-1.751953 1.126262,-0.942 1.811472,-2.105844 2.503906,-3.152343 0.692434,-1.046501 1.380235,-1.971691 2.482422,-2.587891 1.102186,-0.6162 2.660913,-0.952047 5.169922,-0.685547 l 0.105468,-0.996094 c -0.660479,-0.07015 -1.269027,-0.100731 -1.830078,-0.0957 z m -1.560546,9.804688 c -1.51227,-0.021 -2.750463,0.529015 -3.902344,1.103515 -1.151882,0.5746 -2.230153,1.171972 -3.470703,1.388672 -1.24055,0.2168 -2.666258,0.08096 -4.597657,-0.898437 l -0.451172,0.892578 c 2.079952,1.0546 3.774304,1.242934 5.220704,0.990234 1.4464,-0.2527 2.621222,-0.918516 3.74414,-1.478515 1.122919,-0.5601 2.180729,-1.015447 3.44336,-0.998047 1.262631,0.017 2.780708,0.504834 4.820312,1.990234 l 0.589844,-0.808594 c -2.147646,-1.564 -3.884217,-2.16074 -5.396484,-2.18164 z M 27.75,28.083984 26.914062,28.628906 c 1.274015,1.9533 2.648365,2.96435 4.027344,3.46875 1.378979,0.5043 2.727946,0.515397 3.980469,0.591797 1.252523,0.076 2.397665,0.211022 3.482422,0.857422 1.084757,0.6464 2.155995,1.826712 3.179687,4.132813 l 0.914063,-0.40625 C 41.420127,34.845137 40.215246,33.4617 38.916016,32.6875 c -1.299231,-0.7742 -2.648767,-0.917694 -3.933594,-0.996094 -1.284827,-0.078 -2.516499,-0.100603 -3.699219,-0.533203 -1.18272,-0.4325 -2.350181,-1.260419 -3.533203,-3.074219 z"
       transform="translate(0,1002.3622)"
       id="path4156-0-9"
       inkscape:connector-curvature="0" />
  </g>
</svg>
