<?xml version="1.0" encoding="UTF-8" standalone="no"?>
<!-- Created with Inkscape (http://www.inkscape.org/) -->

<svg
   xmlns:dc="http://purl.org/dc/elements/1.1/"
   xmlns:cc="http://creativecommons.org/ns#"
   xmlns:rdf="http://www.w3.org/1999/02/22-rdf-syntax-ns#"
   xmlns:svg="http://www.w3.org/2000/svg"
   xmlns="http://www.w3.org/2000/svg"
   xmlns:sodipodi="http://sodipodi.sourceforge.net/DTD/sodipodi-0.dtd"
   xmlns:inkscape="http://www.inkscape.org/namespaces/inkscape"
   width="50"
   height="50"
   viewBox="0 0 50 50.000001"
   id="svg2"
   version="1.1"
   inkscape:version="0.92.4 (5da689c313, 2019-01-14)"
   sodipodi:docname="DIN0491_Kuehlen.svg"
   inkscape:export-filename="P:\Files\Axialis\Library\Baldwin\Inkscape-png-export\DIN0492_Abstreichen_Escape.png"
   inkscape:export-xdpi="92.160004"
   inkscape:export-ydpi="92.160004">
  <defs
     id="defs4" />
  <sodipodi:namedview
     id="base"
     pagecolor="#ffffff"
     bordercolor="#666666"
     borderopacity="1.0"
     inkscape:pageopacity="0.0"
     inkscape:pageshadow="2"
     inkscape:zoom="9.7209677"
     inkscape:cx="-13.896665"
     inkscape:cy="20.567845"
     inkscape:document-units="px"
     inkscape:current-layer="layer1"
     showgrid="true"
     units="px"
     showborder="true"
     borderlayer="false"
     inkscape:showpageshadow="true"
     inkscape:window-width="2560"
     inkscape:window-height="1377"
     inkscape:window-x="-8"
     inkscape:window-y="-8"
     inkscape:window-maximized="1">
    <inkscape:grid
       type="xygrid"
       id="grid10233" />
  </sodipodi:namedview>
  <metadata
     id="metadata7">
    <rdf:RDF>
      <cc:Work
         rdf:about="">
        <dc:format>image/svg+xml</dc:format>
        <dc:type
           rdf:resource="http://purl.org/dc/dcmitype/StillImage" />
        <dc:title></dc:title>
      </cc:Work>
    </rdf:RDF>
  </metadata>
  <g
     inkscape:label="Ebene 1"
     inkscape:groupmode="layer"
     id="layer1"
     transform="translate(0,-1002.3622)">
    <path
       style="color:#000000;font-style:normal;font-variant:normal;font-weight:normal;font-stretch:normal;font-size:medium;line-height:normal;font-family:sans-serif;font-variant-ligatures:normal;font-variant-position:normal;font-variant-caps:normal;font-variant-numeric:normal;font-variant-alternates:normal;font-feature-settings:normal;text-indent:0;text-align:start;text-decoration:none;text-decoration-line:none;text-decoration-style:solid;text-decoration-color:#000000;letter-spacing:normal;word-spacing:normal;text-transform:none;writing-mode:lr-tb;direction:ltr;text-orientation:mixed;dominant-baseline:auto;baseline-shift:baseline;text-anchor:start;white-space:normal;shape-padding:0;clip-rule:nonzero;display:inline;overflow:visible;visibility:visible;opacity:1;isolation:auto;mix-blend-mode:normal;color-interpolation:sRGB;color-interpolation-filters:linearRGB;solid-color:#000000;solid-opacity:1;vector-effect:none;fill:#000000;fill-opacity:1;fill-rule:nonzero;stroke:none;stroke-width:1.5;stroke-linecap:butt;stroke-linejoin:miter;stroke-miterlimit:4;stroke-dasharray:none;stroke-dashoffset:0;stroke-opacity:1;color-rendering:auto;image-rendering:auto;shape-rendering:auto;text-rendering:auto;enable-background:accumulate"
       d="m 24.25,2 v 4.4023438 l -3.142578,-1.828125 -0.753906,1.296875 3.205078,1.8652343 -12.71875,7.2851559 0.01172,-3.609375 -1.4999995,-0.002 -0.013672,3.683594 -3.8808594,-2.242188 -0.75,1.298829 3.8105469,2.201171 -3.1542969,1.806641 0.7460938,1.302735 3.2207031,-1.845704 -0.050781,14.664063 -3.1191407,-1.816406 -0.7539062,1.296875 3.1816406,1.851562 -3.8808594,2.240234 0.75,1.298829 3.8125,-2.203125 -0.011719,3.636718 h 1.4999995 l 0.01367,-3.701172 12.667969,7.371094 -3.128906,1.792969 0.746094,1.302734 L 24.25,43.521484 V 48 h 1.5 v -4.400391 l 3.142578,1.828125 0.753906,-1.296875 -3.205078,-1.865234 12.722656,-7.287109 -0.01172,3.605468 h 1.5 l 0.01172,-3.671875 3.878907,2.238282 0.75,-1.298829 -3.810547,-2.201171 3.154297,-1.806641 -0.746094,-1.302734 -3.216797,1.841796 0.05078,-14.65625 3.115235,1.8125 0.753906,-1.296874 -3.181641,-1.851563 3.88086,-2.240234 -0.75,-1.298829 -3.808594,2.199219 0.01172,-3.638672 -1.5,-0.002 -0.01367,3.710938 L 26.560547,7.7480469 29.689453,5.9550781 28.943359,4.6523438 25.75,6.4804688 V 2 Z m 0.806641,6.6074219 14.169921,8.2480471 -0.05664,16.388672 -14.226563,8.15039 -14.166015,-8.24414 0.05664,-16.394532 z"
       transform="translate(0,1002.3622)"
       id="path833-1"
       inkscape:connector-curvature="0" />
  </g>
</svg>
