<?xml version="1.0" encoding="UTF-8" standalone="no"?>
<!-- Created with Inkscape (http://www.inkscape.org/) -->

<svg
   xmlns:dc="http://purl.org/dc/elements/1.1/"
   xmlns:cc="http://creativecommons.org/ns#"
   xmlns:rdf="http://www.w3.org/1999/02/22-rdf-syntax-ns#"
   xmlns:svg="http://www.w3.org/2000/svg"
   xmlns="http://www.w3.org/2000/svg"
   xmlns:sodipodi="http://sodipodi.sourceforge.net/DTD/sodipodi-0.dtd"
   xmlns:inkscape="http://www.inkscape.org/namespaces/inkscape"
   width="50"
   height="50"
   viewBox="0 0 50 50.000001"
   id="svg2"
   version="1.1"
   inkscape:version="0.92.4 (5da689c313, 2019-01-14)"
   sodipodi:docname="DIN0403_Wasserdampf.svg"
   inkscape:export-filename="P:\Files\Axialis\Library\Baldwin\Inkscape-png-export\DIN0276_Dampf_Energie.png"
   inkscape:export-xdpi="92.160004"
   inkscape:export-ydpi="92.160004">
  <defs
     id="defs4" />
  <sodipodi:namedview
     id="base"
     pagecolor="#ffffff"
     bordercolor="#666666"
     borderopacity="1.0"
     inkscape:pageopacity="0.0"
     inkscape:pageshadow="2"
     inkscape:zoom="9.7209677"
     inkscape:cx="23.786912"
     inkscape:cy="22.706194"
     inkscape:document-units="px"
     inkscape:current-layer="layer1"
     showgrid="true"
     units="px"
     showborder="true"
     borderlayer="false"
     inkscape:showpageshadow="true"
     inkscape:window-width="1084"
     inkscape:window-height="867"
     inkscape:window-x="56"
     inkscape:window-y="47"
     inkscape:window-maximized="0">
    <inkscape:grid
       type="xygrid"
       id="grid10233" />
  </sodipodi:namedview>
  <metadata
     id="metadata7">
    <rdf:RDF>
      <cc:Work
         rdf:about="">
        <dc:format>image/svg+xml</dc:format>
        <dc:type
           rdf:resource="http://purl.org/dc/dcmitype/StillImage" />
        <dc:title></dc:title>
      </cc:Work>
    </rdf:RDF>
  </metadata>
  <g
     inkscape:label="Ebene 1"
     inkscape:groupmode="layer"
     id="layer1"
     transform="translate(0,-1002.3622)">
    <path
       style="color:#000000;font-style:normal;font-variant:normal;font-weight:normal;font-stretch:normal;font-size:medium;line-height:normal;font-family:sans-serif;font-variant-ligatures:normal;font-variant-position:normal;font-variant-caps:normal;font-variant-numeric:normal;font-variant-alternates:normal;font-feature-settings:normal;text-indent:0;text-align:start;text-decoration:none;text-decoration-line:none;text-decoration-style:solid;text-decoration-color:#000000;letter-spacing:normal;word-spacing:normal;text-transform:none;writing-mode:lr-tb;direction:ltr;text-orientation:mixed;dominant-baseline:auto;baseline-shift:baseline;text-anchor:start;white-space:normal;shape-padding:0;clip-rule:nonzero;display:inline;overflow:visible;visibility:visible;opacity:1;isolation:auto;mix-blend-mode:normal;color-interpolation:sRGB;color-interpolation-filters:linearRGB;solid-color:#000000;solid-opacity:1;vector-effect:none;fill:#000000;fill-opacity:1;fill-rule:evenodd;stroke:none;stroke-width:1.49999988;stroke-linecap:butt;stroke-linejoin:miter;stroke-miterlimit:4;stroke-dasharray:none;stroke-dashoffset:0;stroke-opacity:1;color-rendering:auto;image-rendering:auto;shape-rendering:auto;text-rendering:auto;enable-background:accumulate"
       d="m 25.205905,1011.4177 c -2.196763,3.0166 -3.061134,5.4992 -3.091281,7.6835 -0.03014,2.1844 0.763991,3.9652 1.56596,5.573 0.801967,1.6079 1.605598,3.0701 1.893782,4.7195 0.288184,1.6495 0.121181,3.5334 -1.211046,6.1609 l 1.855853,0.9402 c 1.488935,-2.9367 1.769133,-5.3809 1.406114,-7.4587 -0.36302,-2.0777 -1.308811,-3.7436 -2.080723,-5.2911 -0.771912,-1.5477 -1.374906,-2.9517 -1.351927,-4.6167 0.02297,-1.6649 0.662677,-3.6941 2.695727,-6.4859 z"
       id="path4156-0-9"
       inkscape:connector-curvature="0" />
    <path
       style="color:#000000;font-style:normal;font-variant:normal;font-weight:normal;font-stretch:normal;font-size:medium;line-height:normal;font-family:sans-serif;font-variant-ligatures:normal;font-variant-position:normal;font-variant-caps:normal;font-variant-numeric:normal;font-variant-alternates:normal;font-feature-settings:normal;text-indent:0;text-align:start;text-decoration:none;text-decoration-line:none;text-decoration-style:solid;text-decoration-color:#000000;letter-spacing:normal;word-spacing:normal;text-transform:none;writing-mode:lr-tb;direction:ltr;text-orientation:mixed;dominant-baseline:auto;baseline-shift:baseline;text-anchor:start;white-space:normal;shape-padding:0;clip-rule:nonzero;display:inline;overflow:visible;visibility:visible;opacity:1;isolation:auto;mix-blend-mode:normal;color-interpolation:sRGB;color-interpolation-filters:linearRGB;solid-color:#000000;solid-opacity:1;vector-effect:none;fill:#000000;fill-opacity:1;fill-rule:evenodd;stroke:none;stroke-width:1.49999988;stroke-linecap:butt;stroke-linejoin:miter;stroke-miterlimit:4;stroke-dasharray:none;stroke-dashoffset:0;stroke-opacity:1;color-rendering:auto;image-rendering:auto;shape-rendering:auto;text-rendering:auto;enable-background:accumulate"
       d="m 32.732268,1011.4177 c -2.196762,3.0166 -3.063844,5.4992 -3.093991,7.6835 -0.03014,2.1844 0.766702,3.9652 1.568669,5.573 0.801969,1.6079 1.605599,3.0701 1.893782,4.7195 0.288184,1.6495 0.121181,3.5334 -1.211044,6.1609 l 1.855852,0.9402 c 1.488934,-2.9367 1.769132,-5.3809 1.406113,-7.4587 -0.363018,-2.0777 -1.30881,-3.7436 -2.080722,-5.2911 -0.771912,-1.5477 -1.374906,-2.9517 -1.351927,-4.6167 0.02297,-1.6649 0.662676,-3.6941 2.695727,-6.4859 z"
       id="path4156-0-9-4"
       inkscape:connector-curvature="0" />
    <path
       style="color:#000000;font-style:normal;font-variant:normal;font-weight:normal;font-stretch:normal;font-size:medium;line-height:normal;font-family:sans-serif;font-variant-ligatures:normal;font-variant-position:normal;font-variant-caps:normal;font-variant-numeric:normal;font-variant-alternates:normal;font-feature-settings:normal;text-indent:0;text-align:start;text-decoration:none;text-decoration-line:none;text-decoration-style:solid;text-decoration-color:#000000;letter-spacing:normal;word-spacing:normal;text-transform:none;writing-mode:lr-tb;direction:ltr;text-orientation:mixed;dominant-baseline:auto;baseline-shift:baseline;text-anchor:start;white-space:normal;shape-padding:0;clip-rule:nonzero;display:inline;overflow:visible;visibility:visible;opacity:1;isolation:auto;mix-blend-mode:normal;color-interpolation:sRGB;color-interpolation-filters:linearRGB;solid-color:#000000;solid-opacity:1;vector-effect:none;fill:#000000;fill-opacity:1;fill-rule:evenodd;stroke:none;stroke-width:1.49999988;stroke-linecap:butt;stroke-linejoin:miter;stroke-miterlimit:4;stroke-dasharray:none;stroke-dashoffset:0;stroke-opacity:1;color-rendering:auto;image-rendering:auto;shape-rendering:auto;text-rendering:auto;enable-background:accumulate"
       d="m 17.679542,1011.4177 c -2.196763,3.0166 -3.061133,5.4992 -3.091282,7.6835 -0.03014,2.1844 0.766702,3.9652 1.568671,5.573 0.801967,1.6079 1.605597,3.0701 1.893782,4.7195 0.288184,1.6495 0.118462,3.5334 -1.213755,6.1609 l 1.855853,0.9402 c 1.488933,-2.9367 1.769131,-5.3809 1.406113,-7.4587 -0.363019,-2.0777 -1.308811,-3.7436 -2.080722,-5.2911 -0.771912,-1.5477 -1.372198,-2.9517 -1.349219,-4.6167 0.02298,-1.6649 0.659969,-3.6941 2.693019,-6.4859 z"
       id="path4156-0-9-7"
       inkscape:connector-curvature="0" />
    <path
       style="color:#000000;font-style:normal;font-variant:normal;font-weight:normal;font-stretch:normal;font-size:medium;line-height:normal;font-family:sans-serif;font-variant-ligatures:normal;font-variant-position:normal;font-variant-caps:normal;font-variant-numeric:normal;font-variant-alternates:normal;font-feature-settings:normal;text-indent:0;text-align:start;text-decoration:none;text-decoration-line:none;text-decoration-style:solid;text-decoration-color:#000000;letter-spacing:normal;word-spacing:normal;text-transform:none;writing-mode:lr-tb;direction:ltr;text-orientation:mixed;dominant-baseline:auto;baseline-shift:baseline;text-anchor:start;white-space:normal;shape-padding:0;clip-rule:nonzero;display:inline;overflow:visible;visibility:visible;opacity:1;isolation:auto;mix-blend-mode:normal;color-interpolation:sRGB;color-interpolation-filters:linearRGB;solid-color:#000000;solid-opacity:1;vector-effect:none;fill:#000000;fill-opacity:1;fill-rule:nonzero;stroke:none;stroke-width:1.49999988;stroke-linecap:butt;stroke-linejoin:miter;stroke-miterlimit:4;stroke-dasharray:none;stroke-dashoffset:0;stroke-opacity:1;color-rendering:auto;image-rendering:auto;shape-rendering:auto;text-rendering:auto;enable-background:accumulate"
       d="m 14.189453,35.048828 c 0,6.56e-4 0,0.0013 0,0.002 0,1.7369 -1.162529,3.244 -2.841797,3.6875 l 0.533203,2.009766 c 1.4049,-0.370932 2.566038,-1.242989 3.345703,-2.382813 0.490764,0.719605 1.131289,1.341281 1.910157,1.791016 1.822587,1.0523 4.073827,1.0522 5.896484,0 0.776929,-0.448555 1.417893,-1.066522 1.908203,-1.783203 0.490127,0.716126 1.130293,1.335149 1.90625,1.783203 1.822586,1.0523 4.071874,1.0522 5.894532,0 0.780191,-0.450439 1.423042,-1.072389 1.914062,-1.792969 0.815663,1.191749 2.046269,2.090666 3.529297,2.431641 l 0.466797,-2.027344 c -1.737405,-0.399552 -2.960152,-1.936194 -2.960938,-3.71875 h -2.082031 c 0,0 0,0.002 0,0.002 0,1.3646 -0.724504,2.620535 -1.90625,3.302735 -1.181747,0.6823 -2.632754,0.6823 -3.814453,0 -1.181131,-0.682072 -1.907597,-1.938993 -1.908203,-3.302735 -1e-6,-6.55e-4 0,-0.0013 0,-0.002 h -2.080078 c 0,6.57e-4 -10e-7,0.0013 0,0.002 0,1.3646 -0.726458,2.620535 -1.908203,3.302735 -1.181747,0.6823 -2.632755,0.6823 -3.814454,0 -1.181131,-0.682072 -1.905644,-1.938993 -1.90625,-3.302735 0,-6.55e-4 0,-0.0013 0,-0.002 z"
       transform="translate(0,1002.3622)"
       id="path7367"
       inkscape:connector-curvature="0" />
  </g>
</svg>
