<?xml version="1.0" encoding="UTF-8" standalone="no"?>
<!-- Created with Inkscape (http://www.inkscape.org/) -->

<svg
   xmlns:dc="http://purl.org/dc/elements/1.1/"
   xmlns:cc="http://creativecommons.org/ns#"
   xmlns:rdf="http://www.w3.org/1999/02/22-rdf-syntax-ns#"
   xmlns:svg="http://www.w3.org/2000/svg"
   xmlns="http://www.w3.org/2000/svg"
   xmlns:sodipodi="http://sodipodi.sourceforge.net/DTD/sodipodi-0.dtd"
   xmlns:inkscape="http://www.inkscape.org/namespaces/inkscape"
   width="50"
   height="50"
   viewBox="0 0 50 50.000001"
   id="svg2"
   version="1.1"
   inkscape:version="0.92.4 (5da689c313, 2019-01-14)"
   sodipodi:docname="DIN0086_Gesamtloeschen_Gesamt_Nullstellen.svg"
   inkscape:export-filename="P:\Files\Axialis\Library\Baldwin\Inkscape-png-export\DIN0086_Gesamtloeschen_Gesamt_Nullstellen.png"
   inkscape:export-xdpi="92.160004"
   inkscape:export-ydpi="92.160004">
  <defs
     id="defs4" />
  <sodipodi:namedview
     id="base"
     pagecolor="#ffffff"
     bordercolor="#666666"
     borderopacity="1.0"
     inkscape:pageopacity="0.0"
     inkscape:pageshadow="2"
     inkscape:zoom="9.7209677"
     inkscape:cx="-4.4945811"
     inkscape:cy="22.706194"
     inkscape:document-units="px"
     inkscape:current-layer="text5718"
     showgrid="true"
     units="px"
     showborder="true"
     borderlayer="false"
     inkscape:showpageshadow="true"
     inkscape:window-width="2560"
     inkscape:window-height="1377"
     inkscape:window-x="-8"
     inkscape:window-y="-8"
     inkscape:window-maximized="1"
     showguides="false">
    <inkscape:grid
       type="xygrid"
       id="grid10233" />
  </sodipodi:namedview>
  <metadata
     id="metadata7">
    <rdf:RDF>
      <cc:Work
         rdf:about="">
        <dc:format>image/svg+xml</dc:format>
        <dc:type
           rdf:resource="http://purl.org/dc/dcmitype/StillImage" />
        <dc:title />
      </cc:Work>
    </rdf:RDF>
  </metadata>
  <g
     inkscape:label="Ebene 1"
     inkscape:groupmode="layer"
     id="layer1"
     transform="translate(0,-1002.3622)">
    <g
       aria-label="T"
       style="font-style:normal;font-variant:normal;font-weight:normal;font-stretch:normal;font-size:9.74779129px;line-height:125%;font-family:Arial;-inkscape-font-specification:Arial;letter-spacing:0px;word-spacing:0px;fill:#000000;fill-opacity:1;stroke:none;stroke-width:1px;stroke-linecap:butt;stroke-linejoin:miter;stroke-opacity:1"
       id="text5718">
      <path
         style="color:#000000;font-style:normal;font-variant:normal;font-weight:normal;font-stretch:normal;font-size:medium;line-height:125%;font-family:Arial;-inkscape-font-specification:Arial;font-variant-ligatures:normal;font-variant-position:normal;font-variant-caps:normal;font-variant-numeric:normal;font-variant-alternates:normal;font-feature-settings:normal;text-indent:0;text-align:start;text-decoration:none;text-decoration-line:none;text-decoration-style:solid;text-decoration-color:#000000;letter-spacing:0px;word-spacing:0px;text-transform:none;writing-mode:lr-tb;direction:ltr;text-orientation:mixed;dominant-baseline:auto;baseline-shift:baseline;text-anchor:start;white-space:normal;shape-padding:0;clip-rule:nonzero;display:inline;overflow:visible;visibility:visible;opacity:1;isolation:auto;mix-blend-mode:normal;color-interpolation:sRGB;color-interpolation-filters:linearRGB;solid-color:#000000;solid-opacity:1;vector-effect:none;fill:#000000;fill-opacity:1;fill-rule:nonzero;stroke:none;stroke-width:2;stroke-linecap:butt;stroke-linejoin:miter;stroke-miterlimit:4;stroke-dasharray:none;stroke-dashoffset:0;stroke-opacity:1;color-rendering:auto;image-rendering:auto;shape-rendering:auto;text-rendering:auto;enable-background:accumulate"
         d="m 25,9.5 c -3.730419,0 -6.932876,2.227988 -8.652344,5.5 l -4.982422,-5.3398438 -0.730468,0.6816408 5.257812,5.632812 C 15.323551,17.359885 15,18.890237 15,20.5 v 9 c 0,1.609789 0.323551,3.140111 0.892578,4.525391 l -5.257812,5.634765 0.730468,0.681641 4.984375,-5.339844 C 18.06938,38.272677 21.270477,40.5 25,40.5 c 3.729523,0 6.93062,-2.227323 8.650391,-5.498047 l 4.984375,5.339844 0.730468,-0.681641 -5.257812,-5.634765 C 34.676449,32.640111 35,31.109789 35,29.5 v -9 c 0,-1.609763 -0.323551,-3.140115 -0.892578,-4.525391 L 39.365234,10.341797 38.634766,9.6601562 33.652344,15 C 31.932876,11.727988 28.730419,9.5 25,9.5 Z m 0,2 c 3.152407,0 5.895264,2.039329 7.195312,5.058594 L 25,24.269531 17.804688,16.558594 C 19.104736,13.539329 21.847593,11.5 25,11.5 Z M 17.419922,17.611328 24.316406,25 17.419922,32.390625 C 17.150783,31.48655 17,30.517258 17,29.5 v -9 c 0,-1.016566 0.151124,-1.98511 0.419922,-2.888672 z m 15.160156,0 C 32.848876,18.51489 33,19.483434 33,20.5 v 9 c 0,1.017258 -0.150783,1.98655 -0.419922,2.890625 L 25.683594,25 Z M 25,25.732422 32.195312,33.441406 C 30.895264,36.460679 28.152407,38.5 25,38.5 c -3.152407,0 -5.895264,-2.039321 -7.195312,-5.058594 z"
         transform="translate(0,1002.3622)"
         id="rect6888"
         inkscape:connector-curvature="0" />
    </g>
  </g>
</svg>
