<?xml version="1.0" encoding="UTF-8" standalone="no"?>
<!-- Created with Inkscape (http://www.inkscape.org/) -->

<svg
   xmlns:dc="http://purl.org/dc/elements/1.1/"
   xmlns:cc="http://creativecommons.org/ns#"
   xmlns:rdf="http://www.w3.org/1999/02/22-rdf-syntax-ns#"
   xmlns:svg="http://www.w3.org/2000/svg"
   xmlns="http://www.w3.org/2000/svg"
   xmlns:sodipodi="http://sodipodi.sourceforge.net/DTD/sodipodi-0.dtd"
   xmlns:inkscape="http://www.inkscape.org/namespaces/inkscape"
   width="50"
   height="50"
   viewBox="0 0 50 50.000001"
   id="svg2"
   version="1.1"
   inkscape:version="0.92.4 (5da689c313, 2019-01-14)"
   sodipodi:docname="DIN0127_Ventilation_Lueftung.svg"
   inkscape:export-filename="P:\Files\Axialis\Library\Baldwin\Inkscape-png-export\DIN0015_Aus_Ausschalten_oder_Ausgeschaltet.png"
   inkscape:export-xdpi="92.160004"
   inkscape:export-ydpi="92.160004">
  <defs
     id="defs4" />
  <sodipodi:namedview
     id="base"
     pagecolor="#ffffff"
     bordercolor="#666666"
     borderopacity="1.0"
     inkscape:pageopacity="0.0"
     inkscape:pageshadow="2"
     inkscape:zoom="19.441935"
     inkscape:cx="9.9995495"
     inkscape:cy="26.867659"
     inkscape:document-units="px"
     inkscape:current-layer="layer1"
     showgrid="true"
     units="px"
     showborder="true"
     borderlayer="false"
     inkscape:showpageshadow="true"
     inkscape:window-width="2560"
     inkscape:window-height="1377"
     inkscape:window-x="-8"
     inkscape:window-y="-8"
     inkscape:window-maximized="1">
    <inkscape:grid
       type="xygrid"
       id="grid10233" />
  </sodipodi:namedview>
  <metadata
     id="metadata7">
    <rdf:RDF>
      <cc:Work
         rdf:about="">
        <dc:format>image/svg+xml</dc:format>
        <dc:type
           rdf:resource="http://purl.org/dc/dcmitype/StillImage" />
        <dc:title></dc:title>
      </cc:Work>
    </rdf:RDF>
  </metadata>
  <g
     inkscape:label="Ebene 1"
     inkscape:groupmode="layer"
     id="layer1"
     transform="translate(0,-1002.3622)">
    <path
       style="color:#000000;font-style:normal;font-variant:normal;font-weight:normal;font-stretch:normal;font-size:medium;line-height:normal;font-family:sans-serif;font-variant-ligatures:normal;font-variant-position:normal;font-variant-caps:normal;font-variant-numeric:normal;font-variant-alternates:normal;font-feature-settings:normal;text-indent:0;text-align:start;text-decoration:none;text-decoration-line:none;text-decoration-style:solid;text-decoration-color:#000000;letter-spacing:normal;word-spacing:normal;text-transform:none;writing-mode:lr-tb;direction:ltr;text-orientation:mixed;dominant-baseline:auto;baseline-shift:baseline;text-anchor:start;white-space:normal;shape-padding:0;clip-rule:nonzero;display:inline;overflow:visible;visibility:visible;opacity:1;isolation:auto;mix-blend-mode:normal;color-interpolation:sRGB;color-interpolation-filters:linearRGB;solid-color:#000000;solid-opacity:1;vector-effect:none;fill:#000000;fill-opacity:1;fill-rule:nonzero;stroke:none;stroke-width:1.5;stroke-linecap:butt;stroke-linejoin:miter;stroke-miterlimit:4;stroke-dasharray:none;stroke-dashoffset:0;stroke-opacity:1;color-rendering:auto;image-rendering:auto;shape-rendering:auto;text-rendering:auto;enable-background:accumulate"
       d="m 22.566406,8.6679688 -0.216797,0.3769531 c -2.426541,4.2247001 -1.251018,10.3057121 1.503907,15.4453121 -5.010051,0.2356 -9.908314,1.945935 -12.462891,5.490235 l -0.222656,0.310547 1.273437,3.824218 0.480469,0.04883 c 2.54207,0.263201 5.041056,-0.707281 7.25,-2.363281 1.849662,-1.3866 3.450725,-3.322406 4.828125,-5.441406 1.3774,2.119 2.978463,4.054806 4.828125,5.441406 2.208944,1.656 4.70793,2.626482 7.25,2.363281 l 0.480469,-0.04883 1.273437,-3.824218 -0.222656,-0.310547 c -2.554577,-3.5443 -7.45284,-5.254635 -12.462891,-5.490235 2.754925,-5.1396 3.930448,-11.220612 1.503907,-15.4453121 L 27.433594,8.6679688 Z m 0.964844,1.5000002 h 2.9375 C 28.18278,13.575769 27.349815,18.796737 25,23.398438 22.650185,18.796737 21.81722,13.575769 23.53125,10.167969 Z m -0.125,15.865234 c -1.227691,1.7845 -2.599697,3.417106 -4.132812,4.566406 -1.858355,1.3932 -3.826577,2.083425 -5.751954,2.015625 l -0.664062,-1.996093 c 2.134419,-2.7109 6.200301,-4.267038 10.548828,-4.585938 z m 3.1875,0 c 4.348527,0.3189 8.414409,1.875038 10.548828,4.585938 l -0.664062,1.996093 c -1.925377,0.068 -3.893599,-0.622425 -5.751954,-2.015625 -1.533115,-1.1493 -2.905121,-2.781906 -4.132812,-4.566406 z"
       transform="translate(0,1002.3622)"
       id="path820"
       inkscape:connector-curvature="0" />
  </g>
</svg>
