<?xml version="1.0" encoding="UTF-8" standalone="no"?>
<!-- Created with Inkscape (http://www.inkscape.org/) -->

<svg
   xmlns:dc="http://purl.org/dc/elements/1.1/"
   xmlns:cc="http://creativecommons.org/ns#"
   xmlns:rdf="http://www.w3.org/1999/02/22-rdf-syntax-ns#"
   xmlns:svg="http://www.w3.org/2000/svg"
   xmlns="http://www.w3.org/2000/svg"
   xmlns:sodipodi="http://sodipodi.sourceforge.net/DTD/sodipodi-0.dtd"
   xmlns:inkscape="http://www.inkscape.org/namespaces/inkscape"
   width="50"
   height="50"
   viewBox="0 0 50 50.000001"
   id="svg2"
   version="1.1"
   inkscape:version="0.92.4 (5da689c313, 2019-01-14)"
   sodipodi:docname="DIN0989_Kuehlung_mit_Wasser.svg"
   inkscape:export-filename="P:\Files\Axialis\Library\Baldwin\Inkscape-png-export\DIN0492_Abstreichen_Escape.png"
   inkscape:export-xdpi="92.160004"
   inkscape:export-ydpi="92.160004">
  <defs
     id="defs4" />
  <sodipodi:namedview
     id="base"
     pagecolor="#ffffff"
     bordercolor="#666666"
     borderopacity="1.0"
     inkscape:pageopacity="0.0"
     inkscape:pageshadow="2"
     inkscape:zoom="9.7209677"
     inkscape:cx="-35.727066"
     inkscape:cy="20.567845"
     inkscape:document-units="px"
     inkscape:current-layer="layer1"
     showgrid="true"
     units="px"
     showborder="true"
     borderlayer="false"
     inkscape:showpageshadow="true"
     inkscape:window-width="2560"
     inkscape:window-height="1377"
     inkscape:window-x="-8"
     inkscape:window-y="-8"
     inkscape:window-maximized="1">
    <inkscape:grid
       type="xygrid"
       id="grid10233" />
  </sodipodi:namedview>
  <metadata
     id="metadata7">
    <rdf:RDF>
      <cc:Work
         rdf:about="">
        <dc:format>image/svg+xml</dc:format>
        <dc:type
           rdf:resource="http://purl.org/dc/dcmitype/StillImage" />
        <dc:title></dc:title>
      </cc:Work>
    </rdf:RDF>
  </metadata>
  <g
     inkscape:label="Ebene 1"
     inkscape:groupmode="layer"
     id="layer1"
     transform="translate(0,-1002.3622)">
    <path
       style="color:#000000;font-style:normal;font-variant:normal;font-weight:normal;font-stretch:normal;font-size:medium;line-height:normal;font-family:sans-serif;font-variant-ligatures:normal;font-variant-position:normal;font-variant-caps:normal;font-variant-numeric:normal;font-variant-alternates:normal;font-feature-settings:normal;text-indent:0;text-align:start;text-decoration:none;text-decoration-line:none;text-decoration-style:solid;text-decoration-color:#000000;letter-spacing:normal;word-spacing:normal;text-transform:none;writing-mode:lr-tb;direction:ltr;text-orientation:mixed;dominant-baseline:auto;baseline-shift:baseline;text-anchor:start;white-space:normal;shape-padding:0;clip-rule:nonzero;display:inline;overflow:visible;visibility:visible;opacity:1;isolation:auto;mix-blend-mode:normal;color-interpolation:sRGB;color-interpolation-filters:linearRGB;solid-color:#000000;solid-opacity:1;vector-effect:none;fill:#000000;fill-opacity:1;fill-rule:nonzero;stroke:none;stroke-width:1;stroke-linecap:butt;stroke-linejoin:miter;stroke-miterlimit:4;stroke-dasharray:none;stroke-dashoffset:0;stroke-opacity:1;color-rendering:auto;image-rendering:auto;shape-rendering:auto;text-rendering:auto;enable-background:accumulate"
       d="m 24.5,10.667969 v 1.652343 l -1.134766,-0.660156 -0.503906,0.865235 1.164063,0.677734 -5.113282,2.929687 0.0039,-1.30664 h -1 l -0.0039,1.33789 -1.464843,-0.845703 -0.5,0.865235 1.43164,0.826172 -1.140625,0.654296 0.498047,0.867188 1.169922,-0.669922 -0.02148,5.894531 -1.125,-0.654297 -0.503907,0.863282 1.154297,0.671875 -1.46289,0.845703 0.5,0.865234 1.43164,-0.826172 -0.0039,1.3125 h 1 l 0.0039,-1.341796 5.09375,2.964843 -1.128906,0.646485 0.498047,0.867187 L 24.5,29.306641 v 1.691406 h 1 v -1.652344 l 1.134766,0.660156 0.503906,-0.865234 -1.164063,-0.677734 5.115235,-2.929688 -0.0039,1.300781 h 1 l 0.0039,-1.332031 1.46289,0.845703 0.5,-0.865234 -1.429687,-0.826172 1.138672,-0.652344 -0.498047,-0.86914 -1.167969,0.667968 0.02148,-5.892578 1.123046,0.654297 0.503907,-0.863281 -1.154297,-0.671875 1.46289,-0.845703 -0.5,-0.865235 -1.429687,0.826172 0.0039,-1.318359 h -1 l -0.0039,1.349609 L 26.027344,13.208984 27.15625,12.5625 26.658203,11.695312 25.5,12.359375 v -1.691406 z m 0.523438,3.115234 6.095703,3.546875 -0.02539,7.046875 -6.117188,3.505859 -6.09375,-3.544921 0.02539,-7.050782 z"
       transform="translate(0,1002.3622)"
       id="path833-1"
       inkscape:connector-curvature="0" />
    <path
       style="color:#000000;font-style:normal;font-variant:normal;font-weight:normal;font-stretch:normal;font-size:medium;line-height:normal;font-family:sans-serif;font-variant-ligatures:normal;font-variant-position:normal;font-variant-caps:normal;font-variant-numeric:normal;font-variant-alternates:normal;font-feature-settings:normal;text-indent:0;text-align:start;text-decoration:none;text-decoration-line:none;text-decoration-style:solid;text-decoration-color:#000000;letter-spacing:normal;word-spacing:normal;text-transform:none;writing-mode:lr-tb;direction:ltr;text-orientation:mixed;dominant-baseline:auto;baseline-shift:baseline;text-anchor:start;white-space:normal;shape-padding:0;clip-rule:nonzero;display:inline;overflow:visible;visibility:visible;opacity:1;isolation:auto;mix-blend-mode:normal;color-interpolation:sRGB;color-interpolation-filters:linearRGB;solid-color:#000000;solid-opacity:1;vector-effect:none;fill:#000000;fill-opacity:1;fill-rule:nonzero;stroke:none;stroke-width:1;stroke-linecap:butt;stroke-linejoin:miter;stroke-miterlimit:4;stroke-dasharray:none;stroke-dashoffset:0;stroke-opacity:1;paint-order:normal;color-rendering:auto;image-rendering:auto;shape-rendering:auto;text-rendering:auto;enable-background:accumulate"
       d="m 34.5,33.744141 c 0,2.4754 -1.985557,4.478 -4.460938,4.5 -2.47273,0.02198 -4.490999,-1.940746 -4.539062,-4.41211 -5.1e-5,-0.0026 4.7e-5,-0.0052 0,-0.0078 l -0.445312,0.0078 H 24.5 c 0,0.0033 7e-6,0.0065 0,0.0098 -0.0053,2.470816 -1.988873,4.468264 -4.460938,4.490234 -2.475379,0.022 -4.495174,-1.944822 -4.539062,-4.419922 h -0.0078 c 7.33e-4,-0.02388 0.0074,-0.04637 0.0078,-0.07031 l -1,-0.01758 c -0.03562,2.0091 -1.393083,3.747578 -3.333984,4.267578 l 0.257812,0.964844 c 1.606932,-0.430622 2.87454,-1.558698 3.546875,-3 0.863861,1.944964 2.821739,3.295388 5.078125,3.27539 2.216451,-0.01986 4.118222,-1.358667 4.970703,-3.263672 0.886188,1.890205 2.812437,3.195429 5.029297,3.175782 2.205615,-0.01977 4.098487,-1.346173 4.957031,-3.236329 0.66589,1.465025 1.945121,2.613314 3.570313,3.048829 l 0.257812,-0.964844 C 36.893083,37.571797 35.535625,35.833319 35.5,33.824219 h -0.0039 c 3.93e-4,-0.027 0.0039,-0.05299 0.0039,-0.08008 z"
       transform="translate(0,1002.3622)"
       id="path839"
       inkscape:connector-curvature="0" />
  </g>
</svg>
