<?xml version="1.0" encoding="UTF-8" standalone="no"?>
<!-- Created with Inkscape (http://www.inkscape.org/) -->

<svg
   xmlns:dc="http://purl.org/dc/elements/1.1/"
   xmlns:cc="http://creativecommons.org/ns#"
   xmlns:rdf="http://www.w3.org/1999/02/22-rdf-syntax-ns#"
   xmlns:svg="http://www.w3.org/2000/svg"
   xmlns="http://www.w3.org/2000/svg"
   xmlns:sodipodi="http://sodipodi.sourceforge.net/DTD/sodipodi-0.dtd"
   xmlns:inkscape="http://www.inkscape.org/namespaces/inkscape"
   width="50"
   height="50"
   viewBox="0 0 50 50.000001"
   id="svg2"
   version="1.1"
   inkscape:version="0.92.4 (5da689c313, 2019-01-14)"
   sodipodi:docname="DIN0306_Einmalige_Verwendung.svg"
   inkscape:export-filename="P:\Files\Axialis\Library\Baldwin\Inkscape-png-export\DIN0306_Einmalige_Verwendung.png"
   inkscape:export-xdpi="92.160004"
   inkscape:export-ydpi="92.160004">
  <defs
     id="defs4" />
  <sodipodi:namedview
     id="base"
     pagecolor="#ffffff"
     bordercolor="#666666"
     borderopacity="1.0"
     inkscape:pageopacity="0.0"
     inkscape:pageshadow="2"
     inkscape:zoom="9.7209677"
     inkscape:cx="-4.4945811"
     inkscape:cy="22.706194"
     inkscape:document-units="px"
     inkscape:current-layer="layer1"
     showgrid="true"
     units="px"
     showborder="true"
     borderlayer="false"
     inkscape:showpageshadow="true"
     inkscape:window-width="2560"
     inkscape:window-height="1377"
     inkscape:window-x="-8"
     inkscape:window-y="-8"
     inkscape:window-maximized="1">
    <inkscape:grid
       type="xygrid"
       id="grid10233" />
  </sodipodi:namedview>
  <metadata
     id="metadata7">
    <rdf:RDF>
      <cc:Work
         rdf:about="">
        <dc:format>image/svg+xml</dc:format>
        <dc:type
           rdf:resource="http://purl.org/dc/dcmitype/StillImage" />
        <dc:title />
      </cc:Work>
    </rdf:RDF>
  </metadata>
  <g
     inkscape:label="Ebene 1"
     inkscape:groupmode="layer"
     id="layer1"
     transform="translate(0,-1002.3622)">
    <path
       style="color:#000000;font-style:normal;font-variant:normal;font-weight:normal;font-stretch:normal;font-size:medium;line-height:normal;font-family:sans-serif;font-variant-ligatures:normal;font-variant-position:normal;font-variant-caps:normal;font-variant-numeric:normal;font-variant-alternates:normal;font-feature-settings:normal;text-indent:0;text-align:start;text-decoration:none;text-decoration-line:none;text-decoration-style:solid;text-decoration-color:#000000;letter-spacing:normal;word-spacing:normal;text-transform:none;writing-mode:lr-tb;direction:ltr;text-orientation:mixed;dominant-baseline:auto;baseline-shift:baseline;text-anchor:start;white-space:normal;shape-padding:0;clip-rule:nonzero;display:inline;overflow:visible;visibility:visible;opacity:1;isolation:auto;mix-blend-mode:normal;color-interpolation:sRGB;color-interpolation-filters:linearRGB;solid-color:#000000;solid-opacity:1;vector-effect:none;fill:#000000;fill-opacity:1;fill-rule:nonzero;stroke:none;stroke-width:1.5;stroke-linecap:butt;stroke-linejoin:miter;stroke-miterlimit:4;stroke-dasharray:none;stroke-dashoffset:0;stroke-opacity:1;color-rendering:auto;image-rendering:auto;shape-rendering:auto;text-rendering:auto;enable-background:accumulate"
       d="M 25,9.2558594 C 16.31316,9.2558594 9.2558594,16.3132 9.2558594,25 9.2558594,33.6869 16.31316,40.746094 25,40.746094 33.68684,40.746094 40.744141,33.6869 40.744141,25 40.744141,16.3132 33.68684,9.2558594 25,9.2558594 Z m 0,1.4999996 c 7.87618,0 14.244141,6.367941 14.244141,14.244141 0,3.668061 -1.392645,6.998093 -3.664063,9.521484 C 28.483243,27.424629 22.408771,21.348291 15.478516,14.417969 18.001403,12.146799 21.332162,10.755859 25,10.755859 Z m -10.580078,4.72461 c 6.9294,6.929464 13.003463,13.005313 20.099609,20.101562 C 31.996832,37.852802 28.667058,39.246094 25,39.246094 17.12382,39.246094 10.755859,32.8762 10.755859,25 c 0,-3.66754 1.393221,-6.996729 3.664063,-9.519531 z"
       transform="translate(0,1002.3622)"
       id="path3336"
       inkscape:connector-curvature="0" />
    <g
       aria-label="2"
       style="font-style:normal;font-variant:normal;font-weight:normal;font-stretch:normal;font-size:28.10399818px;line-height:125%;font-family:Sans;-inkscape-font-specification:'Sans, Normal';font-variant-ligatures:normal;font-variant-caps:normal;font-variant-numeric:normal;font-feature-settings:normal;text-align:start;letter-spacing:0px;word-spacing:0px;writing-mode:lr-tb;text-anchor:start;fill:#000000;fill-opacity:1;stroke:none;stroke-width:1px;stroke-linecap:butt;stroke-linejoin:miter;stroke-opacity:1"
       id="text9683">
      <path
         style="font-style:normal;font-variant:normal;font-weight:normal;font-stretch:normal;font-size:28.10399818px;font-family:Sans;-inkscape-font-specification:'Sans, Normal';font-variant-ligatures:normal;font-variant-caps:normal;font-variant-numeric:normal;font-feature-settings:normal;text-align:start;writing-mode:lr-tb;text-anchor:start;stroke-width:1px"
         d="m 24.423828,14.570312 c -0.805063,0 -1.692375,0.115017 -2.662109,0.34375 -0.969734,0.228734 -2.012797,0.567359 -3.128907,1.015626 v 2.798828 c 1.097813,-0.612934 2.127305,-1.071114 3.087891,-1.373047 0.969734,-0.301867 1.888711,-0.451172 2.757813,-0.451172 1.22589,0 2.219195,0.343163 2.978515,1.029297 0.76847,0.686133 1.152344,1.573442 1.152344,2.662109 0,0.6678 -0.178367,1.349589 -0.535156,2.044922 -0.347641,0.686133 -0.966117,1.526304 -1.853516,2.523437 -0.46657,0.530601 -1.609149,1.715821 -3.429687,3.554688 -1.811391,1.829667 -3.242852,3.288286 -4.294922,4.376953 v 2.333985 h 13.007812 v -2.333985 h -9.673828 c 2.232219,-2.277933 3.961609,-4.04808 5.1875,-5.310547 1.22589,-1.271666 1.952929,-2.039421 2.181641,-2.304687 0.832507,-1.024667 1.403796,-1.911976 1.714843,-2.66211 0.320196,-0.759333 0.480469,-1.560677 0.480469,-2.402343 0,-1.7748 -0.630093,-3.192707 -1.892578,-4.253907 -1.262484,-1.061266 -2.955688,-1.591797 -5.078125,-1.591797 z"
         transform="translate(0,1002.3622)"
         id="path9689"
         inkscape:connector-curvature="0" />
    </g>
  </g>
</svg>
