<?xml version="1.0" encoding="UTF-8" standalone="no"?>
<!-- Created with Inkscape (http://www.inkscape.org/) -->

<svg
   xmlns:dc="http://purl.org/dc/elements/1.1/"
   xmlns:cc="http://creativecommons.org/ns#"
   xmlns:rdf="http://www.w3.org/1999/02/22-rdf-syntax-ns#"
   xmlns:svg="http://www.w3.org/2000/svg"
   xmlns="http://www.w3.org/2000/svg"
   xmlns:sodipodi="http://sodipodi.sourceforge.net/DTD/sodipodi-0.dtd"
   xmlns:inkscape="http://www.inkscape.org/namespaces/inkscape"
   width="50"
   height="50"
   viewBox="0 0 50 50.000001"
   id="svg2"
   version="1.1"
   inkscape:version="0.92.4 (5da689c313, 2019-01-14)"
   sodipodi:docname="DIN0887_Walzen.svg"
   inkscape:export-filename="P:\Files\Axialis\Library\Baldwin\Inkscape-png-export\DIN0021_Zuschalten.png"
   inkscape:export-xdpi="92.160004"
   inkscape:export-ydpi="92.160004">
  <defs
     id="defs4" />
  <sodipodi:namedview
     id="base"
     pagecolor="#ffffff"
     bordercolor="#666666"
     borderopacity="1.0"
     inkscape:pageopacity="0.0"
     inkscape:pageshadow="2"
     inkscape:zoom="9.7209677"
     inkscape:cx="17.982605"
     inkscape:cy="22.706194"
     inkscape:document-units="px"
     inkscape:current-layer="layer1"
     showgrid="true"
     units="px"
     showborder="true"
     borderlayer="false"
     inkscape:showpageshadow="true"
     inkscape:window-width="1920"
     inkscape:window-height="1017"
     inkscape:window-x="-8"
     inkscape:window-y="-8"
     inkscape:window-maximized="1">
    <inkscape:grid
       type="xygrid"
       id="grid13545" />
  </sodipodi:namedview>
  <metadata
     id="metadata7">
    <rdf:RDF>
      <cc:Work
         rdf:about="">
        <dc:format>image/svg+xml</dc:format>
        <dc:type
           rdf:resource="http://purl.org/dc/dcmitype/StillImage" />
        <dc:title></dc:title>
      </cc:Work>
    </rdf:RDF>
  </metadata>
  <g
     inkscape:label="Ebene 1"
     inkscape:groupmode="layer"
     id="layer1"
     transform="translate(0,-1002.3622)">
    <path
       style="color:#000000;font-style:normal;font-variant:normal;font-weight:normal;font-stretch:normal;font-size:medium;line-height:normal;font-family:sans-serif;font-variant-ligatures:normal;font-variant-position:normal;font-variant-caps:normal;font-variant-numeric:normal;font-variant-alternates:normal;font-feature-settings:normal;text-indent:0;text-align:start;text-decoration:none;text-decoration-line:none;text-decoration-style:solid;text-decoration-color:#000000;letter-spacing:normal;word-spacing:normal;text-transform:none;writing-mode:lr-tb;direction:ltr;text-orientation:mixed;dominant-baseline:auto;baseline-shift:baseline;text-anchor:start;white-space:normal;shape-padding:0;clip-rule:nonzero;display:inline;overflow:visible;visibility:visible;opacity:1;isolation:auto;mix-blend-mode:normal;color-interpolation:sRGB;color-interpolation-filters:linearRGB;solid-color:#000000;solid-opacity:1;vector-effect:none;fill:#000000;fill-opacity:1;fill-rule:nonzero;stroke:none;stroke-width:1.5;stroke-linecap:butt;stroke-linejoin:miter;stroke-miterlimit:4;stroke-dasharray:none;stroke-dashoffset:0;stroke-opacity:1;color-rendering:auto;image-rendering:auto;shape-rendering:auto;text-rendering:auto;enable-background:accumulate"
       d="m 25,3.5117188 c -5.925416,0 -10.744141,4.8187406 -10.744141,10.7441402 C 14.255859,20.181259 19.074584,25 25,25 30.925416,25 35.744141,20.181259 35.744141,14.255859 35.744141,8.3304594 30.925416,3.5117188 25,3.5117188 Z m 0,1.5 c 5.114756,0 9.244141,4.1293406 9.244141,9.2441402 0,5.1147 -4.129385,9.244141 -9.244141,9.244141 -5.114756,0 -9.244141,-4.129441 -9.244141,-9.244141 0,-5.1147996 4.129385,-9.2441402 9.244141,-9.2441402 z m 0,7.3281252 c -1.052313,0 -1.916016,0.863715 -1.916016,1.916015 0,1.0523 0.863703,1.916016 1.916016,1.916016 1.052313,0 1.916016,-0.863716 1.916016,-1.916016 0,-1.0523 -0.863703,-1.916015 -1.916016,-1.916015 z m 0,1 c 0.511873,0 0.916016,0.404115 0.916016,0.916015 0,0.5119 -0.404143,0.916016 -0.916016,0.916016 -0.511873,0 -0.916016,-0.404116 -0.916016,-0.916016 0,-0.5119 0.404143,-0.916015 0.916016,-0.916015 z"
       transform="translate(0,1002.3622)"
       id="path10084-9"
       inkscape:connector-curvature="0" />
    <path
       style="color:#000000;font-style:normal;font-variant:normal;font-weight:normal;font-stretch:normal;font-size:medium;line-height:normal;font-family:sans-serif;font-variant-ligatures:normal;font-variant-position:normal;font-variant-caps:normal;font-variant-numeric:normal;font-variant-alternates:normal;font-feature-settings:normal;text-indent:0;text-align:start;text-decoration:none;text-decoration-line:none;text-decoration-style:solid;text-decoration-color:#000000;letter-spacing:normal;word-spacing:normal;text-transform:none;writing-mode:lr-tb;direction:ltr;text-orientation:mixed;dominant-baseline:auto;baseline-shift:baseline;text-anchor:start;white-space:normal;shape-padding:0;clip-rule:nonzero;display:inline;overflow:visible;visibility:visible;opacity:1;isolation:auto;mix-blend-mode:normal;color-interpolation:sRGB;color-interpolation-filters:linearRGB;solid-color:#000000;solid-opacity:1;vector-effect:none;fill:#000000;fill-opacity:1;fill-rule:nonzero;stroke:none;stroke-width:1.5;stroke-linecap:butt;stroke-linejoin:miter;stroke-miterlimit:4;stroke-dasharray:none;stroke-dashoffset:0;stroke-opacity:1;color-rendering:auto;image-rendering:auto;shape-rendering:auto;text-rendering:auto;enable-background:accumulate"
       d="m 25,25 c -5.925416,0 -10.744141,4.820694 -10.744141,10.746094 0,5.9254 4.818725,10.74414 10.744141,10.74414 5.925416,0 10.744141,-4.81874 10.744141,-10.74414 C 35.744141,29.820694 30.925416,25 25,25 Z m 0,1.5 c 5.114756,0 9.244141,4.131394 9.244141,9.246094 0,5.1148 -4.129385,9.24414 -9.244141,9.24414 -5.114756,0 -9.244141,-4.12934 -9.244141,-9.24414 C 15.755859,30.631394 19.885244,26.5 25,26.5 Z m 0,7.330078 c -1.052313,0 -1.916016,0.863716 -1.916016,1.916016 0,1.0523 0.863703,1.916015 1.916016,1.916015 1.052313,0 1.916016,-0.863715 1.916016,-1.916015 0,-1.0523 -0.863703,-1.916016 -1.916016,-1.916016 z m 0,1 c 0.511873,0 0.916016,0.404116 0.916016,0.916016 0,0.5119 -0.404143,0.916015 -0.916016,0.916015 -0.511873,0 -0.916016,-0.404115 -0.916016,-0.916015 0,-0.5119 0.404143,-0.916016 0.916016,-0.916016 z"
       transform="translate(0,1002.3622)"
       id="path10084-9-3"
       inkscape:connector-curvature="0" />
  </g>
</svg>
