<?xml version="1.0" encoding="UTF-8" standalone="no"?>
<!-- Created with Inkscape (http://www.inkscape.org/) -->

<svg
   xmlns:dc="http://purl.org/dc/elements/1.1/"
   xmlns:cc="http://creativecommons.org/ns#"
   xmlns:rdf="http://www.w3.org/1999/02/22-rdf-syntax-ns#"
   xmlns:svg="http://www.w3.org/2000/svg"
   xmlns="http://www.w3.org/2000/svg"
   xmlns:sodipodi="http://sodipodi.sourceforge.net/DTD/sodipodi-0.dtd"
   xmlns:inkscape="http://www.inkscape.org/namespaces/inkscape"
   width="50"
   height="50"
   viewBox="0 0 50 50.000001"
   id="svg2"
   version="1.1"
   inkscape:version="0.92.4 (5da689c313, 2019-01-14)"
   sodipodi:docname="DIN0714_Wasserpumpe.svg"
   inkscape:export-filename="P:\Files\Axialis\Library\Baldwin\Inkscape-png-export\DIN0714_Wasserpumpe.png"
   inkscape:export-xdpi="92.160004"
   inkscape:export-ydpi="92.160004">
  <defs
     id="defs4" />
  <sodipodi:namedview
     id="base"
     pagecolor="#ffffff"
     bordercolor="#666666"
     borderopacity="1.0"
     inkscape:pageopacity="0.0"
     inkscape:pageshadow="2"
     inkscape:zoom="9.7209677"
     inkscape:cx="-4.4945811"
     inkscape:cy="22.706194"
     inkscape:document-units="px"
     inkscape:current-layer="layer1"
     showgrid="true"
     units="px"
     showborder="true"
     borderlayer="false"
     inkscape:showpageshadow="true"
     inkscape:window-width="2560"
     inkscape:window-height="1377"
     inkscape:window-x="-8"
     inkscape:window-y="-8"
     inkscape:window-maximized="1">
    <inkscape:grid
       type="xygrid"
       id="grid10233" />
  </sodipodi:namedview>
  <metadata
     id="metadata7">
    <rdf:RDF>
      <cc:Work
         rdf:about="">
        <dc:format>image/svg+xml</dc:format>
        <dc:type
           rdf:resource="http://purl.org/dc/dcmitype/StillImage" />
        <dc:title />
      </cc:Work>
    </rdf:RDF>
  </metadata>
  <g
     inkscape:label="Ebene 1"
     inkscape:groupmode="layer"
     id="layer1"
     transform="translate(0,-1002.3622)">
    <path
       style="color:#000000;font-style:normal;font-variant:normal;font-weight:normal;font-stretch:normal;font-size:medium;line-height:normal;font-family:sans-serif;font-variant-ligatures:normal;font-variant-position:normal;font-variant-caps:normal;font-variant-numeric:normal;font-variant-alternates:normal;font-feature-settings:normal;text-indent:0;text-align:start;text-decoration:none;text-decoration-line:none;text-decoration-style:solid;text-decoration-color:#000000;letter-spacing:normal;word-spacing:normal;text-transform:none;writing-mode:lr-tb;direction:ltr;text-orientation:mixed;dominant-baseline:auto;baseline-shift:baseline;text-anchor:start;white-space:normal;shape-padding:0;clip-rule:nonzero;display:inline;overflow:visible;visibility:visible;opacity:1;isolation:auto;mix-blend-mode:normal;color-interpolation:sRGB;color-interpolation-filters:linearRGB;solid-color:#000000;solid-opacity:1;vector-effect:none;fill:#000000;fill-opacity:1;fill-rule:nonzero;stroke:none;stroke-width:1.5;stroke-linecap:butt;stroke-linejoin:miter;stroke-miterlimit:4;stroke-dasharray:none;stroke-dashoffset:0;stroke-opacity:1;color-rendering:auto;image-rendering:auto;shape-rendering:auto;text-rendering:auto;enable-background:accumulate"
       d="M 25,9.2558594 C 16.31316,9.2558594 9.2558594,16.3132 9.2558594,25 9.2558594,33.6869 16.31316,40.746094 25,40.746094 33.68684,40.746094 40.744141,33.6869 40.744141,25 40.744141,16.3132 33.68684,9.2558594 25,9.2558594 Z M 24.115234,10.798828 10.890625,23.144531 C 11.761913,16.437657 17.27522,11.218974 24.115234,10.798828 Z m 1.769532,0 c 6.840014,0.420146 12.353321,5.638829 13.224609,12.345703 z M 25,12.027344 39.228516,25.306641 C 39.064027,33.039306 32.772581,39.246094 25,39.246094 c -7.772581,0 -14.064027,-6.206788 -14.228516,-13.939453 z"
       transform="translate(0,1002.3622)"
       id="path3336"
       inkscape:connector-curvature="0" />
    <path
       style="color:#000000;font-style:normal;font-variant:normal;font-weight:normal;font-stretch:normal;font-size:medium;line-height:normal;font-family:sans-serif;font-variant-ligatures:normal;font-variant-position:normal;font-variant-caps:normal;font-variant-numeric:normal;font-variant-alternates:normal;font-feature-settings:normal;text-indent:0;text-align:start;text-decoration:none;text-decoration-line:none;text-decoration-style:solid;text-decoration-color:#000000;letter-spacing:normal;word-spacing:normal;text-transform:none;writing-mode:lr-tb;direction:ltr;text-orientation:mixed;dominant-baseline:auto;baseline-shift:baseline;text-anchor:start;white-space:normal;shape-padding:0;clip-rule:nonzero;display:inline;overflow:visible;visibility:visible;opacity:1;isolation:auto;mix-blend-mode:normal;color-interpolation:sRGB;color-interpolation-filters:linearRGB;solid-color:#000000;solid-opacity:1;vector-effect:none;fill:#000000;fill-opacity:1;fill-rule:nonzero;stroke:none;stroke-width:1.5;stroke-linecap:butt;stroke-linejoin:miter;stroke-miterlimit:4;stroke-dasharray:none;stroke-dashoffset:0;stroke-opacity:1;color-rendering:auto;image-rendering:auto;shape-rendering:auto;text-rendering:auto;enable-background:accumulate"
       d="m 17.207031,22.875 c 0,6.56e-4 0,0.0013 0,0.002 0,1.2521 -0.838238,2.338503 -2.048828,2.658203 l 0.382813,1.451172 c 1.012862,-0.267432 1.849519,-0.898384 2.412109,-1.720703 0.353843,0.519037 0.817191,0.96666 1.378906,1.291016 1.313909,0.7586 2.93604,0.7585 4.25,0 0.560404,-0.323543 1.021465,-0.770077 1.375,-1.28711 0.353489,0.517101 0.814905,0.963689 1.375,1.28711 1.313909,0.7586 2.93604,0.7585 4.25,0 0.562825,-0.324941 1.026799,-0.773043 1.38086,-1.292969 0.588024,0.858715 1.474199,1.508205 2.542968,1.753906 l 0.335938,-1.460937 C 33.588831,25.268588 32.706945,24.1626 32.707031,22.877 l -1.5,-0.002 c 0,0 0,0.002 0,0.002 0,0.9837 -0.523075,1.889059 -1.375,2.380859 -0.851924,0.4919 -1.898108,0.4919 -2.75,0 C 26.23014,24.76596 25.706965,23.8607 25.707031,22.877 l -1.5,-0.002 c 0,6.56e-4 0,0.0013 0,0.002 0,0.9837 -0.523075,1.889059 -1.375,2.380859 -0.851924,0.4919 -1.898108,0.4919 -2.75,0 C 19.23014,24.76596 18.706965,23.8607 18.707031,22.877 Z"
       transform="translate(0,1002.3622)"
       id="path7367"
       inkscape:connector-curvature="0" />
  </g>
</svg>
