<?xml version="1.0" encoding="UTF-8" standalone="no"?>
<!-- Created with Inkscape (http://www.inkscape.org/) -->

<svg
   xmlns:dc="http://purl.org/dc/elements/1.1/"
   xmlns:cc="http://creativecommons.org/ns#"
   xmlns:rdf="http://www.w3.org/1999/02/22-rdf-syntax-ns#"
   xmlns:svg="http://www.w3.org/2000/svg"
   xmlns="http://www.w3.org/2000/svg"
   xmlns:sodipodi="http://sodipodi.sourceforge.net/DTD/sodipodi-0.dtd"
   xmlns:inkscape="http://www.inkscape.org/namespaces/inkscape"
   width="50"
   height="50"
   viewBox="0 0 50 50.000001"
   id="svg2"
   version="1.1"
   inkscape:version="0.92.4 (5da689c313, 2019-01-14)"
   sodipodi:docname="DIN1429_Schaummittel.svg"
   inkscape:export-filename="P:\Files\Axialis\Library\Baldwin\Inkscape-png-export\DIN0276_Dampf_Energie.png"
   inkscape:export-xdpi="92.160004"
   inkscape:export-ydpi="92.160004">
  <defs
     id="defs4" />
  <sodipodi:namedview
     id="base"
     pagecolor="#ffffff"
     bordercolor="#666666"
     borderopacity="1.0"
     inkscape:pageopacity="0.0"
     inkscape:pageshadow="2"
     inkscape:zoom="13.747524"
     inkscape:cx="21.718375"
     inkscape:cy="23.707964"
     inkscape:document-units="px"
     inkscape:current-layer="layer1"
     showgrid="true"
     units="px"
     showborder="true"
     borderlayer="false"
     inkscape:showpageshadow="true"
     inkscape:window-width="2107"
     inkscape:window-height="1207"
     inkscape:window-x="262"
     inkscape:window-y="78"
     inkscape:window-maximized="0">
    <inkscape:grid
       type="xygrid"
       id="grid10233" />
  </sodipodi:namedview>
  <metadata
     id="metadata7">
    <rdf:RDF>
      <cc:Work
         rdf:about="">
        <dc:format>image/svg+xml</dc:format>
        <dc:type
           rdf:resource="http://purl.org/dc/dcmitype/StillImage" />
        <dc:title></dc:title>
      </cc:Work>
    </rdf:RDF>
  </metadata>
  <g
     inkscape:label="Ebene 1"
     inkscape:groupmode="layer"
     id="layer1"
     transform="translate(0,-1002.3622)">
    <path
       style="color:#000000;font-style:normal;font-variant:normal;font-weight:normal;font-stretch:normal;font-size:medium;line-height:normal;font-family:sans-serif;font-variant-ligatures:normal;font-variant-position:normal;font-variant-caps:normal;font-variant-numeric:normal;font-variant-alternates:normal;font-feature-settings:normal;text-indent:0;text-align:start;text-decoration:none;text-decoration-line:none;text-decoration-style:solid;text-decoration-color:#000000;letter-spacing:normal;word-spacing:normal;text-transform:none;writing-mode:lr-tb;direction:ltr;text-orientation:mixed;dominant-baseline:auto;baseline-shift:baseline;text-anchor:start;white-space:normal;shape-padding:0;clip-rule:nonzero;display:inline;overflow:visible;visibility:visible;opacity:1;isolation:auto;mix-blend-mode:normal;color-interpolation:sRGB;color-interpolation-filters:linearRGB;solid-color:#000000;solid-opacity:1;vector-effect:none;fill:#000000;fill-opacity:1;fill-rule:nonzero;stroke:none;stroke-width:1.5;stroke-linecap:butt;stroke-linejoin:miter;stroke-miterlimit:4;stroke-dasharray:none;stroke-dashoffset:0;stroke-opacity:1;paint-order:normal;color-rendering:auto;image-rendering:auto;shape-rendering:auto;text-rendering:auto;enable-background:accumulate"
       d="m 35.75,22.080078 -1.5,0.002 c 0,2.3411 -1.871832,4.2292 -4.212891,4.25 -2.341058,0.021 -4.245602,-1.834981 -4.287109,-4.175781 l -0.75,0.01172 -0.75,0.002 c 0,2.3412 -1.871832,4.2293 -4.212891,4.25 -2.341058,0.021 -4.245602,-1.833028 -4.287109,-4.173828 h -0.0059 c 6.34e-4,-0.0218 0.0055,-0.0426 0.0059,-0.06445 l -1.5,-0.02539 c -0.03452,1.897865 -1.314786,3.537967 -3.148438,4.029297 l 0.386719,1.447265 c 1.508087,-0.404089 2.736723,-1.393691 3.482422,-2.68164 0.992371,1.783842 2.904756,2.986082 5.080078,2.966797 2.137654,-0.01902 3.999318,-1.214413 4.97461,-2.964844 1.006259,1.733267 2.887551,2.895906 5.02539,2.876953 2.120468,-0.01887 3.967645,-1.196385 4.949219,-2.923828 0.742691,1.310789 1.985473,2.317607 3.511719,2.726562 l 0.386719,-1.447265 C 37.064786,25.694217 35.784518,24.054115 35.75,22.15625 h -0.0039 c 3.38e-4,-0.02558 0.0039,-0.05052 0.0039,-0.07617 z"
       transform="translate(0,1002.3622)"
       id="path839"
       inkscape:connector-curvature="0" />
    <path
       style="color:#000000;font-style:normal;font-variant:normal;font-weight:normal;font-stretch:normal;font-size:medium;line-height:normal;font-family:sans-serif;font-variant-ligatures:normal;font-variant-position:normal;font-variant-caps:normal;font-variant-numeric:normal;font-variant-alternates:normal;font-feature-settings:normal;text-indent:0;text-align:start;text-decoration:none;text-decoration-line:none;text-decoration-style:solid;text-decoration-color:#000000;letter-spacing:normal;word-spacing:normal;text-transform:none;writing-mode:lr-tb;direction:ltr;text-orientation:mixed;dominant-baseline:auto;baseline-shift:baseline;text-anchor:start;white-space:normal;shape-padding:0;clip-rule:nonzero;display:inline;overflow:visible;visibility:visible;opacity:1;isolation:auto;mix-blend-mode:normal;color-interpolation:sRGB;color-interpolation-filters:linearRGB;solid-color:#000000;solid-opacity:1;vector-effect:none;fill:#000000;fill-opacity:1;fill-rule:nonzero;stroke:none;stroke-width:1.50047243;stroke-linecap:butt;stroke-linejoin:miter;stroke-miterlimit:4;stroke-dasharray:none;stroke-dashoffset:1.5;stroke-opacity:1;paint-order:normal;color-rendering:auto;image-rendering:auto;shape-rendering:auto;text-rendering:auto;enable-background:accumulate"
       d="m 20,1020.5039 c -2.062312,0 -3.75,1.6877 -3.75,3.75 0,2.0623 1.687688,3.75 3.75,3.75 2.062312,0 3.75,-1.6877 3.75,-3.75 0,-2.0623 -1.687688,-3.75 -3.75,-3.75 z m 0,1.5 c 1.251397,0 2.25,0.9986 2.25,2.25 0,1.2514 -0.998603,2.25 -2.25,2.25 -1.251397,0 -2.25,-0.9986 -2.25,-2.25 0,-1.2514 0.998603,-2.25 2.25,-2.25 z"
       id="path850"
       inkscape:connector-curvature="0" />
    <path
       style="color:#000000;font-style:normal;font-variant:normal;font-weight:normal;font-stretch:normal;font-size:medium;line-height:normal;font-family:sans-serif;font-variant-ligatures:normal;font-variant-position:normal;font-variant-caps:normal;font-variant-numeric:normal;font-variant-alternates:normal;font-feature-settings:normal;text-indent:0;text-align:start;text-decoration:none;text-decoration-line:none;text-decoration-style:solid;text-decoration-color:#000000;letter-spacing:normal;word-spacing:normal;text-transform:none;writing-mode:lr-tb;direction:ltr;text-orientation:mixed;dominant-baseline:auto;baseline-shift:baseline;text-anchor:start;white-space:normal;shape-padding:0;clip-rule:nonzero;display:inline;overflow:visible;visibility:visible;opacity:1;isolation:auto;mix-blend-mode:normal;color-interpolation:sRGB;color-interpolation-filters:linearRGB;solid-color:#000000;solid-opacity:1;vector-effect:none;fill:#000000;fill-opacity:1;fill-rule:nonzero;stroke:none;stroke-width:1.50047243;stroke-linecap:butt;stroke-linejoin:miter;stroke-miterlimit:4;stroke-dasharray:none;stroke-dashoffset:1.5;stroke-opacity:1;paint-order:normal;color-rendering:auto;image-rendering:auto;shape-rendering:auto;text-rendering:auto;enable-background:accumulate"
       d="m 30,1020.5039 c -2.062312,0 -3.75,1.6877 -3.75,3.75 0,2.0623 1.687688,3.75 3.75,3.75 2.062312,0 3.75,-1.6877 3.75,-3.75 0,-2.0623 -1.687688,-3.75 -3.75,-3.75 z m 0,1.5 c 1.251397,0 2.25,0.9986 2.25,2.25 0,1.2514 -0.998603,2.25 -2.25,2.25 -1.251397,0 -2.25,-0.9986 -2.25,-2.25 0,-1.2514 0.998603,-2.25 2.25,-2.25 z"
       id="path850-5"
       inkscape:connector-curvature="0" />
  </g>
</svg>
