<?xml version="1.0" encoding="UTF-8" standalone="no"?>
<!-- Created with Inkscape (http://www.inkscape.org/) -->

<svg
   xmlns:dc="http://purl.org/dc/elements/1.1/"
   xmlns:cc="http://creativecommons.org/ns#"
   xmlns:rdf="http://www.w3.org/1999/02/22-rdf-syntax-ns#"
   xmlns:svg="http://www.w3.org/2000/svg"
   xmlns="http://www.w3.org/2000/svg"
   xmlns:sodipodi="http://sodipodi.sourceforge.net/DTD/sodipodi-0.dtd"
   xmlns:inkscape="http://www.inkscape.org/namespaces/inkscape"
   width="50"
   height="50"
   viewBox="0 0 50 50.000001"
   id="svg2"
   version="1.1"
   inkscape:version="0.92.4 (5da689c313, 2019-01-14)"
   sodipodi:docname="DIN1287E_Fluessig_sichern_Kleben_Dichten.svg"
   inkscape:export-filename="P:\Files\Axialis\Library\Baldwin\Inkscape-png-export\DIN0168_Drehen_Umdrehung_Drehzahl_Gantrydrehung.png"
   inkscape:export-xdpi="92.160004"
   inkscape:export-ydpi="92.160004">
  <defs
     id="defs4" />
  <sodipodi:namedview
     id="base"
     pagecolor="#ffffff"
     bordercolor="#666666"
     borderopacity="1.0"
     inkscape:pageopacity="0.0"
     inkscape:pageshadow="2"
     inkscape:zoom="13.747524"
     inkscape:cx="17.63929"
     inkscape:cy="23.995857"
     inkscape:document-units="px"
     inkscape:current-layer="layer1"
     showgrid="true"
     units="px"
     showborder="true"
     borderlayer="false"
     inkscape:showpageshadow="true"
     inkscape:window-width="2560"
     inkscape:window-height="1377"
     inkscape:window-x="-8"
     inkscape:window-y="-8"
     inkscape:window-maximized="1"
     inkscape:snap-grids="false"
     inkscape:snap-to-guides="false"
     inkscape:snap-others="false"
     inkscape:snap-nodes="false"
     inkscape:snap-global="true">
    <inkscape:grid
       type="xygrid"
       id="grid5038"
       empspacing="5" />
  </sodipodi:namedview>
  <metadata
     id="metadata7">
    <rdf:RDF>
      <cc:Work
         rdf:about="">
        <dc:format>image/svg+xml</dc:format>
        <dc:type
           rdf:resource="http://purl.org/dc/dcmitype/StillImage" />
        <dc:title />
      </cc:Work>
    </rdf:RDF>
  </metadata>
  <g
     inkscape:label="Ebene 1"
     inkscape:groupmode="layer"
     id="layer1"
     transform="translate(0,-1002.3622)">
    <path
       style="fill:#000000;fill-opacity:1;stroke:none;stroke-width:1px;stroke-linecap:butt;stroke-linejoin:miter;stroke-opacity:1"
       d="m 31.458984,8.5722656 -0.226562,0.4355469 -0.94336,1.8164065 c -0.134509,0.2592 -0.08577,0.55994 -0.0059,0.74414 0.07999,0.1842 0.17942,0.313228 0.259766,0.423829 0.07113,0.098 0.116503,0.167484 0.138672,0.208984 l -6.154297,12.472656 c -0.295258,0.5984 -0.254854,1.291256 -0.04492,1.910156 0.162243,0.478318 0.435497,0.925427 0.826172,1.242188 l -0.646485,1.880859 1.203125,0.59375 c -0.642207,0.758767 -1.393368,2.783193 -2.46289,2.777344 l -9.386719,-0.05273 c -0.954174,-0.01 -1.947751,0.676787 -2.443359,1.492187 -0.383852,0.6315 -0.286138,1.483738 -0.154297,2.210938 0.232735,1.2836 0.998963,2.367187 2.005859,2.367187 H 22.375 c 2.974815,0 5.913893,-5.767302 6.068359,-7.523437 l 1.042969,0.515625 1.105469,-1.664063 c 0.469653,0.09974 0.966515,0.03984 1.423828,-0.115234 0.613969,-0.2082 1.185258,-0.595153 1.478516,-1.189453 l 6.167968,-12.501953 c 0.04916,-0.01 0.152919,-0.02044 0.289063,-0.02344 0.145356,0 0.315838,2.62e-4 0.517578,-0.05273 0.20174,-0.05 0.47357,-0.191785 0.605469,-0.458985 l 1.097656,-2.224609 z m 0.4375,1.3300782 8.935547,4.4101562 -0.621093,1.259766 c -0.04923,0.01 -0.152853,0.01848 -0.289063,0.02148 -0.145428,0 -0.317712,-2.62e-4 -0.519531,0.05273 -0.201819,0.05 -0.47176,0.191685 -0.603516,0.458985 l -6.201172,12.568359 c -0.127873,0.2592 -0.48308,0.543347 -0.902344,0.685547 -0.419263,0.1422 -0.87368,0.135418 -1.132812,0.01172 l -4.439453,-2.191406 c -0.263193,-0.1298 -0.549476,-0.489863 -0.693359,-0.914063 -0.143886,-0.4241 -0.13568,-0.883284 -0.0059,-1.146484 l 6.195313,-12.550782 c 0.129113,-0.2617 0.07494,-0.557434 -0.0059,-0.740234 -0.08072,-0.1827 -0.179797,-0.309722 -0.259765,-0.419922 -0.0687,-0.095 -0.110482,-0.160272 -0.132813,-0.201172 z m -5.701172,18.4238282 3.455079,1.705078 -0.509766,0.769531 -3.246094,-1.601562 z"
       transform="translate(0,1002.3622)"
       id="path10270"
       inkscape:connector-curvature="0" />
  </g>
</svg>
