<?xml version="1.0" encoding="UTF-8" standalone="no"?>
<!-- Created with Inkscape (http://www.inkscape.org/) -->

<svg
   xmlns:dc="http://purl.org/dc/elements/1.1/"
   xmlns:cc="http://creativecommons.org/ns#"
   xmlns:rdf="http://www.w3.org/1999/02/22-rdf-syntax-ns#"
   xmlns:svg="http://www.w3.org/2000/svg"
   xmlns="http://www.w3.org/2000/svg"
   xmlns:sodipodi="http://sodipodi.sourceforge.net/DTD/sodipodi-0.dtd"
   xmlns:inkscape="http://www.inkscape.org/namespaces/inkscape"
   width="50"
   height="50"
   viewBox="0 0 50 50.000001"
   id="svg2"
   version="1.1"
   inkscape:version="0.92.4 (5da689c313, 2019-01-14)"
   sodipodi:docname="DIN1110_Vorgewaehlte_Drehzahl_loeschen.svg"
   inkscape:export-filename="P:\Files\Axialis\Library\Baldwin\Inkscape-png-export\DIN0168_Drehen_Umdrehung_Drehzahl_Gantrydrehung.png"
   inkscape:export-xdpi="92.160004"
   inkscape:export-ydpi="92.160004">
  <defs
     id="defs4" />
  <sodipodi:namedview
     id="base"
     pagecolor="#ffffff"
     bordercolor="#666666"
     borderopacity="1.0"
     inkscape:pageopacity="0.0"
     inkscape:pageshadow="2"
     inkscape:zoom="9.7209677"
     inkscape:cx="-26.971767"
     inkscape:cy="27.438234"
     inkscape:document-units="px"
     inkscape:current-layer="layer1"
     showgrid="true"
     units="px"
     showborder="true"
     borderlayer="false"
     inkscape:showpageshadow="true"
     inkscape:window-width="2560"
     inkscape:window-height="1377"
     inkscape:window-x="-8"
     inkscape:window-y="-8"
     inkscape:window-maximized="1"
     inkscape:snap-grids="false"
     inkscape:snap-to-guides="false"
     inkscape:snap-others="false"
     inkscape:snap-nodes="false"
     inkscape:snap-global="false">
    <inkscape:grid
       type="xygrid"
       id="grid5038"
       empspacing="5" />
  </sodipodi:namedview>
  <metadata
     id="metadata7">
    <rdf:RDF>
      <cc:Work
         rdf:about="">
        <dc:format>image/svg+xml</dc:format>
        <dc:type
           rdf:resource="http://purl.org/dc/dcmitype/StillImage" />
        <dc:title />
      </cc:Work>
    </rdf:RDF>
  </metadata>
  <g
     inkscape:label="Ebene 1"
     inkscape:groupmode="layer"
     id="layer1"
     transform="translate(0,-1002.3622)">
    <path
       style="color:#000000;font-style:normal;font-variant:normal;font-weight:normal;font-stretch:normal;font-size:medium;line-height:normal;font-family:sans-serif;font-variant-ligatures:normal;font-variant-position:normal;font-variant-caps:normal;font-variant-numeric:normal;font-variant-alternates:normal;font-feature-settings:normal;text-indent:0;text-align:start;text-decoration:none;text-decoration-line:none;text-decoration-style:solid;text-decoration-color:#000000;letter-spacing:normal;word-spacing:normal;text-transform:none;writing-mode:lr-tb;direction:ltr;text-orientation:mixed;dominant-baseline:auto;baseline-shift:baseline;text-anchor:start;white-space:normal;shape-padding:0;clip-rule:nonzero;display:inline;overflow:visible;visibility:visible;opacity:1;isolation:auto;mix-blend-mode:normal;color-interpolation:sRGB;color-interpolation-filters:linearRGB;solid-color:#000000;solid-opacity:1;vector-effect:none;fill:#000000;fill-opacity:1;fill-rule:evenodd;stroke:none;stroke-width:1.5;stroke-linecap:butt;stroke-linejoin:miter;stroke-miterlimit:4;stroke-dasharray:none;stroke-dashoffset:0;stroke-opacity:1;color-rendering:auto;image-rendering:auto;shape-rendering:auto;text-rendering:auto;enable-background:accumulate"
       d="m 24.574219,9.2636719 c -2.538269,0.065027 -5.096503,0.7443441 -7.447266,2.1015621 -0.07213,0.04165 -0.135807,0.09215 -0.207031,0.134766 l -1.275391,-1.9296875 -1.251953,0.8281255 1.275391,1.927734 c -1.6091,1.18266 -2.933103,2.631529 -3.955078,4.248047 l -5.6308598,3.25 0.75,1.298828 3.6191408,-2.087891 c -1.7809427,4.355421 -1.6171926,9.453619 0.914062,13.837891 1.117996,1.936404 2.591489,3.539163 4.285157,4.787109 l -1.359375,2.050782 1.25,0.828124 1.357422,-2.046874 c 4.74611,2.841092 10.850573,3.102905 15.974609,0.144531 0.0454,-0.02621 0.08582,-0.05739 0.130859,-0.08398 l 1.244141,1.882813 1.25,-0.826172 -1.238281,-1.875 c 6.437362,-4.67254 8.438957,-13.566472 4.375,-20.605469 -1.133538,-1.963348 -2.633899,-3.580816 -4.357422,-4.835937 l 1.324218,-1.996094 -1.25,-0.8300781 -1.326171,2.0000001 C 30.47435,9.9592582 27.538976,9.1877188 24.574219,9.2636719 Z m 0.04492,1.4921871 c 2.658118,-0.07001 5.285943,0.617509 7.578125,1.958985 l -7.25,10.929687 L 17.746094,12.75 c 0.04507,-0.02667 0.08539,-0.05774 0.130859,-0.08398 2.131374,-1.230563 4.446426,-1.84969 6.742188,-1.910157 z m 8.833984,2.78125 c 1.533481,1.130871 2.868119,2.584295 3.882813,4.341797 3.673445,6.362597 1.886846,14.357803 -3.90625,18.59961 l -7.583985,-11.47461 z m -16.957031,0.04492 7.550781,11.421875 -7.570313,11.41211 c -1.50444,-1.123594 -2.813038,-2.56185 -3.8125,-4.292969 -2.29484,-3.974783 -2.447114,-8.582637 -0.835937,-12.519531 l -0.04297,4.185546 1.5,0.01563 0.07031,-6.990235 c 0.853111,-1.213829 1.900005,-2.311264 3.140625,-3.232422 z m 8.449218,12.779297 7.230469,10.939453 c -0.01846,0.01077 -0.0342,0.02446 -0.05273,0.03516 -4.626031,2.670868 -10.113611,2.451885 -14.396485,-0.08984 z"
       transform="translate(0,1002.3622)"
       id="path4513"
       inkscape:connector-curvature="0" />
  </g>
</svg>
