<?xml version="1.0" encoding="UTF-8" standalone="no"?>
<!-- Created with Inkscape (http://www.inkscape.org/) -->

<svg
   xmlns:dc="http://purl.org/dc/elements/1.1/"
   xmlns:cc="http://creativecommons.org/ns#"
   xmlns:rdf="http://www.w3.org/1999/02/22-rdf-syntax-ns#"
   xmlns:svg="http://www.w3.org/2000/svg"
   xmlns="http://www.w3.org/2000/svg"
   xmlns:sodipodi="http://sodipodi.sourceforge.net/DTD/sodipodi-0.dtd"
   xmlns:inkscape="http://www.inkscape.org/namespaces/inkscape"
   width="50"
   height="50"
   viewBox="0 0 50 50.000001"
   id="svg2"
   version="1.1"
   inkscape:version="0.92.4 (5da689c313, 2019-01-14)"
   sodipodi:docname="DIN1155_Unterbrochene_Drehbewegung_in_Produktionsrichtung.svg"
   inkscape:export-filename="P:\DIN.png"
   inkscape:export-xdpi="96"
   inkscape:export-ydpi="96">
  <defs
     id="defs4" />
  <sodipodi:namedview
     id="base"
     pagecolor="#ffffff"
     bordercolor="#666666"
     borderopacity="1.0"
     inkscape:pageopacity="0.0"
     inkscape:pageshadow="2"
     inkscape:zoom="13.747524"
     inkscape:cx="-11.32931"
     inkscape:cy="18.382409"
     inkscape:document-units="px"
     inkscape:current-layer="layer1"
     showgrid="true"
     units="px"
     showborder="true"
     borderlayer="false"
     inkscape:showpageshadow="true"
     inkscape:window-width="2560"
     inkscape:window-height="1377"
     inkscape:window-x="-8"
     inkscape:window-y="-8"
     inkscape:window-maximized="1"
     inkscape:snap-grids="false"
     inkscape:snap-to-guides="false"
     inkscape:snap-others="false"
     inkscape:snap-nodes="false"
     inkscape:snap-global="false">
    <inkscape:grid
       type="xygrid"
       id="grid5038"
       empspacing="5" />
  </sodipodi:namedview>
  <metadata
     id="metadata7">
    <rdf:RDF>
      <cc:Work
         rdf:about="">
        <dc:format>image/svg+xml</dc:format>
        <dc:type
           rdf:resource="http://purl.org/dc/dcmitype/StillImage" />
        <dc:title></dc:title>
      </cc:Work>
    </rdf:RDF>
  </metadata>
  <g
     inkscape:label="Ebene 1"
     inkscape:groupmode="layer"
     id="layer1"
     transform="translate(0,-1002.3622)">
    <path
       style="color:#000000;font-style:normal;font-variant:normal;font-weight:normal;font-stretch:normal;font-size:medium;line-height:normal;font-family:sans-serif;font-variant-ligatures:normal;font-variant-position:normal;font-variant-caps:normal;font-variant-numeric:normal;font-variant-alternates:normal;font-feature-settings:normal;text-indent:0;text-align:start;text-decoration:none;text-decoration-line:none;text-decoration-style:solid;text-decoration-color:#000000;letter-spacing:normal;word-spacing:normal;text-transform:none;writing-mode:lr-tb;direction:ltr;text-orientation:mixed;dominant-baseline:auto;baseline-shift:baseline;text-anchor:start;white-space:normal;shape-padding:0;clip-rule:nonzero;display:inline;overflow:visible;visibility:visible;opacity:1;isolation:auto;mix-blend-mode:normal;color-interpolation:sRGB;color-interpolation-filters:linearRGB;solid-color:#000000;solid-opacity:1;vector-effect:none;fill:#000000;fill-opacity:1;fill-rule:evenodd;stroke:none;stroke-width:1.5;stroke-linecap:butt;stroke-linejoin:miter;stroke-miterlimit:4;stroke-dasharray:none;stroke-dashoffset:0;stroke-opacity:1;color-rendering:auto;image-rendering:auto;shape-rendering:auto;text-rendering:auto;enable-background:accumulate"
       d="m 24.96875,7.0585938 -1.261719,0.052734 h -0.03125 -0.03125 l -1.236328,0.15625 h -0.03125 l -0.03125,0.011719 -1.207031,0.2558593 -0.0293,0.00977 -0.03125,0.00977 -0.957031,0.2871094 0.429687,1.4375 0.927735,-0.2773438 1.117187,-0.2382812 h 0.01367 L 23.816406,8.6113281 25,8.5625 l 1.183594,0.048828 1.207031,0.1523438 h 0.01367 l 1.119141,0.2382812 0.458984,0.1367188 0.429687,-1.4375 -0.490234,-0.1464844 -0.03125,-0.00977 -0.0293,-0.00977 -1.207031,-0.2558593 -0.03125,-0.011719 h -0.03125 l -1.236328,-0.15625 h -0.03125 -0.03125 L 25.03125,7.0585938 H 25 Z m 12.191406,5.7597652 -1.132812,0.982422 0.09766,0.113281 0.691406,0.941407 0.601563,0.976562 0.521484,1.021485 0.002,0.0098 0.466797,1.142578 0.002,0.0098 0.34961,1.121094 0.257812,1.15625 0.164063,1.179687 0.0039,0.0957 1.498047,-0.09375 -0.0059,-0.125 -0.002,-0.0293 -0.0039,-0.03125 -0.169922,-1.236328 -0.0039,-0.03125 -0.0078,-0.0293 -0.27539,-1.232422 -0.0078,-0.03125 -0.0078,-0.02734 -0.378907,-1.205078 -0.0078,-0.0293 -0.01172,-0.0293 -0.470703,-1.154297 -0.01172,-0.0293 -0.01563,-0.02734 -0.558593,-1.101562 -0.01367,-0.02734 -0.01563,-0.02344 -0.642578,-1.042969 -0.01758,-0.02539 -0.01758,-0.02539 L 37.316406,13 l -0.01758,-0.02344 -0.01953,-0.02148 z m -24.658203,0.419922 -0.539062,0.732422 -0.01758,0.02539 -0.01758,0.02539 -0.642578,1.042969 -0.01563,0.02539 -0.01367,0.02734 -0.558593,1.101562 -0.01367,0.02539 -0.01367,0.0293 -0.470703,1.154296 -0.01172,0.0293 -0.0078,0.0293 -0.3789068,1.205078 -0.00781,0.0293 -0.00781,0.03125 -0.2753906,1.232422 -0.00781,0.02734 -0.00391,0.03125 -0.1699219,1.236328 -0.00391,0.03125 -0.00195,0.0293 -0.03125,0.613281 1.4980463,0.08008 0.0293,-0.572265 0.16211,-1.181641 0.265625,-1.177735 0.353515,-1.125 0.458985,-1.123046 0.002,-0.01172 0.521484,-1.021485 0.601563,-0.976562 0.527344,-0.716797 z m 22.044922,16.458985 -4.164063,7.048828 h 8.41211 v -1.5 h -4.167969 l 0.382813,-0.289063 0.02539,-0.02148 0.02344,-0.02148 0.917968,-0.824218 0.02148,-0.02148 0.02148,-0.02148 0.839844,-0.890625 0.02148,-0.02148 0.01953,-0.02344 0.759765,-0.951172 0.01953,-0.02344 0.01758,-0.02539 0.677734,-1.003906 0.01758,-0.02344 0.01367,-0.02539 0.291016,-0.517578 -1.306641,-0.736328 -0.275391,0.488281 -0.652343,0.964843 -0.716797,0.896485 -0.789063,0.835937 -0.886719,0.796875 -0.355468,0.269532 2.123047,-3.595703 z m -21.697266,0.533203 -1.30664,0.736328 0.05078,0.0918 0.01367,0.02539 0.01758,0.02539 0.677734,1.001953 0.01758,0.02539 0.01953,0.02344 0.759765,0.951172 0.01953,0.02344 0.02148,0.02148 0.839844,0.890625 0.02148,0.02148 0.02149,0.02148 0.917968,0.824218 0.02344,0.02148 0.02539,0.02148 0.994141,0.751953 0.02344,0.01758 0.02734,0.01953 1.066406,0.675781 0.802735,-1.265625 -1.027344,-0.652344 -0.947265,-0.716797 -0.886719,-0.796875 -0.789063,-0.835937 -0.716797,-0.896485 -0.652343,-0.964843 z"
       transform="translate(0,1002.3622)"
       id="path4513"
       inkscape:connector-curvature="0" />
    <path
       style="color:#000000;font-style:normal;font-variant:normal;font-weight:normal;font-stretch:normal;font-size:medium;line-height:normal;font-family:sans-serif;font-variant-ligatures:normal;font-variant-position:normal;font-variant-caps:normal;font-variant-numeric:normal;font-variant-alternates:normal;font-feature-settings:normal;text-indent:0;text-align:start;text-decoration:none;text-decoration-line:none;text-decoration-style:solid;text-decoration-color:#000000;letter-spacing:normal;word-spacing:normal;text-transform:none;writing-mode:lr-tb;direction:ltr;text-orientation:mixed;dominant-baseline:auto;baseline-shift:baseline;text-anchor:start;white-space:normal;shape-padding:0;clip-rule:nonzero;display:inline;overflow:visible;visibility:visible;opacity:1;isolation:auto;mix-blend-mode:normal;color-interpolation:sRGB;color-interpolation-filters:linearRGB;solid-color:#000000;solid-opacity:1;vector-effect:none;fill:#000000;fill-opacity:1;fill-rule:evenodd;stroke:none;stroke-width:1.5;stroke-linecap:butt;stroke-linejoin:miter;stroke-miterlimit:4;stroke-dasharray:none;stroke-dashoffset:0;stroke-opacity:1;color-rendering:auto;image-rendering:auto;shape-rendering:auto;text-rendering:auto;enable-background:accumulate"
       d="m 24.138672,36.976562 -5.396484,2.863282 H 6.9824219 v 2.5 H 19.402344 l 4.679687,2.865234 0.783203,-1.279297 -2.591796,-1.585937 h 20.716796 v -2.5 H 21.941406 l 2.900391,-1.539063 z"
       transform="translate(0,1002.3622)"
       id="path4513-3"
       inkscape:connector-curvature="0" />
  </g>
</svg>
