<?xml version="1.0" encoding="UTF-8" standalone="no"?>
<!-- Created with Inkscape (http://www.inkscape.org/) -->

<svg
   xmlns:dc="http://purl.org/dc/elements/1.1/"
   xmlns:cc="http://creativecommons.org/ns#"
   xmlns:rdf="http://www.w3.org/1999/02/22-rdf-syntax-ns#"
   xmlns:svg="http://www.w3.org/2000/svg"
   xmlns="http://www.w3.org/2000/svg"
   xmlns:sodipodi="http://sodipodi.sourceforge.net/DTD/sodipodi-0.dtd"
   xmlns:inkscape="http://www.inkscape.org/namespaces/inkscape"
   width="50"
   height="50"
   viewBox="0 0 50 50.000001"
   id="svg2"
   version="1.1"
   inkscape:version="0.92.4 (5da689c313, 2019-01-14)"
   sodipodi:docname="DIN1261_Veraendern_einer_Warenbahnspannung_Fadenzug_mit_markierter_Ausgangsstellung.svg"
   inkscape:export-filename="P:\Files\Axialis\Library\Baldwin\Inkscape-png-export\DIN0105_Taster_handbetaetigt.png"
   inkscape:export-xdpi="92.160004"
   inkscape:export-ydpi="92.160004">
  <defs
     id="defs4" />
  <sodipodi:namedview
     id="base"
     pagecolor="#ffffff"
     bordercolor="#666666"
     borderopacity="1.0"
     inkscape:pageopacity="0.0"
     inkscape:pageshadow="2"
     inkscape:zoom="19.441935"
     inkscape:cx="-0.55007628"
     inkscape:cy="23.145976"
     inkscape:document-units="px"
     inkscape:current-layer="g6273"
     showgrid="true"
     units="px"
     showborder="true"
     borderlayer="false"
     inkscape:showpageshadow="true"
     inkscape:window-width="2560"
     inkscape:window-height="1377"
     inkscape:window-x="-8"
     inkscape:window-y="-8"
     inkscape:window-maximized="1"
     inkscape:snap-grids="true">
    <inkscape:grid
       type="xygrid"
       id="grid10233" />
  </sodipodi:namedview>
  <metadata
     id="metadata7">
    <rdf:RDF>
      <cc:Work
         rdf:about="">
        <dc:format>image/svg+xml</dc:format>
        <dc:type
           rdf:resource="http://purl.org/dc/dcmitype/StillImage" />
        <dc:title />
      </cc:Work>
    </rdf:RDF>
  </metadata>
  <g
     inkscape:label="Ebene 1"
     inkscape:groupmode="layer"
     id="layer1"
     transform="translate(0,-1002.4)">
    <g
       id="g6273"
       transform="matrix(-1,0,0,1,47.735045,-0.9622)">
      <path
         style="color:#000000;font-style:normal;font-variant:normal;font-weight:normal;font-stretch:normal;font-size:medium;line-height:normal;font-family:sans-serif;font-variant-ligatures:normal;font-variant-position:normal;font-variant-caps:normal;font-variant-numeric:normal;font-variant-alternates:normal;font-feature-settings:normal;text-indent:0;text-align:start;text-decoration:none;text-decoration-line:none;text-decoration-style:solid;text-decoration-color:#000000;letter-spacing:normal;word-spacing:normal;text-transform:none;writing-mode:lr-tb;direction:ltr;text-orientation:mixed;dominant-baseline:auto;baseline-shift:baseline;text-anchor:start;white-space:normal;shape-padding:0;clip-rule:nonzero;display:inline;overflow:visible;visibility:visible;opacity:1;isolation:auto;mix-blend-mode:normal;color-interpolation:sRGB;color-interpolation-filters:linearRGB;solid-color:#000000;solid-opacity:1;vector-effect:none;fill:#000000;fill-opacity:1;fill-rule:nonzero;stroke:none;stroke-width:2.5;stroke-linecap:butt;stroke-linejoin:miter;stroke-miterlimit:4;stroke-dasharray:none;stroke-dashoffset:0;stroke-opacity:1;color-rendering:auto;image-rendering:auto;shape-rendering:auto;text-rendering:auto;enable-background:accumulate"
         d="m 24.25,9 v 6 h 1.5 V 9 Z M 9.5292969,17.460938 7.0644531,17.873047 c 0,0 0.6007071,3.598075 1.5957031,7.234375 0.497499,1.8181 1.087467,3.644275 1.7968748,5.109375 0.354704,0.7325 0.733133,1.378209 1.214844,1.912109 0.481711,0.5339 1.142965,1.025157 2.009766,1.035156 h 0.002 0.002 c 0.773594,0.0076 1.529892,-0.337584 2.023437,-0.833984 0.493545,-0.4965 0.781829,-1.087278 1.003907,-1.705078 0.444155,-1.2357 0.629569,-2.656438 0.849609,-4.023438 0.22004,-1.366899 0.478264,-2.673956 0.84375,-3.472656 0.182743,-0.3994 0.379728,-0.655309 0.544922,-0.787109 0.165194,-0.1316 0.289987,-0.185547 0.59375,-0.185547 0.818755,0.0103 1.290618,0.260237 1.773437,0.710938 0.48282,0.450599 0.920214,1.144415 1.341797,1.916015 0.421584,0.7716 0.813499,1.608116 1.408203,2.353516 0.05175,0.06486 0.123633,0.123853 0.181641,0.1875 V 28.5 h 1.5 v -0.164062 c 0.349282,0.116313 0.72293,0.176461 1.119141,0.142578 1.703049,-0.1457 3.154968,-0.782579 4.273437,-1.330078 0.559235,-0.2737 1.037801,-0.528707 1.390625,-0.691407 0.35282,-0.1625 0.612157,-0.185547 0.4375,-0.185547 h 0.0332 0.03516 c 0.23792,-0.007 2.634989,-0.02125 4.839844,-0.03125 2.204856,-0.008 4.31836,-0.01953 4.31836,-0.01953 l -0.0098,-2.5 c 0,0 -2.113598,0.0095 -4.320312,0.01953 -2.176849,0.009 -4.299675,0.01625 -4.839844,0.03125 -0.674657,-0.0154 -1.083371,0.204916 -1.541016,0.416016 -0.457645,0.2111 -0.93047,0.465697 -1.443359,0.716797 -1.025778,0.5021 -2.191796,0.981684 -3.386719,1.083984 -0.2621,0.0224 -0.308554,-0.0013 -0.634766,-0.410156 C 25.938775,25.47445 25.840568,25.297761 25.75,25.154297 V 22.5 h -1.5 v 0.07422 c -0.337054,-0.53045 -0.718055,-1.058559 -1.226562,-1.533203 -0.835112,-0.7795 -2.023005,-1.366766 -3.447266,-1.384766 -0.817746,-0.0101 -1.601818,0.268022 -2.183594,0.732422 -0.581776,0.4643 -0.970239,1.066419 -1.259766,1.699219 -0.579056,1.2655 -0.814313,2.720887 -1.039062,4.117187 -0.224749,1.3962 -0.434775,2.740719 -0.734375,3.574219 -0.1498,0.4167 -0.320993,0.685662 -0.423828,0.789062 -0.101765,0.104 -0.08249,0.0957 -0.224609,0.0957 0.108537,0.002 0.03993,0.03882 -0.183594,-0.208984 -0.225742,-0.2502 -0.52741,-0.721272 -0.820313,-1.326172 -0.585806,-1.2097 -1.158868,-2.940387 -1.634765,-4.679687 -0.951795,-3.4784 -1.5429691,-6.988281 -1.5429691,-6.988281 z M 24.25,18 v 1.5 h 1.5 V 18 Z m 0,13.5 V 33 h 1.5 v -1.5 z m 0,4.5 v 6 h 1.5 v -6 z"
         transform="matrix(-1,0,0,1,47.735045,1003.3622)"
         id="path3338"
         inkscape:connector-curvature="0" />
    </g>
  </g>
</svg>
