<?xml version="1.0" encoding="UTF-8" standalone="no"?>
<!-- Created with Inkscape (http://www.inkscape.org/) -->

<svg
   xmlns:dc="http://purl.org/dc/elements/1.1/"
   xmlns:cc="http://creativecommons.org/ns#"
   xmlns:rdf="http://www.w3.org/1999/02/22-rdf-syntax-ns#"
   xmlns:svg="http://www.w3.org/2000/svg"
   xmlns="http://www.w3.org/2000/svg"
   xmlns:sodipodi="http://sodipodi.sourceforge.net/DTD/sodipodi-0.dtd"
   xmlns:inkscape="http://www.inkscape.org/namespaces/inkscape"
   width="50"
   height="50"
   viewBox="0 0 50 50.000001"
   id="svg2"
   version="1.1"
   inkscape:version="0.92.4 (5da689c313, 2019-01-14)"
   sodipodi:docname="DIN2346_Positioniergenaugikeit_fein.svg"
   inkscape:export-filename="P:\Files\Axialis\Library\Baldwin\Inkscape-png-export\DIN2346_Positioniergenaugikeit_fein.png"
   inkscape:export-xdpi="92.160004"
   inkscape:export-ydpi="92.160004">
  <defs
     id="defs4" />
  <sodipodi:namedview
     id="base"
     pagecolor="#ffffff"
     bordercolor="#666666"
     borderopacity="1.0"
     inkscape:pageopacity="0.0"
     inkscape:pageshadow="2"
     inkscape:zoom="9.7209677"
     inkscape:cx="-15.512741"
     inkscape:cy="25.846206"
     inkscape:document-units="px"
     inkscape:current-layer="layer1"
     showgrid="true"
     units="px"
     showborder="true"
     borderlayer="false"
     inkscape:showpageshadow="true"
     inkscape:window-width="1920"
     inkscape:window-height="1017"
     inkscape:window-x="-8"
     inkscape:window-y="-8"
     inkscape:window-maximized="1">
    <inkscape:grid
       type="xygrid"
       id="grid13545" />
  </sodipodi:namedview>
  <metadata
     id="metadata7">
    <rdf:RDF>
      <cc:Work
         rdf:about="">
        <dc:format>image/svg+xml</dc:format>
        <dc:type
           rdf:resource="http://purl.org/dc/dcmitype/StillImage" />
        <dc:title></dc:title>
      </cc:Work>
    </rdf:RDF>
  </metadata>
  <g
     inkscape:label="Ebene 1"
     inkscape:groupmode="layer"
     id="layer1"
     transform="translate(0,-1002.3622)">
    <circle
       style="opacity:1;fill:#000000;fill-opacity:1;stroke:none;stroke-width:1;stroke-linecap:square;stroke-linejoin:miter;stroke-miterlimit:4;stroke-dasharray:none;stroke-dashoffset:0;stroke-opacity:1"
       id="path5057"
       cx="17.379"
       cy="1034.9832"
       r="0.75199997" />
    <path
       style="color:#000000;font-style:normal;font-variant:normal;font-weight:normal;font-stretch:normal;font-size:medium;line-height:normal;font-family:sans-serif;font-variant-ligatures:normal;font-variant-position:normal;font-variant-caps:normal;font-variant-numeric:normal;font-variant-alternates:normal;font-feature-settings:normal;text-indent:0;text-align:start;text-decoration:none;text-decoration-line:none;text-decoration-style:solid;text-decoration-color:#000000;letter-spacing:normal;word-spacing:normal;text-transform:none;writing-mode:lr-tb;direction:ltr;text-orientation:mixed;dominant-baseline:auto;baseline-shift:baseline;text-anchor:start;white-space:normal;shape-padding:0;clip-rule:nonzero;display:inline;overflow:visible;visibility:visible;opacity:1;isolation:auto;mix-blend-mode:normal;color-interpolation:sRGB;color-interpolation-filters:linearRGB;solid-color:#000000;solid-opacity:1;vector-effect:none;fill:#000000;fill-opacity:1;fill-rule:nonzero;stroke:none;stroke-width:1;stroke-linecap:butt;stroke-linejoin:miter;stroke-miterlimit:4;stroke-dasharray:none;stroke-dashoffset:0;stroke-opacity:1;color-rendering:auto;image-rendering:auto;shape-rendering:auto;text-rendering:auto;enable-background:accumulate"
       d="m 16.878906,10.621094 v 15.279297 c -2.527867,0.188604 -4.763393,1.766998 -5.74414,4.134765 -1.045461,2.5239 -0.466915,5.433535 1.464843,7.365235 1.931759,1.9318 4.841271,2.510243 7.365235,1.464843 2.367756,-0.980794 3.946185,-3.216255 4.134765,-5.74414 h 15.279297 v -1 H 21 v -1.5 l -3,2 1.734375,1.15625 c -0.275652,0.561673 -0.74616,1.021482 -1.349609,1.271484 -0.983132,0.4072 -2.110826,0.184141 -2.863282,-0.568359 -0.752456,-0.7525 -0.977538,-1.880182 -0.570312,-2.863281 0.250085,-0.603741 0.707462,-1.077365 1.269531,-1.353516 L 17.378906,32 l 2,-3 h -1.5 V 10.621094 Z m 0,16.279297 V 29 h -1.5 l 0.289063,0.433594 c -0.72273,0.388469 -1.313665,1.011459 -1.640625,1.800781 -0.560909,1.3542 -0.249314,2.916725 0.787109,3.953125 1.036423,1.0365 2.598973,1.346056 3.953125,0.785156 0.789168,-0.326879 1.41089,-0.918113 1.798828,-1.640625 L 21,34.621094 v -1.5 h 2.099609 c -0.185861,2.124831 -1.521203,3.993459 -3.517578,4.820312 -2.152943,0.8918 -4.627599,0.399753 -6.27539,-1.248047 -1.647792,-1.6478 -2.139825,-4.12249 -1.248047,-6.27539 0.827071,-1.996688 2.695068,-3.332089 4.820312,-3.517578 z"
       transform="translate(0,1002.3622)"
       id="path10084-9"
       inkscape:connector-curvature="0" />
  </g>
</svg>
