<?xml version="1.0" encoding="UTF-8" standalone="no"?>
<svg
   xmlns:dc="http://purl.org/dc/elements/1.1/"
   xmlns:cc="http://creativecommons.org/ns#"
   xmlns:rdf="http://www.w3.org/1999/02/22-rdf-syntax-ns#"
   xmlns:svg="http://www.w3.org/2000/svg"
   xmlns="http://www.w3.org/2000/svg"
   xmlns:sodipodi="http://sodipodi.sourceforge.net/DTD/sodipodi-0.dtd"
   xmlns:inkscape="http://www.inkscape.org/namespaces/inkscape"
   width="50"
   height="50"
   viewBox="0 0 50 50.000001"
   id="svg2"
   version="1.1"
   inkscape:version="1.0.1 (3bc2e813f5, 2020-09-07)"
   sodipodi:docname="DIN2993_Recovery_Recycling_allgemein.svg"
   inkscape:export-filename="P:\Files\Axialis\Library\Baldwin\Inkscape-png-export\DIN2993_Recovery_Recycling_allgemein.png"
   inkscape:export-xdpi="92.160004"
   inkscape:export-ydpi="92.160004">
  <defs
     id="defs4" />
  <sodipodi:namedview
     id="base"
     pagecolor="#ffffff"
     bordercolor="#666666"
     borderopacity="1.0"
     inkscape:pageopacity="0.0"
     inkscape:pageshadow="2"
     inkscape:zoom="13.747524"
     inkscape:cx="37.408497"
     inkscape:cy="32.020622"
     inkscape:document-units="px"
     inkscape:current-layer="layer1"
     showgrid="true"
     units="px"
     showborder="true"
     borderlayer="false"
     inkscape:showpageshadow="true"
     inkscape:window-width="2560"
     inkscape:window-height="1377"
     inkscape:window-x="-8"
     inkscape:window-y="-8"
     inkscape:window-maximized="1"
     inkscape:snap-grids="false"
     inkscape:snap-to-guides="false"
     inkscape:snap-others="false"
     inkscape:snap-nodes="false"
     inkscape:snap-global="false"
     inkscape:document-rotation="0">
    <inkscape:grid
       type="xygrid"
       id="grid5038"
       empspacing="5" />
  </sodipodi:namedview>
  <metadata
     id="metadata7">
    <rdf:RDF>
      <cc:Work
         rdf:about="">
        <dc:format>image/svg+xml</dc:format>
        <dc:type
           rdf:resource="http://purl.org/dc/dcmitype/StillImage" />
        <dc:title></dc:title>
      </cc:Work>
    </rdf:RDF>
  </metadata>
  <g
     inkscape:label="Ebene 1"
     inkscape:groupmode="layer"
     id="layer1"
     transform="translate(0,-1002.3622)">
    <path
       style="color:#000000;font-style:normal;font-variant:normal;font-weight:normal;font-stretch:normal;font-size:medium;line-height:normal;font-family:sans-serif;font-variant-ligatures:normal;font-variant-position:normal;font-variant-caps:normal;font-variant-numeric:normal;font-variant-alternates:normal;font-variant-east-asian:normal;font-feature-settings:normal;font-variation-settings:normal;text-indent:0;text-align:start;text-decoration:none;text-decoration-line:none;text-decoration-style:solid;text-decoration-color:#000000;letter-spacing:normal;word-spacing:normal;text-transform:none;writing-mode:lr-tb;direction:ltr;text-orientation:mixed;dominant-baseline:auto;baseline-shift:baseline;text-anchor:start;white-space:normal;shape-padding:0;shape-margin:0;inline-size:0;clip-rule:nonzero;display:inline;overflow:visible;visibility:visible;opacity:1;isolation:auto;mix-blend-mode:normal;color-interpolation:sRGB;color-interpolation-filters:linearRGB;solid-color:#000000;solid-opacity:1;vector-effect:none;fill:#000000;fill-opacity:1;fill-rule:nonzero;stroke:none;stroke-width:1px;stroke-linecap:butt;stroke-linejoin:miter;stroke-miterlimit:4;stroke-dasharray:none;stroke-dashoffset:0;stroke-opacity:1;color-rendering:auto;image-rendering:auto;shape-rendering:auto;text-rendering:auto;enable-background:accumulate;stop-color:#000000;stop-opacity:1"
       d="m 19.634766,1008.0254 c -0.705189,0.015 -1.355804,0.1743 -1.88086,0.3945 -0.525055,0.2202 -0.929346,0.4539 -1.167968,0.8672 -1.367765,2.3691 -4.783204,8.2852 -4.783204,8.2852 l -0.25,0.4316 7.636719,4.4102 5.107422,-8.8477 c 1.081858,1.901 2.285358,4.0453 2.457031,4.332 l -3.349609,1.6563 0.234375,0.9473 10.042969,-0.25 4.820312,-8.3497 -0.703125,-0.6699 -3.148437,2.0293 c -0.266412,-0.4777 -1.081427,-1.9398 -1.63086,-2.9394 -0.754243,-1.3723 -2.492541,-2.3743 -4.273437,-2.2637 -0.722084,0.045 -2.905933,0.046 -4.867188,0.031 -1.961254,-0.015 -3.728515,-0.041 -3.728515,-0.041 l -0.002,0.098 c -0.171063,-0.015 -0.348012,-0.1246 -0.513672,-0.1211 z m 0.02148,1 c 1.130919,-0.024 2.33424,0.3683 3.142578,1.9004 0.393745,0.7462 0.503444,0.8745 0.925781,1.6328 l -4.902343,8.4883 -5.904297,-3.4082 c 0.324528,-0.5621 3.236984,-5.6064 4.533203,-7.8516 0.0081,-0.014 0.28055,-0.2738 0.689453,-0.4453 0.408903,-0.1715 0.950166,-0.3045 1.515625,-0.3164 z m 9.152344,0.031 c 1.33971,-0.083 2.810758,0.7942 3.333984,1.7461 0.640723,1.1658 1.894531,3.4121 1.894531,3.4121 l 0.259766,0.4649 2.306641,-1.4863 -3.507813,6.0722 -7.216797,0.1817 2.279297,-1.127 -0.279297,-0.4648 c 0,0 -2.42331,-4.0344 -4.197265,-7.3965 -0.352219,-0.6676 -0.855215,-1.0133 -1.341797,-1.3867 0.631529,0.01 0.72558,0.011 1.53125,0.017 1.965864,0.015 4.09928,0.019 4.9375,-0.033 z"
       id="path970" />
    <path
       style="color:#000000;font-style:normal;font-variant:normal;font-weight:normal;font-stretch:normal;font-size:medium;line-height:normal;font-family:sans-serif;font-variant-ligatures:normal;font-variant-position:normal;font-variant-caps:normal;font-variant-numeric:normal;font-variant-alternates:normal;font-variant-east-asian:normal;font-feature-settings:normal;font-variation-settings:normal;text-indent:0;text-align:start;text-decoration:none;text-decoration-line:none;text-decoration-style:solid;text-decoration-color:#000000;letter-spacing:normal;word-spacing:normal;text-transform:none;writing-mode:lr-tb;direction:ltr;text-orientation:mixed;dominant-baseline:auto;baseline-shift:baseline;text-anchor:start;white-space:normal;shape-padding:0;shape-margin:0;inline-size:0;clip-rule:nonzero;display:inline;overflow:visible;visibility:visible;opacity:1;isolation:auto;mix-blend-mode:normal;color-interpolation:sRGB;color-interpolation-filters:linearRGB;solid-color:#000000;solid-opacity:1;vector-effect:none;fill:#000000;fill-opacity:1;fill-rule:nonzero;stroke:none;stroke-width:1px;stroke-linecap:butt;stroke-linejoin:miter;stroke-miterlimit:4;stroke-dasharray:none;stroke-dashoffset:0;stroke-opacity:1;color-rendering:auto;image-rendering:auto;shape-rendering:auto;text-rendering:auto;enable-background:accumulate;stop-color:#000000;stop-opacity:1"
       d="m 5.2382812,1023.875 -0.2285156,0.9434 3.3320313,1.7109 c -0.2798724,0.4685 -1.1391804,1.9086 -1.7304688,2.8848 -0.8112861,1.3393 -0.8084959,3.3431 0.1777344,4.83 0.3999257,0.603 1.4910077,2.4954 2.4589844,4.2012 0.9679771,1.7058 1.8281251,3.25 1.8281251,3.25 l 0.08594,-0.049 c 0.07243,0.156 0.06639,0.3639 0.152344,0.5058 0.365439,0.6033 0.828038,1.0871 1.28125,1.4317 0.453212,0.3446 0.858704,0.5781 1.335938,0.5781 h 10.066406 v -8.8183 H 13.785156 c 1.104683,-1.8863 2.35701,-4.0009 2.519532,-4.293 l 3.109374,2.0722 0.705079,-0.6777 -5.238282,-8.5703 z m 2.0703126,1 h 7.0117182 l 3.763672,6.1602 -2.115234,-1.4122 -0.263672,0.4747 c 0,0 -2.281961,4.1146 -4.30664,7.332 -0.401931,0.6387 -0.449156,1.2475 -0.529297,1.8555 -0.309278,-0.5505 -0.352549,-0.6336 -0.75,-1.334 -0.9702516,-1.7098 -2.033817,-3.5599 -2.4980472,-4.2598 -0.7419078,-1.1186 -0.7170928,-2.8307 -0.1542969,-3.7598 0.6891792,-1.1377 2.0078125,-3.3457 2.0078125,-3.3457 l 0.2734375,-0.4589 z m 5.8886722,11.4688 h 9.800781 v 6.8183 h -9.066406 c -0.01612,0 -0.377518,-0.1066 -0.730469,-0.375 -0.352951,-0.2684 -0.738221,-0.6686 -1.03125,-1.1523 -0.586059,-0.9675 -0.846451,-2.2059 0.07617,-3.6719 0.449607,-0.7145 0.505413,-0.8739 0.951172,-1.6191 z"
       id="path966" />
    <path
       style="color:#000000;font-style:normal;font-variant:normal;font-weight:normal;font-stretch:normal;font-size:medium;line-height:normal;font-family:sans-serif;font-variant-ligatures:normal;font-variant-position:normal;font-variant-caps:normal;font-variant-numeric:normal;font-variant-alternates:normal;font-variant-east-asian:normal;font-feature-settings:normal;font-variation-settings:normal;text-indent:0;text-align:start;text-decoration:none;text-decoration-line:none;text-decoration-style:solid;text-decoration-color:#000000;letter-spacing:normal;word-spacing:normal;text-transform:none;writing-mode:lr-tb;direction:ltr;text-orientation:mixed;dominant-baseline:auto;baseline-shift:baseline;text-anchor:start;white-space:normal;shape-padding:0;shape-margin:0;inline-size:0;clip-rule:nonzero;display:inline;overflow:visible;visibility:visible;opacity:1;isolation:auto;mix-blend-mode:normal;color-interpolation:sRGB;color-interpolation-filters:linearRGB;solid-color:#000000;solid-opacity:1;vector-effect:none;fill:#000000;fill-opacity:1;fill-rule:nonzero;stroke:none;stroke-width:1px;stroke-linecap:butt;stroke-linejoin:miter;stroke-miterlimit:4;stroke-dasharray:none;stroke-dashoffset:0;stroke-opacity:1;color-rendering:auto;image-rendering:auto;shape-rendering:auto;text-rendering:auto;enable-background:accumulate;stop-color:#000000;stop-opacity:1"
       d="m 39.748047,1020.3086 -7.636719,4.4102 5.107422,8.8457 c -2.186988,-0.014 -4.64666,-0.043 -4.980469,-0.037 l 0.240235,-3.7285 -0.9375,-0.2715 -4.804688,8.8223 4.822266,8.3496 0.93164,-0.2754 -0.183593,-3.7383 c 0.546332,0.01 2.220611,0.033 3.361328,0.057 1.565604,0.033 3.301043,-0.9728 4.095703,-2.5703 0.322171,-0.6478 1.414924,-2.5393 2.408203,-4.2305 0.993279,-1.6912 1.898438,-3.207 1.898437,-3.207 l -0.08398,-0.051 c 0.09886,-0.1407 0.281413,-0.2394 0.361328,-0.3848 0.33975,-0.6181 0.527766,-1.2613 0.59961,-1.8261 0.07184,-0.5648 0.07259,-1.0321 -0.166016,-1.4454 -1.367812,-2.3691 -4.783203,-8.2851 -4.783203,-8.2851 z m -0.365235,1.3672 c 0.324523,0.5621 3.236946,5.6064 4.533204,7.8515 0.0081,0.014 0.09501,0.3785 0.03906,0.8184 -0.05595,0.4399 -0.209992,0.9751 -0.482422,1.4707 -0.544859,0.9913 -1.485835,1.8375 -3.216797,1.7715 -0.843027,-0.032 -1.009164,-3e-4 -1.876953,-0.014 l -4.902344,-8.4902 z m -8.048828,10.3222 -0.162109,2.5332 0.542969,-0.01 c 0,0 4.703317,-0.082 8.501953,0.062 0.754186,0.029 1.306389,-0.2341 1.873047,-0.4687 -0.322304,0.5434 -0.37292,0.6231 -0.78125,1.3183 -0.995612,1.6952 -2.065477,3.5391 -2.439453,4.2911 -0.597809,1.2018 -2.093742,2.0385 -3.179688,2.0156 -1.32988,-0.028 -3.902344,-0.066 -3.902344,-0.066 l -0.533203,-0.01 0.136719,2.7402 -3.507813,-6.0723 z"
       id="path962" />
  </g>
</svg>
