<?xml version="1.0" encoding="UTF-8" standalone="no"?>
<!-- Created with Inkscape (http://www.inkscape.org/) -->

<svg
   xmlns:dc="http://purl.org/dc/elements/1.1/"
   xmlns:cc="http://creativecommons.org/ns#"
   xmlns:rdf="http://www.w3.org/1999/02/22-rdf-syntax-ns#"
   xmlns:svg="http://www.w3.org/2000/svg"
   xmlns="http://www.w3.org/2000/svg"
   xmlns:sodipodi="http://sodipodi.sourceforge.net/DTD/sodipodi-0.dtd"
   xmlns:inkscape="http://www.inkscape.org/namespaces/inkscape"
   width="50"
   height="50"
   viewBox="0 0 50 50.000001"
   id="svg2"
   version="1.1"
   inkscape:version="0.92.4 (5da689c313, 2019-01-14)"
   sodipodi:docname="DIN2339_Koordinaten_Nullpunkt.svg"
   inkscape:export-filename="P:\Files\Axialis\Library\Baldwin\Inkscape-png-export\DIN0010_Regeln.png"
   inkscape:export-xdpi="92.160004"
   inkscape:export-ydpi="92.160004">
  <defs
     id="defs4" />
  <sodipodi:namedview
     id="base"
     pagecolor="#ffffff"
     bordercolor="#666666"
     borderopacity="1.0"
     inkscape:pageopacity="0.0"
     inkscape:pageshadow="2"
     inkscape:zoom="9.7209677"
     inkscape:cx="-0.26907909"
     inkscape:cy="23.323417"
     inkscape:document-units="px"
     inkscape:current-layer="layer1"
     showgrid="true"
     units="px"
     showborder="true"
     borderlayer="false"
     inkscape:showpageshadow="true"
     inkscape:window-width="1682"
     inkscape:window-height="860"
     inkscape:window-x="406"
     inkscape:window-y="263"
     inkscape:window-maximized="0"
     inkscape:snap-grids="false"
     inkscape:snap-to-guides="false"
     inkscape:snap-others="false"
     inkscape:snap-nodes="false"
     inkscape:snap-global="false">
    <inkscape:grid
       type="xygrid"
       id="grid5038"
       empspacing="5" />
  </sodipodi:namedview>
  <metadata
     id="metadata7">
    <rdf:RDF>
      <cc:Work
         rdf:about="">
        <dc:format>image/svg+xml</dc:format>
        <dc:type
           rdf:resource="http://purl.org/dc/dcmitype/StillImage" />
        <dc:title />
      </cc:Work>
    </rdf:RDF>
  </metadata>
  <g
     inkscape:label="Ebene 1"
     inkscape:groupmode="layer"
     id="layer1"
     transform="translate(0,-1002.3622)">
    <path
       style="color:#000000;font-style:normal;font-variant:normal;font-weight:normal;font-stretch:normal;font-size:medium;line-height:normal;font-family:sans-serif;font-variant-ligatures:normal;font-variant-position:normal;font-variant-caps:normal;font-variant-numeric:normal;font-variant-alternates:normal;font-feature-settings:normal;text-indent:0;text-align:start;text-decoration:none;text-decoration-line:none;text-decoration-style:solid;text-decoration-color:#000000;letter-spacing:normal;word-spacing:normal;text-transform:none;writing-mode:lr-tb;direction:ltr;text-orientation:mixed;dominant-baseline:auto;baseline-shift:baseline;text-anchor:start;white-space:normal;shape-padding:0;clip-rule:nonzero;display:inline;overflow:visible;visibility:visible;opacity:1;isolation:auto;mix-blend-mode:normal;color-interpolation:sRGB;color-interpolation-filters:linearRGB;solid-color:#000000;solid-opacity:1;vector-effect:none;fill:#000000;fill-opacity:1;fill-rule:nonzero;stroke:none;stroke-width:1.50047243;stroke-linecap:butt;stroke-linejoin:miter;stroke-miterlimit:4;stroke-dasharray:none;stroke-dashoffset:0;stroke-opacity:1;paint-order:normal;color-rendering:auto;image-rendering:auto;shape-rendering:auto;text-rendering:auto;enable-background:accumulate"
       d="M 24.5,3.5 V 17.28125 C 20.463959,17.54099 17.253906,20.899856 17.253906,25 c 0,4.2688 3.4773,7.746094 7.746094,7.746094 4.099743,0 7.460243,-3.210597 7.720703,-7.246094 H 46.5 v -1 H 32.720703 C 32.471536,20.630084 29.370043,17.530307 25.5,17.28125 V 3.5 Z m 0,15.279297 v 1.613281 C 22.338757,20.628767 20.62824,22.338639 20.392578,24.5 H 18.779297 C 19.020047,21.443171 21.443111,19.02005 24.5,18.779297 Z m 1,0 C 28.556889,19.02005 30.979953,21.443171 31.220703,24.5 H 29.607422 C 29.37176,22.338639 27.661243,20.628767 25.5,20.392578 Z m 0,3.111328 C 26.847806,22.10367 27.894977,23.151982 28.107422,24.5 H 25.5 Z M 18.78125,25.5 h 1.611328 c 0.236102,2.161194 1.946474,3.873062 4.107422,4.109375 v 1.611328 C 21.443655,30.979824 19.022723,28.556307 18.78125,25.5 Z m 3.111328,0 H 24.5 v 2.609375 C 23.152709,27.896109 22.105561,26.847579 21.892578,25.5 Z M 25.5,25.5 h 2.607422 C 27.894439,26.847579 26.847291,27.896109 25.5,28.109375 Z m 4.107422,0 H 31.21875 C 30.977277,28.556307 28.556345,30.979824 25.5,31.220703 V 29.609375 C 27.660948,29.373062 29.37132,27.661194 29.607422,25.5 Z"
       transform="translate(0,1002.3622)"
       id="path5273"
       inkscape:connector-curvature="0" />
  </g>
</svg>
