<?xml version="1.0" encoding="UTF-8" standalone="no"?>
<svg
   xmlns:dc="http://purl.org/dc/elements/1.1/"
   xmlns:cc="http://creativecommons.org/ns#"
   xmlns:rdf="http://www.w3.org/1999/02/22-rdf-syntax-ns#"
   xmlns:svg="http://www.w3.org/2000/svg"
   xmlns="http://www.w3.org/2000/svg"
   xmlns:sodipodi="http://sodipodi.sourceforge.net/DTD/sodipodi-0.dtd"
   xmlns:inkscape="http://www.inkscape.org/namespaces/inkscape"
   width="50"
   height="50"
   viewBox="0 0 50 50.000001"
   id="svg2"
   version="1.1"
   inkscape:version="1.0.1 (3bc2e813f5, 2020-09-07)"
   sodipodi:docname="DIN2979_Blatt_Seite_markieren.svg"
   inkscape:export-filename="P:\Files\Axialis\Library\Baldwin\Inkscape-png-export\DIN2979_Blatt_Seite_markieren.png"
   inkscape:export-xdpi="92.160004"
   inkscape:export-ydpi="92.160004">
  <defs
     id="defs4" />
  <sodipodi:namedview
     id="base"
     pagecolor="#ffffff"
     bordercolor="#666666"
     borderopacity="1.0"
     inkscape:pageopacity="0.0"
     inkscape:pageshadow="2"
     inkscape:zoom="13.747524"
     inkscape:cx="22.515198"
     inkscape:cy="34.540045"
     inkscape:document-units="px"
     inkscape:current-layer="layer1"
     showgrid="true"
     units="px"
     showborder="true"
     borderlayer="false"
     inkscape:showpageshadow="true"
     inkscape:window-width="2560"
     inkscape:window-height="1377"
     inkscape:window-x="-8"
     inkscape:window-y="-8"
     inkscape:window-maximized="1"
     inkscape:snap-global="true"
     inkscape:document-rotation="0">
    <inkscape:grid
       type="xygrid"
       id="grid5234" />
  </sodipodi:namedview>
  <metadata
     id="metadata7">
    <rdf:RDF>
      <cc:Work
         rdf:about="">
        <dc:format>image/svg+xml</dc:format>
        <dc:type
           rdf:resource="http://purl.org/dc/dcmitype/StillImage" />
        <dc:title></dc:title>
      </cc:Work>
    </rdf:RDF>
  </metadata>
  <g
     inkscape:label="Ebene 1"
     inkscape:groupmode="layer"
     id="layer1"
     transform="translate(0,-1002.3622)"
     style="display:inline">
    <path
       id="path1441"
       style="color:#000000;font-style:normal;font-variant:normal;font-weight:normal;font-stretch:normal;font-size:medium;line-height:normal;font-family:sans-serif;font-variant-ligatures:normal;font-variant-position:normal;font-variant-caps:normal;font-variant-numeric:normal;font-variant-alternates:normal;font-variant-east-asian:normal;font-feature-settings:normal;font-variation-settings:normal;text-indent:0;text-align:start;text-decoration:none;text-decoration-line:none;text-decoration-style:solid;text-decoration-color:#000000;letter-spacing:normal;word-spacing:normal;text-transform:none;writing-mode:lr-tb;direction:ltr;text-orientation:mixed;dominant-baseline:auto;baseline-shift:baseline;text-anchor:start;white-space:normal;shape-padding:0;shape-margin:0;inline-size:0;clip-rule:nonzero;display:inline;overflow:visible;visibility:visible;opacity:1;isolation:auto;mix-blend-mode:normal;color-interpolation:sRGB;color-interpolation-filters:linearRGB;solid-color:#000000;solid-opacity:1;vector-effect:none;fill:#000000;fill-opacity:1;fill-rule:nonzero;stroke:none;stroke-width:1.5;stroke-linecap:butt;stroke-linejoin:miter;stroke-miterlimit:4;stroke-dasharray:none;stroke-dashoffset:0;stroke-opacity:1;color-rendering:auto;image-rendering:auto;shape-rendering:auto;text-rendering:auto;enable-background:accumulate;stop-color:#000000;stop-opacity:1"
       d="m 25,6.9921875 c -5.974926,0 -11.949947,1.1057062 -17.2871094,3.3164065 -1.0747475,0.4452 -1.9610813,1.329597 -2.40625,2.404297 -3.1458401,7.5947 -3.1458401,16.979518 0,24.574218 0.4451687,1.0747 1.3315025,1.96105 2.40625,2.40625 10.6743244,4.4215 23.8998934,4.4215 34.5742184,0 1.074748,-0.4452 1.961082,-1.33155 2.40625,-2.40625 3.14584,-7.5947 3.14584,-16.979518 0,-24.574218 -0.445168,-1.0747 -1.331502,-1.959097 -2.40625,-2.404297 C 36.949947,8.0978938 30.974926,6.9921875 25,6.9921875 Z m 0,1.5117187 c 5.789757,0 11.579418,1.0630532 16.712891,3.1894528 0.667336,0.2764 1.317324,0.92645 1.59375,1.59375 2.977094,7.1873 2.977094,16.238482 0,23.425782 -0.276426,0.6673 -0.926414,1.319303 -1.59375,1.595703 -10.266945,4.2528 -23.158837,4.2528 -33.4257816,0 -0.6673365,-0.2764 -1.3173239,-0.928403 -1.59375,-1.595703 -2.9770949,-7.1873 -2.9770949,-16.238482 0,-23.425782 0.2764261,-0.6673 0.9264135,-1.31735 1.59375,-1.59375 C 13.420582,9.5669594 19.210243,8.5039062 25,8.5039062 Z M 17.25,11.75 V 12.5 28.625 L 14,27 v 7 l 3.25,-1.21875 V 38.25 h 15.5 v -26.5 z m 1.5,1.5 h 12.5 v 23.5 H 18.75 V 32.21875 L 22,31 18.75,29.375 Z"
       transform="translate(0,1002.3622)" />
  </g>
</svg>
