<?xml version="1.0" encoding="UTF-8" standalone="no"?>
<!-- Created with Inkscape (http://www.inkscape.org/) -->

<svg
   xmlns:dc="http://purl.org/dc/elements/1.1/"
   xmlns:cc="http://creativecommons.org/ns#"
   xmlns:rdf="http://www.w3.org/1999/02/22-rdf-syntax-ns#"
   xmlns:svg="http://www.w3.org/2000/svg"
   xmlns="http://www.w3.org/2000/svg"
   xmlns:sodipodi="http://sodipodi.sourceforge.net/DTD/sodipodi-0.dtd"
   xmlns:inkscape="http://www.inkscape.org/namespaces/inkscape"
   width="50"
   height="50"
   viewBox="0 0 50 50.000001"
   id="svg2"
   version="1.1"
   inkscape:version="0.92.4 (5da689c313, 2019-01-14)"
   sodipodi:docname="DIN2347_Positioniergenaugikeit_mittel.svg"
   inkscape:export-filename="P:\Files\Axialis\Library\Baldwin\Inkscape-png-export\DIN2347_Positioniergenaugikeit_mittel.png"
   inkscape:export-xdpi="92.160004"
   inkscape:export-ydpi="92.160004">
  <defs
     id="defs4" />
  <sodipodi:namedview
     id="base"
     pagecolor="#ffffff"
     bordercolor="#666666"
     borderopacity="1.0"
     inkscape:pageopacity="0.0"
     inkscape:pageshadow="2"
     inkscape:zoom="9.7209677"
     inkscape:cx="-10.791439"
     inkscape:cy="25.846206"
     inkscape:document-units="px"
     inkscape:current-layer="layer1"
     showgrid="true"
     units="px"
     showborder="true"
     borderlayer="false"
     inkscape:showpageshadow="true"
     inkscape:window-width="1920"
     inkscape:window-height="1017"
     inkscape:window-x="-8"
     inkscape:window-y="-8"
     inkscape:window-maximized="1">
    <inkscape:grid
       type="xygrid"
       id="grid13545" />
  </sodipodi:namedview>
  <metadata
     id="metadata7">
    <rdf:RDF>
      <cc:Work
         rdf:about="">
        <dc:format>image/svg+xml</dc:format>
        <dc:type
           rdf:resource="http://purl.org/dc/dcmitype/StillImage" />
        <dc:title></dc:title>
      </cc:Work>
    </rdf:RDF>
  </metadata>
  <g
     inkscape:label="Ebene 1"
     inkscape:groupmode="layer"
     id="layer1"
     transform="translate(0,-1002.3622)">
    <circle
       style="opacity:1;fill:#000000;fill-opacity:1;stroke:none;stroke-width:1;stroke-linecap:square;stroke-linejoin:miter;stroke-miterlimit:4;stroke-dasharray:none;stroke-dashoffset:0;stroke-opacity:1"
       id="path5057"
       cx="17.379"
       cy="1034.9832"
       r="0.75199997" />
    <path
       style="color:#000000;font-style:normal;font-variant:normal;font-weight:normal;font-stretch:normal;font-size:medium;line-height:normal;font-family:sans-serif;font-variant-ligatures:normal;font-variant-position:normal;font-variant-caps:normal;font-variant-numeric:normal;font-variant-alternates:normal;font-feature-settings:normal;text-indent:0;text-align:start;text-decoration:none;text-decoration-line:none;text-decoration-style:solid;text-decoration-color:#000000;letter-spacing:normal;word-spacing:normal;text-transform:none;writing-mode:lr-tb;direction:ltr;text-orientation:mixed;dominant-baseline:auto;baseline-shift:baseline;text-anchor:start;white-space:normal;shape-padding:0;clip-rule:nonzero;display:inline;overflow:visible;visibility:visible;opacity:1;isolation:auto;mix-blend-mode:normal;color-interpolation:sRGB;color-interpolation-filters:linearRGB;solid-color:#000000;solid-opacity:1;vector-effect:none;fill:#000000;fill-opacity:1;fill-rule:nonzero;stroke:none;stroke-width:1;stroke-linecap:butt;stroke-linejoin:miter;stroke-miterlimit:4;stroke-dasharray:none;stroke-dashoffset:0;stroke-opacity:1;color-rendering:auto;image-rendering:auto;shape-rendering:auto;text-rendering:auto;enable-background:accumulate"
       d="m 16.878906,10.621094 v 15.279297 c -0.255445,0.01906 -0.507451,0.04659 -0.755859,0.09375 h -0.744141 l 0.09766,0.148437 c -1.929088,0.567293 -3.547194,1.97421 -4.341796,3.892578 -1.045461,2.5239 -0.466915,5.433535 1.464843,7.365235 1.931759,1.9318 4.841271,2.510243 7.365235,1.464843 1.918955,-0.794887 3.325644,-2.413838 3.892578,-4.34375 l 0.148437,0.09961 v -0.75 c 0.04657,-0.246509 0.07484,-0.496574 0.09375,-0.75 h 15.279297 v -1 H 24.005859 v -1.5 l -3,2 1.964844,1.310547 c -0.417218,1.778777 -1.651424,3.290237 -3.388672,4.009765 -2.152943,0.8918 -4.627599,0.399753 -6.27539,-1.248047 -1.647792,-1.6478 -2.139825,-4.12249 -1.248047,-6.27539 0.719841,-1.737817 2.230213,-2.971875 4.009765,-3.388672 l 1.310547,1.964844 2,-3 h -1.5 V 10.621094 Z m 0.5,18.373047 c -1.997454,0 -3.626953,1.629553 -3.626953,3.626953 0,1.9975 1.629499,3.628906 3.626953,3.628906 1.997454,0 3.626953,-1.631406 3.626953,-3.628906 0,-1.9974 -1.629499,-3.626953 -3.626953,-3.626953 z m 0,1 c 1.457014,0 2.626953,1.169953 2.626953,2.626953 0,1.457 -1.169939,2.628906 -2.626953,2.628906 -1.457014,0 -2.626953,-1.171906 -2.626953,-2.628906 0,-1.457 1.169939,-2.626953 2.626953,-2.626953 z"
       transform="translate(0,1002.3622)"
       id="path10084-9"
       inkscape:connector-curvature="0" />
  </g>
</svg>
