<?xml version="1.0" encoding="UTF-8" standalone="no"?>
<!-- Created with Inkscape (http://www.inkscape.org/) -->

<svg
   xmlns:dc="http://purl.org/dc/elements/1.1/"
   xmlns:cc="http://creativecommons.org/ns#"
   xmlns:rdf="http://www.w3.org/1999/02/22-rdf-syntax-ns#"
   xmlns:svg="http://www.w3.org/2000/svg"
   xmlns="http://www.w3.org/2000/svg"
   xmlns:sodipodi="http://sodipodi.sourceforge.net/DTD/sodipodi-0.dtd"
   xmlns:inkscape="http://www.inkscape.org/namespaces/inkscape"
   width="50"
   height="50"
   viewBox="0 0 50 50.000001"
   id="svg2"
   version="1.1"
   inkscape:version="0.92.1 r15371"
   sodipodi:docname="DIN2434E_Fluessig.svg"
   inkscape:export-filename="P:\Files\Axialis\Library\Baldwin\Inkscape-png-export\DIN2434E_Fluessig_Tropfen.png"
   inkscape:export-xdpi="92.160004"
   inkscape:export-ydpi="92.160004">
  <defs
     id="defs4" />
  <sodipodi:namedview
     id="base"
     pagecolor="#ffffff"
     bordercolor="#666666"
     borderopacity="1.0"
     inkscape:pageopacity="0.0"
     inkscape:pageshadow="2"
     inkscape:zoom="9.7209677"
     inkscape:cx="17.982605"
     inkscape:cy="22.706194"
     inkscape:document-units="px"
     inkscape:current-layer="layer1"
     showgrid="true"
     units="px"
     showborder="true"
     borderlayer="false"
     inkscape:showpageshadow="true"
     inkscape:window-width="1920"
     inkscape:window-height="1028"
     inkscape:window-x="-8"
     inkscape:window-y="-8"
     inkscape:window-maximized="1">
    <inkscape:grid
       type="xygrid"
       id="grid10233" />
  </sodipodi:namedview>
  <metadata
     id="metadata7">
    <rdf:RDF>
      <cc:Work
         rdf:about="">
        <dc:format>image/svg+xml</dc:format>
        <dc:type
           rdf:resource="http://purl.org/dc/dcmitype/StillImage" />
        <dc:title></dc:title>
      </cc:Work>
    </rdf:RDF>
  </metadata>
  <g
     inkscape:label="Ebene 1"
     inkscape:groupmode="layer"
     id="layer1"
     transform="translate(0,-1002.3622)">
    <path
       style="color:#000000;font-style:normal;font-variant:normal;font-weight:normal;font-stretch:normal;font-size:medium;line-height:normal;font-family:sans-serif;font-variant-ligatures:normal;font-variant-position:normal;font-variant-caps:normal;font-variant-numeric:normal;font-variant-alternates:normal;font-feature-settings:normal;text-indent:0;text-align:start;text-decoration:none;text-decoration-line:none;text-decoration-style:solid;text-decoration-color:#000000;letter-spacing:normal;word-spacing:normal;text-transform:none;writing-mode:lr-tb;direction:ltr;text-orientation:mixed;dominant-baseline:auto;baseline-shift:baseline;text-anchor:start;white-space:normal;shape-padding:0;clip-rule:nonzero;display:inline;overflow:visible;visibility:visible;opacity:1;isolation:auto;mix-blend-mode:normal;color-interpolation:sRGB;color-interpolation-filters:linearRGB;solid-color:#000000;solid-opacity:1;vector-effect:none;fill:#000000;fill-opacity:1;fill-rule:evenodd;stroke:none;stroke-width:1.5;stroke-linecap:butt;stroke-linejoin:miter;stroke-miterlimit:4;stroke-dasharray:none;stroke-dashoffset:0;stroke-opacity:1;color-rendering:auto;image-rendering:auto;shape-rendering:auto;text-rendering:auto;enable-background:accumulate"
       d="m 25.046404,1011.3008 -0.238323,0.2383 c 0,0 -1.143396,1.1435 -2.291226,2.8573 -1.147829,1.7137 -2.32073,4.0083 -2.351682,6.3742 -0.01607,1.2283 0.609321,2.4171 1.521935,3.3067 0.912614,0.8896 2.125656,1.4939 3.359296,1.4939 1.23367,0 2.427925,-0.6062 3.318115,-1.4991 0.88952,-0.8923 1.487639,-2.0844 1.47024,-3.3129 0.01569,-2.3602 -1.133526,-4.6512 -2.269321,-6.3628 -1.136653,-1.713 -2.280712,-2.8573 -2.280712,-2.8573 z m 0,0.9761 c 0.287489,0.3014 1.050549,1.1239 1.958275,2.4918 1.098065,1.6548 2.173848,3.8537 2.158046,5.9905 v 0 0 c 0.01493,1.0007 -0.491082,2.0439 -1.274851,2.8301 -0.783767,0.7862 -1.832104,1.3011 -2.84147,1.3011 -1.009396,0 -2.083232,-0.5168 -2.889661,-1.3029 -0.806429,-0.7861 -1.331606,-1.8264 -1.318659,-2.816 0.02807,-2.1459 1.127816,-4.3508 2.237778,-6.008 0.917905,-1.3705 1.683011,-2.1933 1.970542,-2.4945 z"
       id="path5083"
       inkscape:connector-curvature="0" />
    <path
       style="color:#000000;font-style:normal;font-variant:normal;font-weight:normal;font-stretch:normal;font-size:medium;line-height:normal;font-family:sans-serif;font-variant-ligatures:normal;font-variant-position:normal;font-variant-caps:normal;font-variant-numeric:normal;font-variant-alternates:normal;font-feature-settings:normal;text-indent:0;text-align:start;text-decoration:none;text-decoration-line:none;text-decoration-style:solid;text-decoration-color:#000000;letter-spacing:normal;word-spacing:normal;text-transform:none;writing-mode:lr-tb;direction:ltr;text-orientation:mixed;dominant-baseline:auto;baseline-shift:baseline;text-anchor:start;white-space:normal;shape-padding:0;clip-rule:nonzero;display:inline;overflow:visible;visibility:visible;opacity:1;isolation:auto;mix-blend-mode:normal;color-interpolation:sRGB;color-interpolation-filters:linearRGB;solid-color:#000000;solid-opacity:1;vector-effect:none;fill:#000000;fill-opacity:1;fill-rule:evenodd;stroke:none;stroke-width:1.5;stroke-linecap:butt;stroke-linejoin:miter;stroke-miterlimit:4;stroke-dasharray:none;stroke-dashoffset:0;stroke-opacity:1;color-rendering:auto;image-rendering:auto;shape-rendering:auto;text-rendering:auto;enable-background:accumulate"
       d="m 13,1027.3861 -0.238323,0.2383 c 0,0 -1.143396,1.1435 -2.291226,2.8573 -1.147829,1.7137 -2.32073,4.0083 -2.351682,6.3742 -0.01607,1.2283 0.609321,2.4171 1.521935,3.3067 0.912614,0.8896 2.125656,1.4939 3.359296,1.4939 1.23367,0 2.427925,-0.6062 3.318115,-1.4991 0.88952,-0.8923 1.487639,-2.0844 1.47024,-3.3129 0.01569,-2.3602 -1.133526,-4.6512 -2.269321,-6.3628 -1.136653,-1.713 -2.280712,-2.8573 -2.280712,-2.8573 z m 0,0.9761 c 0.287489,0.3014 1.050549,1.1239 1.958275,2.4918 1.098065,1.6548 2.173848,3.8537 2.158046,5.9905 v 0 0 c 0.01493,1.0007 -0.491082,2.0439 -1.274851,2.8301 -0.783767,0.7862 -1.832104,1.3011 -2.84147,1.3011 -1.009396,0 -2.083232,-0.5168 -2.889661,-1.3029 -0.806429,-0.7861 -1.331606,-1.8264 -1.318659,-2.816 0.02807,-2.1459 1.127816,-4.3508 2.237778,-6.008 0.917905,-1.3705 1.683011,-2.1933 1.970542,-2.4945 z"
       id="path5083-2"
       inkscape:connector-curvature="0" />
    <path
       style="color:#000000;font-style:normal;font-variant:normal;font-weight:normal;font-stretch:normal;font-size:medium;line-height:normal;font-family:sans-serif;font-variant-ligatures:normal;font-variant-position:normal;font-variant-caps:normal;font-variant-numeric:normal;font-variant-alternates:normal;font-feature-settings:normal;text-indent:0;text-align:start;text-decoration:none;text-decoration-line:none;text-decoration-style:solid;text-decoration-color:#000000;letter-spacing:normal;word-spacing:normal;text-transform:none;writing-mode:lr-tb;direction:ltr;text-orientation:mixed;dominant-baseline:auto;baseline-shift:baseline;text-anchor:start;white-space:normal;shape-padding:0;clip-rule:nonzero;display:inline;overflow:visible;visibility:visible;opacity:1;isolation:auto;mix-blend-mode:normal;color-interpolation:sRGB;color-interpolation-filters:linearRGB;solid-color:#000000;solid-opacity:1;vector-effect:none;fill:#000000;fill-opacity:1;fill-rule:evenodd;stroke:none;stroke-width:1.5;stroke-linecap:butt;stroke-linejoin:miter;stroke-miterlimit:4;stroke-dasharray:none;stroke-dashoffset:0;stroke-opacity:1;color-rendering:auto;image-rendering:auto;shape-rendering:auto;text-rendering:auto;enable-background:accumulate"
       d="m 37,1027.3861 -0.238323,0.2383 c 0,0 -1.143396,1.1435 -2.291226,2.8573 -1.147829,1.7137 -2.32073,4.0083 -2.351682,6.3742 -0.01607,1.2283 0.609321,2.4171 1.521935,3.3067 0.912614,0.8896 2.125656,1.4939 3.359296,1.4939 1.23367,0 2.427925,-0.6062 3.318115,-1.4991 0.88952,-0.8923 1.487639,-2.0844 1.47024,-3.3129 0.01569,-2.3602 -1.133526,-4.6512 -2.269321,-6.3628 -1.136653,-1.713 -2.280712,-2.8573 -2.280712,-2.8573 z m 0,0.9761 c 0.287489,0.3014 1.050549,1.1239 1.958275,2.4918 1.098065,1.6548 2.173848,3.8537 2.158046,5.9905 v 0 0 c 0.01493,1.0007 -0.491082,2.0439 -1.274851,2.8301 -0.783767,0.7862 -1.832104,1.3011 -2.84147,1.3011 -1.009396,0 -2.083232,-0.5168 -2.889661,-1.3029 -0.806429,-0.7861 -1.331606,-1.8264 -1.318659,-2.816 0.02807,-2.1459 1.127816,-4.3508 2.237778,-6.008 0.917905,-1.3705 1.683011,-2.1933 1.970542,-2.4945 z"
       id="path5083-8"
       inkscape:connector-curvature="0" />
  </g>
</svg>
