<?xml version="1.0" encoding="UTF-8" standalone="no"?>
<!-- Created with Inkscape (http://www.inkscape.org/) -->

<svg
   xmlns:dc="http://purl.org/dc/elements/1.1/"
   xmlns:cc="http://creativecommons.org/ns#"
   xmlns:rdf="http://www.w3.org/1999/02/22-rdf-syntax-ns#"
   xmlns:svg="http://www.w3.org/2000/svg"
   xmlns="http://www.w3.org/2000/svg"
   xmlns:sodipodi="http://sodipodi.sourceforge.net/DTD/sodipodi-0.dtd"
   xmlns:inkscape="http://www.inkscape.org/namespaces/inkscape"
   width="50"
   height="50"
   viewBox="0 0 50 50.000001"
   id="svg2"
   version="1.1"
   inkscape:version="0.92.4 (5da689c313, 2019-01-14)"
   sodipodi:docname="DIN3814_Anzeige_der_abgelaufenen_Zeit.svg"
   inkscape:export-filename="P:\DIN.png"
   inkscape:export-xdpi="90"
   inkscape:export-ydpi="90">
  <defs
     id="defs4" />
  <sodipodi:namedview
     id="base"
     pagecolor="#ffffff"
     bordercolor="#666666"
     borderopacity="1.0"
     inkscape:pageopacity="0.0"
     inkscape:pageshadow="2"
     inkscape:zoom="9.7209677"
     inkscape:cx="-4.4945811"
     inkscape:cy="23.323417"
     inkscape:document-units="px"
     inkscape:current-layer="layer1"
     showgrid="true"
     units="px"
     showborder="true"
     borderlayer="false"
     inkscape:showpageshadow="true"
     inkscape:window-width="1624"
     inkscape:window-height="1011"
     inkscape:window-x="303"
     inkscape:window-y="206"
     inkscape:window-maximized="0">
    <inkscape:grid
       type="xygrid"
       id="grid16880" />
  </sodipodi:namedview>
  <metadata
     id="metadata7">
    <rdf:RDF>
      <cc:Work
         rdf:about="">
        <dc:format>image/svg+xml</dc:format>
        <dc:type
           rdf:resource="http://purl.org/dc/dcmitype/StillImage" />
        <dc:title></dc:title>
      </cc:Work>
    </rdf:RDF>
  </metadata>
  <g
     inkscape:label="Ebene 1"
     inkscape:groupmode="layer"
     id="layer1"
     transform="translate(0,-1002.3622)">
    <path
       style="color:#000000;font-style:normal;font-variant:normal;font-weight:normal;font-stretch:normal;font-size:medium;line-height:normal;font-family:sans-serif;font-variant-ligatures:normal;font-variant-position:normal;font-variant-caps:normal;font-variant-numeric:normal;font-variant-alternates:normal;font-feature-settings:normal;text-indent:0;text-align:start;text-decoration:none;text-decoration-line:none;text-decoration-style:solid;text-decoration-color:#000000;letter-spacing:normal;word-spacing:normal;text-transform:none;writing-mode:lr-tb;direction:ltr;text-orientation:mixed;dominant-baseline:auto;baseline-shift:baseline;text-anchor:start;white-space:normal;shape-padding:0;clip-rule:nonzero;display:inline;overflow:visible;visibility:visible;opacity:1;isolation:auto;mix-blend-mode:normal;color-interpolation:sRGB;color-interpolation-filters:linearRGB;solid-color:#000000;solid-opacity:1;vector-effect:none;fill:#000000;fill-opacity:1;fill-rule:nonzero;stroke:none;stroke-width:1.5;stroke-linecap:butt;stroke-linejoin:miter;stroke-miterlimit:4;stroke-dasharray:none;stroke-dashoffset:0;stroke-opacity:1;color-rendering:auto;image-rendering:auto;shape-rendering:auto;text-rendering:auto;enable-background:accumulate"
       d="M 29.074219,9.7929688 28.6875,11.240234 c 6.11826,1.639321 10.272715,7.043564 10.533203,13.136719 l 0.01172,0.748047 c -0.0069,0.688263 -0.06027,1.383923 -0.169922,2.082031 l -0.08984,0.507813 c -0.137571,0.709001 -0.327612,1.394023 -0.5625,2.05664 l -0.228515,0.607422 c -0.06822,0.167692 -0.14258,0.331938 -0.216797,0.496094 l -0.05859,0.121094 0.0039,0.002 c -0.201813,0.435333 -0.421876,0.859098 -0.664062,1.267578 l -0.0078,-0.0039 -0.277343,0.460937 c -0.08593,0.133104 -0.175511,0.262739 -0.265626,0.392578 l -0.248046,0.337891 0.01172,0.0078 c -0.284877,0.385676 -0.585568,0.758023 -0.90625,1.111328 l -0.01172,-0.01172 -0.197266,0.222656 c -0.10231,0.1081 -0.208907,0.211656 -0.314453,0.316406 l -0.498047,0.472657 0.0039,0.0059 c -0.354638,0.319551 -0.726732,0.618073 -1.111328,0.900391 l -0.0039,0.002 c -0.136299,0.09999 -0.276215,0.1959 -0.416016,0.291015 l -0.634765,0.410157 c -0.506598,0.306756 -1.032889,0.577985 -1.576172,0.820312 l -0.822266,0.339844 c -0.61116,0.227846 -1.240499,0.415847 -1.884765,0.558594 l -0.646485,0.125 c -0.697325,0.120772 -1.407592,0.194094 -2.130859,0.208984 l -0.351563,0.0039 c -0.397402,-0.0016 -0.796623,-0.01165 -1.199219,-0.04687 -0.393472,-0.03442 -0.779093,-0.09297 -1.162109,-0.158203 l -0.373047,-0.06836 c -0.296722,-0.05866 -0.589469,-0.128538 -0.878906,-0.205078 l -0.07813,-0.02148 v 0.0039 C 20.801515,38.616788 20.3456,38.472321 19.902355,38.302857 l 0.0059,-0.01367 -0.363281,-0.136718 c -0.170963,-0.0708 -0.338441,-0.147468 -0.50586,-0.22461 l -0.441406,-0.216796 -0.0059,0.01367 c -0.428012,-0.21548 -0.84087,-0.453251 -1.242188,-0.708984 l 0.0059,-0.0098 -0.160157,-0.09766 C 17.086239,36.836647 16.979966,36.761926 16.873047,36.6875 l -0.6875,-0.507812 -0.002,0.002 c -0.467534,-0.369029 -0.907368,-0.769978 -1.324219,-1.19336 l -0.558594,-0.597656 c -0.39789,-0.453377 -0.765428,-0.932439 -1.103515,-1.433594 L 12.78125,32.308594 c -0.324135,-0.541547 -0.610329,-1.106956 -0.861328,-1.691406 h 0.002 l -0.292969,-0.732422 c -0.05448,-0.149229 -0.106672,-0.299706 -0.15625,-0.451172 l -0.04492,-0.15625 -0.0078,0.002 c -0.142158,-0.451878 -0.264215,-0.911293 -0.361328,-1.380859 l 0.0098,-0.002 -0.109375,-0.558593 C 10.92411,27.126451 10.89283,26.91358 10.86728,26.69922 l -0.01953,-0.212891 -0.0098,0.002 C 10.78907,26.01845 10.76192,25.544251 10.75982,25.062548 h 0.0098 l -0.0039,-0.6875 0.06836,-0.738281 L 9.3398438,23.5 l -0.068359,0.753906 -0.00391,0.0332 v 0.03516 L 9.2695312,25 h -0.013672 c -10e-8,0.62664 0.049361,1.240941 0.1210937,1.849609 l 0.035156,0.355469 0.00195,0.03711 0.00781,0.03516 0.068359,0.351562 c 0.1246646,0.737456 0.2995152,1.456081 0.5234371,2.15625 l 0.105469,0.361328 0.01172,0.03516 0.01367,0.0332 0.117188,0.294922 c 0.07755,0.20699 0.162117,0.410425 0.248047,0.613281 l 0.01953,0.05078 h 0.002 c 0.206975,0.483867 0.438621,0.954098 0.691406,1.41211 l -0.0098,0.0039 0.130859,0.25 0.01758,0.03125 0.01758,0.0293 0.185547,0.291015 c 0.08321,0.13619 0.170609,0.268879 0.257813,0.402344 l 0.21289,0.332031 0.01172,-0.0078 c 0.297433,0.431307 0.61501,0.847032 0.953125,1.246093 l -0.01367,0.0098 0.02734,0.03711 0.02148,0.02539 0.02344,0.02539 0.21875,0.232422 c 0.113516,0.126815 0.232063,0.247998 0.349609,0.371093 l 0.369141,0.394532 0.02148,0.02539 0.02539,0.02148 0.06445,0.05859 0.0098,-0.0098 c 0.376431,0.361123 0.768513,0.706461 1.179687,1.029297 l -0.002,0.002 0.04883,0.03516 c 0.159008,0.123876 0.322459,0.24152 0.486328,0.359375 l 0.384766,0.283203 0.02539,0.02148 0.0293,0.01758 0.242187,0.146484 c 0.574975,0.369296 1.176837,0.696685 1.800782,0.990234 l 0.408203,0.199219 0.0293,0.01367 0.0332,0.01172 0.248047,0.0957 c 0.638377,0.261986 1.298006,0.480543 1.976562,0.658203 l 0.445313,0.125 0.0332,0.0098 0.03516,0.0098 0.445313,0.08008 c 0.122409,0.02396 0.245684,0.04527 0.369141,0.06641 l 0.05859,0.0098 v -0.002 c 0.406745,0.06806 0.815169,0.13146 1.232422,0.167969 0.109427,0.0096 0.217044,0.0044 0.326172,0.01172 0.0059,3.93e-4 0.01168,0.0016 0.01758,0.002 l 0.378906,0.0332 0.03711,0.0098 h 0.03516 l 0.542969,-0.0039 c 0.118838,3.33e-4 0.237117,-0.0016 0.355468,-0.0039 l 0.203126,-0.002 v -0.0098 c 0.527859,-0.01731 1.048548,-0.06179 1.564453,-0.130859 v 0.0039 l 0.257812,-0.02734 h 0.03516 0.03516 l 0.498045,-0.101562 c 0.120454,-0.02273 0.239787,-0.04873 0.359376,-0.07422 l 0.357421,-0.07227 -0.0039,-0.01562 c 0.512541,-0.121787 1.016055,-0.268295 1.509766,-0.439454 l 0.0039,0.01172 0.117187,-0.03516 0.03516,-0.01172 0.03125,-0.01563 0.25,-0.101562 c 0.218334,-0.08298 0.432581,-0.173243 0.646485,-0.265625 l 0.378906,-0.154297 -0.0059,-0.01563 c 0.495843,-0.229638 0.979425,-0.481042 1.447266,-0.759766 l 0.0078,0.01367 0.230469,-0.150391 c 0.117512,-0.0728 0.23214,-0.148788 0.347656,-0.224609 l 0.5,-0.326172 0.0293,-0.01758 0.02734,-0.02148 0.167968,-0.134766 -0.0039,-0.0039 c 0.419873,-0.310274 0.82742,-0.637877 1.214844,-0.988282 0.002,-0.0018 0.0038,-0.004 0.0059,-0.0059 0.104526,-0.09464 0.204631,-0.193572 0.306641,-0.291015 l 0.427734,-0.40625 0.02344,-0.02344 0.02148,-0.02344 0.191406,-0.21875 c 0.460839,-0.496175 0.88585,-1.025286 1.28125,-1.580078 l 0.275391,-0.375 0.01953,-0.02734 0.01758,-0.02734 0.136719,-0.228516 c 0.375565,-0.588004 0.710778,-1.204601 1.007813,-1.845703 l 0.1875,-0.388672 0.01367,-0.03125 0.01172,-0.03125 0.103516,-0.277344 c 0.07809,-0.193798 0.150058,-0.390018 0.220703,-0.58789 l 0.03711,-0.0957 -0.0039,-0.002 c 0.171283,-0.48988 0.317697,-0.990919 0.441406,-1.503907 l 0.0098,0.002 0.06055,-0.228515 0.0098,-0.0332 0.0059,-0.03516 0.06445,-0.373047 c 0.01924,-0.09826 0.04895,-0.192021 0.06641,-0.291016 0.01897,-0.107586 0.02433,-0.214777 0.04102,-0.322266 l 0.04492,-0.257812 -0.01172,-0.002 c 0.07227,-0.522253 0.116953,-1.042921 0.136719,-1.560547 l 0.01563,0.002 0.0039,-0.05469 0.0039,-0.03516 -0.002,-0.03711 -0.0059,-0.355469 c 0.0019,-0.251172 -0.0016,-0.500678 -0.01172,-0.75 l -0.0059,-0.33789 h -0.01563 C 40.288131,17.413969 35.727124,11.575612 29.074219,9.7929688 Z m -9.15625,0.3046872 -0.669922,0.261719 0.548828,1.398437 0.669922,-0.263671 z m -2.09961,0.908203 -0.574218,0.291016 -0.03125,0.01563 -0.03125,0.01953 -0.722657,0.457031 0.800782,1.267579 0.695312,-0.4375 0.541016,-0.275391 z m -2.632812,1.697266 -0.341797,0.263672 -0.02734,0.02148 -0.02539,0.02344 -0.78125,0.728515 1.019531,1.097657 0.753906,-0.703125 0.318359,-0.244141 z m -2.246094,2.181641 -0.115234,0.134765 -0.02344,0.02344 -0.02148,0.02539 -0.789063,1.064453 1.205078,0.894532 0.777344,-1.046875 0.08399,-0.0957 z m -1.794922,2.648437 -0.558593,1.132813 -0.01367,0.03125 -0.01367,0.03125 -0.08399,0.220703 1.398438,0.539062 0.07226,-0.189453 0.542969,-1.103516 z m -1.1992185,2.892578 -0.2714844,0.957031 -0.00781,0.03516 -0.00586,0.0332 -0.09375,0.496094 1.4765629,0.273437 0.08398,-0.455078 0.261719,-0.931641 z"
       transform="translate(0,1002.3622)"
       id="path3336"
       inkscape:connector-curvature="0" />
    <path
       style="fill:#000000;fill-opacity:1;stroke:#000000;stroke-width:0;stroke-miterlimit:4;stroke-dasharray:none;stroke-dashoffset:0;stroke-opacity:1"
       d="m 24.25,14.261719 v 9.441406 A 1.4999996,1.4999996 0 0 0 23.703125,24.25 h -5.832031 v 1.5 h 5.832031 A 1.4999996,1.4999996 0 0 0 25,26.5 1.4999996,1.4999996 0 0 0 26.5,25 1.4999996,1.4999996 0 0 0 25.75,23.703125 v -9.441406 z"
       transform="translate(0,1002.3622)"
       id="path4193"
       inkscape:connector-curvature="0" />
    <circle
       style="opacity:1;fill:#000000;fill-opacity:1;stroke:none;stroke-width:0;stroke-linecap:square;stroke-linejoin:miter;stroke-miterlimit:4;stroke-dasharray:none;stroke-dashoffset:0;stroke-opacity:1"
       id="path5057"
       cx="25"
       cy="1012.3072"
       r="1.5" />
  </g>
</svg>
