<?xml version="1.0" encoding="UTF-8" standalone="no"?>
<!-- Created with Inkscape (http://www.inkscape.org/) -->

<svg
   xmlns:dc="http://purl.org/dc/elements/1.1/"
   xmlns:cc="http://creativecommons.org/ns#"
   xmlns:rdf="http://www.w3.org/1999/02/22-rdf-syntax-ns#"
   xmlns:svg="http://www.w3.org/2000/svg"
   xmlns="http://www.w3.org/2000/svg"
   xmlns:sodipodi="http://sodipodi.sourceforge.net/DTD/sodipodi-0.dtd"
   xmlns:inkscape="http://www.inkscape.org/namespaces/inkscape"
   width="50"
   height="50"
   viewBox="0 0 50 50.000001"
   id="svg2"
   version="1.1"
   inkscape:version="0.92.4 (5da689c313, 2019-01-14)"
   sodipodi:docname="DIN3813_Anzeige_der_verbleibenden_Zeit.svg"
   inkscape:export-filename="P:\DIN.png"
   inkscape:export-xdpi="90"
   inkscape:export-ydpi="90">
  <defs
     id="defs4" />
  <sodipodi:namedview
     id="base"
     pagecolor="#ffffff"
     bordercolor="#666666"
     borderopacity="1.0"
     inkscape:pageopacity="0.0"
     inkscape:pageshadow="2"
     inkscape:zoom="9.7209677"
     inkscape:cx="-4.4945811"
     inkscape:cy="23.323417"
     inkscape:document-units="px"
     inkscape:current-layer="layer1"
     showgrid="true"
     units="px"
     showborder="true"
     borderlayer="false"
     inkscape:showpageshadow="true"
     inkscape:window-width="1624"
     inkscape:window-height="1011"
     inkscape:window-x="218"
     inkscape:window-y="196"
     inkscape:window-maximized="0">
    <inkscape:grid
       type="xygrid"
       id="grid16880" />
  </sodipodi:namedview>
  <metadata
     id="metadata7">
    <rdf:RDF>
      <cc:Work
         rdf:about="">
        <dc:format>image/svg+xml</dc:format>
        <dc:type
           rdf:resource="http://purl.org/dc/dcmitype/StillImage" />
        <dc:title></dc:title>
      </cc:Work>
    </rdf:RDF>
  </metadata>
  <g
     inkscape:label="Ebene 1"
     inkscape:groupmode="layer"
     id="layer1"
     transform="translate(0,-1002.3622)">
    <path
       style="color:#000000;font-style:normal;font-variant:normal;font-weight:normal;font-stretch:normal;font-size:medium;line-height:normal;font-family:sans-serif;font-variant-ligatures:normal;font-variant-position:normal;font-variant-caps:normal;font-variant-numeric:normal;font-variant-alternates:normal;font-feature-settings:normal;text-indent:0;text-align:start;text-decoration:none;text-decoration-line:none;text-decoration-style:solid;text-decoration-color:#000000;letter-spacing:normal;word-spacing:normal;text-transform:none;writing-mode:lr-tb;direction:ltr;text-orientation:mixed;dominant-baseline:auto;baseline-shift:baseline;text-anchor:start;white-space:normal;shape-padding:0;clip-rule:nonzero;display:inline;overflow:visible;visibility:visible;opacity:1;isolation:auto;mix-blend-mode:normal;color-interpolation:sRGB;color-interpolation-filters:linearRGB;solid-color:#000000;solid-opacity:1;vector-effect:none;fill:#000000;fill-opacity:1;fill-rule:nonzero;stroke:none;stroke-width:1.5;stroke-linecap:butt;stroke-linejoin:miter;stroke-miterlimit:4;stroke-dasharray:none;stroke-dashoffset:0;stroke-opacity:1;color-rendering:auto;image-rendering:auto;shape-rendering:auto;text-rendering:auto;enable-background:accumulate"
       d="m 28.121094,9.5644531 -0.365235,1.4589849 1.361329,0.33789 0.02344,0.0098 h 0.002 0.01367 l 0.03906,-0.154297 0.445313,-1.2617189 -0.05078,-0.019531 -0.03516,-0.011719 -0.0332,-0.00977 z M 20.923828,9.7929688 C 14.043968,11.636369 9.2558597,17.8775 9.2558594,25 h 1.4999996 c 1e-6,-6.4509 4.325555,-12.090166 10.556641,-13.759766 z m 10.19336,0.7031252 -0.63086,1.361328 1.109375,0.515625 0.179688,0.103515 0.753906,-1.296874 -0.203125,-0.119141 -0.03125,-0.01758 -0.0332,-0.01563 z m 2.748046,1.505859 -0.871093,1.21875 0.802734,0.574219 0.335937,0.289062 0.980469,-1.134765 -0.359375,-0.310547 -0.02539,-0.02148 -0.02734,-0.01953 z m 2.394532,2.013672 -1.078125,1.042969 0.509765,0.529297 0.435547,0.542968 1.169922,-0.939453 -0.464844,-0.578125 -0.02148,-0.02734 -0.02344,-0.02539 z m 1.951172,2.445313 -1.248047,0.830078 0.248047,0.375 0.46875,0.865234 1.318359,-0.714844 -0.484375,-0.894531 -0.01563,-0.03125 -0.01953,-0.02734 z m 1.4375,2.783203 -1.378907,0.589843 0.06641,0.154297 0.388671,1.201172 1.427735,-0.460937 -0.396485,-1.222657 -0.01172,-0.0332 -0.01367,-0.03125 z m 0.867187,3.082031 -1.486328,0.189453 0.169922,1.322266 0.002,0.09766 1.5,-0.05078 -0.0039,-0.123047 v -0.03516 l -0.0059,-0.03516 z m -1.283203,3.035156 -0.07227,1.197266 -0.03906,0.226562 1.484375,0.234375 0.03906,-0.255859 0.0059,-0.03516 0.002,-0.03516 0.07813,-1.238281 z m -28.451172,0.523438 -1.4902344,0.166015 0.080078,0.714844 1.4902344,-0.167969 z m 0.310547,2.11914 -1.4687501,0.310547 0.1328125,0.630859 0.00781,0.03516 0.011719,0.03125 0.2539066,0.818359 1.431641,-0.445312 -0.242188,-0.78125 z m 27.779297,0.185547 -0.267578,1.041016 -0.121094,0.332031 1.410156,0.511719 0.136719,-0.375 0.01172,-0.0332 0.0078,-0.0332 0.275391,-1.068359 z m -26.90625,2.529297 -1.382813,0.580078 0.166016,0.396484 0.01172,0.03125 0.01758,0.03125 0.501953,0.94336 L 12.603516,32 12.119141,31.083984 Z m 25.992187,0.173828 -0.357422,0.75586 -0.300781,0.511718 1.292969,0.761719 0.310547,-0.523437 0.01758,-0.03125 0.01563,-0.03125 0.376953,-0.804688 z m -24.591797,2.316406 -1.253906,0.822266 0.0957,0.146484 0.01953,0.0293 0.02149,0.02539 0.822265,1.039062 1.173829,-0.933593 -0.806641,-1.019532 z m 23.152344,0.150391 -0.347656,0.478516 -0.548828,0.634765 1.130859,0.984375 0.568359,-0.654297 0.02148,-0.02539 0.02344,-0.02734 0.369141,-0.513672 z m -21.328125,1.962891 -0.988281,1.128906 0.951172,0.832031 0.02344,0.02344 0.0293,0.01953 0.191406,0.140625 0.882813,-1.214844 -0.167969,-0.121094 z m 19.427735,0.169922 -0.238282,0.230468 -0.861328,0.685547 0.935547,1.171875 0.890625,-0.710937 0.02734,-0.02148 0.02539,-0.02539 0.257813,-0.248047 z m -17.164063,1.576171 -0.767578,1.289063 0.855469,0.509766 0.0293,0.01758 0.03125,0.01563 0.453126,0.216797 0.648437,-1.353516 -0.439453,-0.210938 z m 14.878906,0.138672 -0.04297,0.03125 -1.148437,0.617188 h -0.0078 l -0.01953,0.01172 0.113281,0.21289 0.492188,1.15625 0.04102,-0.01953 0.0332,-0.01367 0.0293,-0.01563 1.205078,-0.646484 0.03125,-0.01758 0.02734,-0.01758 0.07227,-0.04687 z m -12.318359,1.123047 -0.517578,1.40625 0.710937,0.261719 0.0332,0.01563 0.03516,0.0098 0.716797,0.189453 0.384765,-1.449219 -0.6875,-0.183594 z m 9.796875,0.06641 -1.125,0.365235 -0.244141,0.05273 0.320313,1.464844 0.277343,-0.05859 0.03516,-0.01172 0.0332,-0.01172 1.158203,-0.369141 z m -7.037109,0.660157 -0.246094,1.476562 0.570312,0.0957 0.03516,0.01172 h 0.03516 l 0.919922,0.06445 0.105468,-1.496094 -0.890625,-0.06445 z m 4.267578,0.03516 -0.996094,0.115234 -0.423828,0.0098 0.03516,1.5 0.464844,-0.01172 h 0.03516 0.03516 l 1.029297,-0.125 z"
       transform="translate(0,1002.3622)"
       id="path3336"
       inkscape:connector-curvature="0" />
    <path
       style="fill:#000000;fill-opacity:1;stroke:#000000;stroke-width:0;stroke-miterlimit:4;stroke-dasharray:none;stroke-dashoffset:0;stroke-opacity:1"
       d="m 24.25,14.261719 v 9.441406 A 1.4999996,1.4999996 0 0 0 23.703125,24.25 h -5.832031 v 1.5 h 5.832031 A 1.4999996,1.4999996 0 0 0 25,26.5 1.4999996,1.4999996 0 0 0 26.5,25 1.4999996,1.4999996 0 0 0 25.75,23.703125 v -9.441406 z"
       transform="translate(0,1002.3622)"
       id="path4193"
       inkscape:connector-curvature="0" />
    <circle
       style="opacity:1;fill:#000000;fill-opacity:1;stroke:none;stroke-width:0;stroke-linecap:square;stroke-linejoin:miter;stroke-miterlimit:4;stroke-dasharray:none;stroke-dashoffset:0;stroke-opacity:1"
       id="path5057"
       cx="25"
       cy="1012.3072"
       r="1.5" />
  </g>
</svg>
