<?xml version="1.0" encoding="UTF-8" standalone="no"?>
<svg
   xmlns:dc="http://purl.org/dc/elements/1.1/"
   xmlns:cc="http://creativecommons.org/ns#"
   xmlns:rdf="http://www.w3.org/1999/02/22-rdf-syntax-ns#"
   xmlns:svg="http://www.w3.org/2000/svg"
   xmlns="http://www.w3.org/2000/svg"
   xmlns:sodipodi="http://sodipodi.sourceforge.net/DTD/sodipodi-0.dtd"
   xmlns:inkscape="http://www.inkscape.org/namespaces/inkscape"
   width="48"
   height="48"
   viewBox="0 0 48 48.000001"
   id="svg2"
   version="1.1"
   inkscape:version="1.0.1 (3bc2e813f5, 2020-09-07)"
   sodipodi:docname="DIN3296_Bewegung_handbetaetigt.svg"
   inkscape:export-filename="P:\Files\Axialis\Library\Baldwin\Inkscape-png-export\DIN3296_Bewegung_handbetaetigt.png"
   inkscape:export-xdpi="96"
   inkscape:export-ydpi="96">
  <defs
     id="defs4" />
  <sodipodi:namedview
     id="base"
     pagecolor="#ffffff"
     bordercolor="#666666"
     borderopacity="1.0"
     inkscape:pageopacity="0.0"
     inkscape:pageshadow="2"
     inkscape:zoom="9.7209677"
     inkscape:cx="17.982605"
     inkscape:cy="23.323417"
     inkscape:document-units="px"
     inkscape:current-layer="g5156"
     showgrid="true"
     units="px"
     showborder="true"
     borderlayer="false"
     inkscape:showpageshadow="true"
     inkscape:window-width="1920"
     inkscape:window-height="1017"
     inkscape:window-x="-8"
     inkscape:window-y="-8"
     inkscape:window-maximized="1"
     inkscape:snap-grids="false"
     inkscape:document-rotation="0">
    <inkscape:grid
       type="xygrid"
       id="grid5234" />
  </sodipodi:namedview>
  <metadata
     id="metadata7">
    <rdf:RDF>
      <cc:Work
         rdf:about="">
        <dc:format>image/svg+xml</dc:format>
        <dc:type
           rdf:resource="http://purl.org/dc/dcmitype/StillImage" />
        <dc:title></dc:title>
      </cc:Work>
    </rdf:RDF>
  </metadata>
  <g
     inkscape:groupmode="layer"
     id="layer2"
     inkscape:label="Schwamm-Füllung" />
  <g
     inkscape:label="Ebene 1"
     inkscape:groupmode="layer"
     id="layer1"
     transform="translate(0,-1004.3622)">
    <g
       id="g5156"
       transform="translate(-3.0534374,-9.6774248)"
       style="stroke-width:1.5;stroke-miterlimit:4;stroke-dasharray:none">
      <path
         id="path4360"
         style="color:#000000;font-style:normal;font-variant:normal;font-weight:normal;font-stretch:normal;font-size:medium;line-height:normal;font-family:sans-serif;font-variant-ligatures:normal;font-variant-position:normal;font-variant-caps:normal;font-variant-numeric:normal;font-variant-alternates:normal;font-variant-east-asian:normal;font-feature-settings:normal;font-variation-settings:normal;text-indent:0;text-align:start;text-decoration:none;text-decoration-line:none;text-decoration-style:solid;text-decoration-color:#000000;letter-spacing:normal;word-spacing:normal;text-transform:none;writing-mode:lr-tb;direction:ltr;text-orientation:mixed;dominant-baseline:auto;baseline-shift:baseline;text-anchor:start;white-space:normal;shape-padding:0;shape-margin:0;inline-size:0;clip-rule:nonzero;display:inline;overflow:visible;visibility:visible;isolation:auto;mix-blend-mode:normal;color-interpolation:sRGB;color-interpolation-filters:linearRGB;solid-color:#000000;solid-opacity:1;vector-effect:none;fill:#000000;fill-opacity:1;fill-rule:evenodd;stroke:none;stroke-width:1.5;stroke-linecap:butt;stroke-linejoin:miter;stroke-miterlimit:4;stroke-dasharray:none;stroke-dashoffset:0;stroke-opacity:1;color-rendering:auto;image-rendering:auto;shape-rendering:auto;text-rendering:auto;enable-background:accumulate;stop-color:#000000"
         d="M 22.023438,9.3261719 C 21.639304,9.3689172 21.273093,9.5417625 20.9375,9.7734375 L 20.619141,9.9941406 C 20.373276,9.8603733 20.116775,9.7612698 19.835938,9.7148438 c -0.546238,-0.09 -1.126321,0.07495 -1.605469,0.4062502 l -0.228516,0.158203 C 17.682392,10.026409 17.359698,9.8031374 17.005859,9.6582031 v 0.00195 C 16.443611,9.4299563 15.760967,9.4113187 15.175781,9.6992188 l -0.01172,0.00977 -4.804687,2.5800772 0.07031,-0.0332 c -0.5989185,0.245 -1.01891,0.746916 -1.164063,1.291016 -0.145152,0.5441 -0.04678,1.119344 0.2597656,1.589844 0.306547,0.4704 0.8426504,0.828409 1.4863284,0.912109 0.643679,0.084 1.364113,-0.091 2.123047,-0.533203 l 0.01367,-0.0098 0.01172,-0.0098 c 0.308431,-0.1963 1.01964,-0.538381 1.84375,-0.613282 0.82411,-0.075 1.756214,0.07606 2.740235,0.88086 h 0.0078 l 0.0059,0.0098 c 1.138131,0.8892 1.859232,1.586681 2.210938,2.113281 0.323615,0.4845 0.329297,0.755953 0.238281,1.126953 -0.03246,0.02 -0.113305,0.111409 -0.375,0.224609 -0.317245,0.1373 -0.750132,0.263328 -1.173828,0.361328 -0.847393,0.196 -1.648437,0.283203 -1.648437,0.283203 h -0.02734 l -0.0293,0.0098 c -1.322301,0.2451 -2.155536,1.237719 -2.246094,2.261719 -0.04528,0.5119 0.08765,1.04379 0.427735,1.462891 0.340081,0.4192 0.888726,0.690456 1.5,0.722656 h 0.01953 0.01953 c 6.263576,0 9.350549,0.302559 11.103516,0.880859 1.752967,0.5784 2.302303,1.404738 3.779297,2.835938 0.101797,0.099 0.205514,0.198228 0.3125,0.298828 l 1.027343,-1.091797 c -0.103485,-0.097 -0.200999,-0.192003 -0.294922,-0.283203 h -0.002 c -1.40083,-1.3574 -2.266705,-2.495094 -4.353515,-3.183594 -2.081931,-0.68689 -5.253668,-0.953834 -11.533203,-0.955078 -0.252518,-0.013 -0.343503,-0.08492 -0.41211,-0.169922 -0.06861,-0.084 -0.11456,-0.215766 -0.09961,-0.384766 0.02972,-0.336015 0.267955,-0.772903 1.013672,-0.916015 -0.0028,3.1e-4 -0.04492,0.0059 -0.04492,0.0059 l 0.05664,-0.0098 c -0.0047,8.64e-4 -0.0071,0.003 -0.01172,0.0039 0.06653,-0.0074 0.866194,-0.09702 1.78125,-0.308594 0.476828,-0.1103 0.97802,-0.249012 1.43164,-0.445312 0.45362,-0.196301 0.899184,-0.414647 1.179688,-0.935547 l 0.03711,-0.07031 0.02148,-0.07422 c 0.238689,-0.8115 0.07172,-1.700568 -0.449219,-2.480468 -0.519713,-0.7782 -1.344232,-1.530632 -2.529297,-2.457032 -1.286605,-1.0491 -2.681711,-1.312284 -3.818359,-1.208984 -1.138881,0.1036 -2.021959,0.53085 -2.513672,0.84375 l 0.02344,-0.01563 c -0.550393,0.321 -0.938784,0.370444 -1.173828,0.339844 -0.235043,-0.031 -0.346766,-0.123888 -0.423828,-0.242188 -0.07706,-0.1183 -0.09727,-0.269165 -0.06641,-0.384765 0.03086,-0.1157 0.08198,-0.206763 0.283203,-0.289063 l 0.03516,-0.01563 4.806641,-2.580078 h 0.002 c 0.216471,-0.1062 0.325701,-0.1067 0.595703,0 0.270888,0.1109 0.658744,0.386341 1.111328,0.806641 0.905169,0.8407 2.072363,2.21859 3.640625,3.71289 l 1.035156,-1.085937 c -1.24518,-1.186485 -2.206131,-2.257652 -3.091797,-3.150391 0.212822,-0.137779 0.317983,-0.157775 0.457032,-0.134766 0.151684,0.025 0.413145,0.146494 0.773437,0.433594 0.720583,0.5742 1.763405,1.731344 3.320313,3.214844 l 1.035156,-1.085938 c -1.205366,-1.148532 -2.076915,-2.088647 -2.845703,-2.796874 0.205303,-0.127818 0.303719,-0.150227 0.347656,-0.144532 0.05092,0.01 0.204937,0.06707 0.484375,0.322266 0.558877,0.5101 1.461812,1.645125 3.03125,3.140625 l 1.035156,-1.085938 c -0.780249,-0.743428 -1.369023,-1.378671 -1.863281,-1.917968 l 0.302735,-0.271485 c 0.116492,-0.1047 0.179376,-0.132272 0.203124,-0.138672 0.02375,-0.01 0.03906,-0.01666 0.164063,0.02734 0.250004,0.089 0.837058,0.484478 1.724609,1.330078 1.775102,1.6912 4.825918,5.09135 10.328125,11.09375 L 38.73635,22.302728 C 33.238557,16.305128 30.216503,12.926513 28.337913,11.136713 27.398618,10.241813 26.762402,9.72071 26.0801,9.47851 25.73895,9.35731 25.361937,9.32601 25.025413,9.41601 v 0.00195 c -0.336524,0.091 -0.600006,0.2763031 -0.816407,0.4707031 l -0.335937,0.3007809 c -0.05168,-0.04988 -0.107232,-0.111676 -0.158203,-0.158203 -0.375045,-0.3422998 -0.776527,-0.6332717 -1.300782,-0.7011717 -0.131063,-0.017 -0.26258,-0.018155 -0.390624,-0.00391 z"
         transform="translate(3.0534374,1014.0396)" />
    </g>
    <path
       id="path4356"
       style="color:#000000;font-style:normal;font-variant:normal;font-weight:normal;font-stretch:normal;font-size:medium;line-height:125%;font-family:Arial;-inkscape-font-specification:Arial;font-variant-ligatures:normal;font-variant-position:normal;font-variant-caps:normal;font-variant-numeric:normal;font-variant-alternates:normal;font-variant-east-asian:normal;font-feature-settings:normal;font-variation-settings:normal;text-indent:0;text-align:start;text-decoration:none;text-decoration-line:none;text-decoration-style:solid;text-decoration-color:#000000;letter-spacing:0px;word-spacing:0px;text-transform:none;writing-mode:lr-tb;direction:ltr;text-orientation:mixed;dominant-baseline:auto;baseline-shift:baseline;text-anchor:start;white-space:normal;shape-padding:0;shape-margin:0;inline-size:0;clip-rule:nonzero;display:inline;overflow:visible;visibility:visible;opacity:1;isolation:auto;mix-blend-mode:normal;color-interpolation:sRGB;color-interpolation-filters:linearRGB;solid-color:#000000;solid-opacity:1;vector-effect:none;fill:#000000;fill-opacity:1;fill-rule:evenodd;stroke:none;stroke-width:1.5;stroke-linecap:butt;stroke-linejoin:miter;stroke-miterlimit:4;stroke-dasharray:none;stroke-dashoffset:0;stroke-opacity:1;color-rendering:auto;image-rendering:auto;shape-rendering:auto;text-rendering:auto;enable-background:accumulate;stop-color:#000000;stop-opacity:1"
       d="m 16.742188,31.34375 -7.3417974,3.669922 7.3417974,3.671875 0.669921,-1.341797 -3.158203,-1.580078 h 19.492188 l -3.158203,1.580078 0.669921,1.341797 7.341797,-3.671875 -7.341797,-3.669922 -0.669921,1.341797 3.158203,1.578125 H 14.253906 l 3.158203,-1.578125 z"
       transform="translate(0,1004.3622)" />
  </g>
</svg>
