<?xml version="1.0" encoding="UTF-8" standalone="no"?>
<!-- Created with Inkscape (http://www.inkscape.org/) -->

<svg
   xmlns:dc="http://purl.org/dc/elements/1.1/"
   xmlns:cc="http://creativecommons.org/ns#"
   xmlns:rdf="http://www.w3.org/1999/02/22-rdf-syntax-ns#"
   xmlns:svg="http://www.w3.org/2000/svg"
   xmlns="http://www.w3.org/2000/svg"
   xmlns:sodipodi="http://sodipodi.sourceforge.net/DTD/sodipodi-0.dtd"
   xmlns:inkscape="http://www.inkscape.org/namespaces/inkscape"
   width="50"
   height="50"
   viewBox="0 0 50 50.000001"
   id="svg2"
   version="1.1"
   inkscape:version="0.92.4 (5da689c313, 2019-01-14)"
   sodipodi:docname="DIN3883_Naechste_Seite.svg"
   inkscape:export-filename="P:\Files\Axialis\Library\Baldwin\Inkscape-png-export\DIN0440_Behaeltnis.png"
   inkscape:export-xdpi="92.160004"
   inkscape:export-ydpi="92.160004">
  <defs
     id="defs4" />
  <sodipodi:namedview
     id="base"
     pagecolor="#ffffff"
     bordercolor="#666666"
     borderopacity="1.0"
     inkscape:pageopacity="0.0"
     inkscape:pageshadow="2"
     inkscape:zoom="19.441935"
     inkscape:cx="-4.6819098"
     inkscape:cy="26.420646"
     inkscape:document-units="px"
     inkscape:current-layer="layer1"
     showgrid="true"
     units="px"
     showborder="true"
     borderlayer="false"
     inkscape:showpageshadow="true"
     inkscape:window-width="2560"
     inkscape:window-height="1377"
     inkscape:window-x="-8"
     inkscape:window-y="-8"
     inkscape:window-maximized="1"
     inkscape:snap-global="true">
    <inkscape:grid
       type="xygrid"
       id="grid5234" />
  </sodipodi:namedview>
  <metadata
     id="metadata7">
    <rdf:RDF>
      <cc:Work
         rdf:about="">
        <dc:format>image/svg+xml</dc:format>
        <dc:type
           rdf:resource="http://purl.org/dc/dcmitype/StillImage" />
        <dc:title />
      </cc:Work>
    </rdf:RDF>
  </metadata>
  <g
     inkscape:groupmode="layer"
     id="layer2"
     inkscape:label="Schwamm-Füllung"
     transform="translate(0,2)" />
  <g
     inkscape:label="Ebene 1"
     inkscape:groupmode="layer"
     id="layer1"
     transform="translate(0,-1002.3622)">
    <path
       id="path820"
       style="color:#000000;font-style:normal;font-variant:normal;font-weight:normal;font-stretch:normal;font-size:medium;line-height:normal;font-family:sans-serif;font-variant-ligatures:normal;font-variant-position:normal;font-variant-caps:normal;font-variant-numeric:normal;font-variant-alternates:normal;font-feature-settings:normal;text-indent:0;text-align:start;text-decoration:none;text-decoration-line:none;text-decoration-style:solid;text-decoration-color:#000000;letter-spacing:normal;word-spacing:normal;text-transform:none;writing-mode:lr-tb;direction:ltr;text-orientation:mixed;dominant-baseline:auto;baseline-shift:baseline;text-anchor:start;white-space:normal;shape-padding:0;clip-rule:nonzero;display:inline;overflow:visible;visibility:visible;opacity:1;isolation:auto;mix-blend-mode:normal;color-interpolation:sRGB;color-interpolation-filters:linearRGB;solid-color:#000000;solid-opacity:1;vector-effect:none;fill:#000000;fill-opacity:1;fill-rule:nonzero;stroke:none;stroke-width:1.5;stroke-linecap:butt;stroke-linejoin:miter;stroke-miterlimit:4;stroke-dasharray:none;stroke-dashoffset:0;stroke-opacity:1;color-rendering:auto;image-rendering:auto;shape-rendering:auto;text-rendering:auto;enable-background:accumulate"
       d="m 11.25,1008.6113 v 32.9746 h 6.496094 v -1.5 H 12.75 v -29.9746 h 19.5 v 3.25 h 1.5 v -4.75 z m 12.310547,14.1758 v 3.3301 h -9 v 6.9902 h 9 v 3.3301 l 11.189453,-6.8262 -1.050781,-0.6386 z m 1.5,2.6719 6.810547,4.1543 -6.810547,4.1523 v -2.1582 h -9 v -3.9902 h 9 z M 17,1013.8613 h -0.75 v 3 h 1.5 v -2.25 h 3.75 v -1.5 H 17 Z m 6,0.75 h 4.5 v -1.5 H 23 Z m 6,0 h 4.5 v -1.5 H 29 Z m 6,0 h 2.25 v 0.75 h 1.5 v -1.5 -0.75 H 38 35 Z m 2.25,6.75 h 1.5 v -4.5 h -1.5 z m -21,1.5 h 1.5 v -4.5 h -1.5 z m 21,4.5 h 1.5 v -4.5 h -1.5 z m -21,-0.4545 h 1.5 v -2.5455 h -1.5 z m 21,6.4545 h 1.5 v -4.5 h -1.5 z m -21,1.5 h 1.5 v -2.6998 h -1.5 z m 21,4.5 h 1.5 v -4.5 h -1.5 z m -21,1.5 h 1.5 v -4.5 h -1.5 z m 21,4.5 h 1.5 v -4.5 h -1.5 z m -21,0 v 0.75 H 17 18.5 v -1.5 h -0.75 v -2.25 h -1.5 z m 3.75,0.75 h 4.5 v -1.5 H 20 Z m 6,0 h 4.5 v -1.5 H 26 Z m 6,0 h 4.5 v -1.5 H 32 Z"
       inkscape:connector-curvature="0" />
  </g>
  <g
     inkscape:groupmode="layer"
     id="layer3"
     inkscape:label="Hand"
     sodipodi:insensitive="true"
     transform="translate(0,2)" />
</svg>
