<?xml version="1.0" encoding="UTF-8" standalone="no"?>
<svg
   xmlns:dc="http://purl.org/dc/elements/1.1/"
   xmlns:cc="http://creativecommons.org/ns#"
   xmlns:rdf="http://www.w3.org/1999/02/22-rdf-syntax-ns#"
   xmlns:svg="http://www.w3.org/2000/svg"
   xmlns="http://www.w3.org/2000/svg"
   xmlns:sodipodi="http://sodipodi.sourceforge.net/DTD/sodipodi-0.dtd"
   xmlns:inkscape="http://www.inkscape.org/namespaces/inkscape"
   width="50"
   height="50"
   viewBox="0 0 50 50.000001"
   id="svg2"
   version="1.1"
   inkscape:version="1.0.1 (3bc2e813f5, 2020-09-07)"
   sodipodi:docname="DIN3239_Menue_aufrufen.svg"
   inkscape:export-filename="P:\Files\Axialis\Library\Baldwin\Inkscape-png-export\DIN3239_Menue_aufrufen.png"
   inkscape:export-xdpi="92.160004"
   inkscape:export-ydpi="92.160004">
  <defs
     id="defs4" />
  <sodipodi:namedview
     id="base"
     pagecolor="#ffffff"
     bordercolor="#666666"
     borderopacity="1.0"
     inkscape:pageopacity="0.0"
     inkscape:pageshadow="2"
     inkscape:zoom="9.7209677"
     inkscape:cx="17.982605"
     inkscape:cy="29.937734"
     inkscape:document-units="px"
     inkscape:current-layer="layer1"
     showgrid="true"
     units="px"
     showborder="true"
     borderlayer="false"
     inkscape:showpageshadow="true"
     inkscape:window-width="1920"
     inkscape:window-height="1017"
     inkscape:window-x="-8"
     inkscape:window-y="-8"
     inkscape:window-maximized="1"
     inkscape:snap-grids="false"
     inkscape:snap-to-guides="false"
     inkscape:snap-others="false"
     inkscape:snap-nodes="false"
     inkscape:snap-global="false"
     inkscape:document-rotation="0">
    <inkscape:grid
       type="xygrid"
       id="grid5038"
       empspacing="5" />
  </sodipodi:namedview>
  <metadata
     id="metadata7">
    <rdf:RDF>
      <cc:Work
         rdf:about="">
        <dc:format>image/svg+xml</dc:format>
        <dc:type
           rdf:resource="http://purl.org/dc/dcmitype/StillImage" />
        <dc:title></dc:title>
      </cc:Work>
    </rdf:RDF>
  </metadata>
  <g
     inkscape:label="Ebene 1"
     inkscape:groupmode="layer"
     id="layer1"
     transform="translate(0,-1002.3622)">
    <path
       id="rect905"
       style="fill:#000000;fill-opacity:1;stroke:none;stroke-width:1.5"
       d="m 19.236769,1023.8646 h 23.042972 v 6.9952 H 19.236769 Z" />
    <path
       id="rect905-5"
       style="fill:#000000;fill-opacity:1;stroke:none;stroke-width:1.5"
       d="m 19.236769,1014.1434 h 23.042972 v 6.9952 H 19.236769 Z" />
    <path
       id="rect905-1"
       style="fill:#000000;fill-opacity:1;stroke:none;stroke-width:1.5"
       d="m 19.236769,1033.5858 h 23.042972 v 6.9952 H 19.236769 Z" />
    <g
       aria-label="1"
       id="text951"
       style="font-style:normal;font-variant:normal;font-weight:normal;font-stretch:normal;font-size:10.6667px;line-height:1.25;font-family:'DIN 1451 Mittelschrift';-inkscape-font-specification:'DIN 1451 Mittelschrift';text-align:start;letter-spacing:0px;word-spacing:0px;text-anchor:start;fill:#000000;fill-opacity:1;stroke:none">
      <path
         d="m 11.358619,1021.443 v -6.4531 l -1.083336,0.7916 v -1.1562 l 1.083336,-0.7865 h 1.093754 v 7.6042 z"
         id="path964" />
    </g>
    <g
       aria-label="2"
       id="text955"
       style="font-style:normal;font-variant:normal;font-weight:normal;font-stretch:normal;font-size:10.6667px;line-height:1.25;font-family:'DIN 1451 Mittelschrift';-inkscape-font-specification:'DIN 1451 Mittelschrift';text-align:start;letter-spacing:0px;word-spacing:0px;text-anchor:start;fill:#000000;fill-opacity:1;stroke:none">
      <path
         d="m 9.199758,1031.1904 v -1.0208 l 2.968759,-3.7136 q 0.171876,-0.2188 0.223959,-0.401 0.05208,-0.1823 0.05208,-0.3542 0,-0.3958 -0.281251,-0.7344 -0.281251,-0.3437 -0.765627,-0.3437 -0.44271,0 -0.760419,0.2968 -0.312501,0.2917 -0.34896,0.8021 H 9.199758 q 0.00521,-0.9219 0.6302104,-1.5521 0.6250016,-0.6354 1.4843796,-0.6354 0.94792,0 1.57813,0.6406 0.635419,0.6355 0.635419,1.5365 0,0.7708 -0.453127,1.3333 l -2.442716,3.0626 h 2.895843 v 1.0833 z"
         id="path967" />
    </g>
    <g
       aria-label="3"
       id="text959"
       style="font-style:normal;font-variant:normal;font-weight:normal;font-stretch:normal;font-size:10.6667px;line-height:1.25;font-family:'DIN 1451 Mittelschrift';-inkscape-font-specification:'DIN 1451 Mittelschrift';text-align:start;letter-spacing:0px;word-spacing:0px;text-anchor:start;fill:#000000;fill-opacity:1;stroke:none">
      <path
         d="m 10.874243,1037.448 v -0.9583 h 0.375001 q 0.541668,0 0.854169,-0.3021 0.31771,-0.3073 0.31771,-0.776 0,-0.4636 -0.328126,-0.7813 -0.328126,-0.3177 -0.781253,-0.3177 -0.343751,0 -0.651044,0.2292 -0.307292,0.2291 -0.395834,0.6875 H 9.1763207 q 0.0625,-0.8021 0.6718771,-1.4011 0.6093772,-0.6041 1.4218792,-0.6041 1.015628,0 1.625005,0.6718 0.614586,0.6667 0.614586,1.4948 0,0.4375 -0.171876,0.8542 -0.171875,0.4115 -0.640627,0.7135 0.479168,0.3073 0.687502,0.7553 0.208334,0.4479 0.208334,0.9062 0,1.0625 -0.666668,1.6927 -0.666669,0.6302 -1.635422,0.6302 -0.770836,0 -1.3906297,-0.4948 -0.6145853,-0.5 -0.7656274,-1.4531 h 1.0885451 q 0.151042,0.3906 0.406251,0.6302 0.255209,0.2344 0.723961,0.2344 0.453126,0 0.802086,-0.3177 0.348959,-0.3229 0.348959,-0.8854 0,-0.5677 -0.348959,-0.8855 -0.343751,-0.3229 -0.82292,-0.3229 z"
         id="path970" />
    </g>
  </g>
</svg>
