<?xml version="1.0" encoding="UTF-8" standalone="no"?>
<!-- Created with Inkscape (http://www.inkscape.org/) -->

<svg
   xmlns:dc="http://purl.org/dc/elements/1.1/"
   xmlns:cc="http://creativecommons.org/ns#"
   xmlns:rdf="http://www.w3.org/1999/02/22-rdf-syntax-ns#"
   xmlns:svg="http://www.w3.org/2000/svg"
   xmlns="http://www.w3.org/2000/svg"
   xmlns:sodipodi="http://sodipodi.sourceforge.net/DTD/sodipodi-0.dtd"
   xmlns:inkscape="http://www.inkscape.org/namespaces/inkscape"
   width="50"
   height="50"
   viewBox="0 0 50 50.000001"
   id="svg2"
   version="1.1"
   inkscape:version="0.92.4 (5da689c313, 2019-01-14)"
   sodipodi:docname="DIN3882_Vorherige_Seite.svg"
   inkscape:export-filename="P:\Files\Axialis\Library\Baldwin\Inkscape-png-export\DIN0440_Behaeltnis.png"
   inkscape:export-xdpi="92.160004"
   inkscape:export-ydpi="92.160004">
  <defs
     id="defs4" />
  <sodipodi:namedview
     id="base"
     pagecolor="#ffffff"
     bordercolor="#666666"
     borderopacity="1.0"
     inkscape:pageopacity="0.0"
     inkscape:pageshadow="2"
     inkscape:zoom="13.747524"
     inkscape:cx="2.0604302"
     inkscape:cy="32.022124"
     inkscape:document-units="px"
     inkscape:current-layer="layer1"
     showgrid="true"
     units="px"
     showborder="true"
     borderlayer="false"
     inkscape:showpageshadow="true"
     inkscape:window-width="2560"
     inkscape:window-height="1377"
     inkscape:window-x="-8"
     inkscape:window-y="-8"
     inkscape:window-maximized="1"
     inkscape:snap-global="true">
    <inkscape:grid
       type="xygrid"
       id="grid5234" />
  </sodipodi:namedview>
  <metadata
     id="metadata7">
    <rdf:RDF>
      <cc:Work
         rdf:about="">
        <dc:format>image/svg+xml</dc:format>
        <dc:type
           rdf:resource="http://purl.org/dc/dcmitype/StillImage" />
        <dc:title />
      </cc:Work>
    </rdf:RDF>
  </metadata>
  <g
     inkscape:groupmode="layer"
     id="layer2"
     inkscape:label="Schwamm-Füllung"
     transform="translate(0,2)" />
  <g
     inkscape:label="Ebene 1"
     inkscape:groupmode="layer"
     id="layer1"
     transform="translate(0,-1002.3622)">
    <path
       id="path5098"
       style="color:#000000;font-style:normal;font-variant:normal;font-weight:normal;font-stretch:normal;font-size:medium;line-height:normal;font-family:sans-serif;font-variant-ligatures:normal;font-variant-position:normal;font-variant-caps:normal;font-variant-numeric:normal;font-variant-alternates:normal;font-feature-settings:normal;text-indent:0;text-align:start;text-decoration:none;text-decoration-line:none;text-decoration-style:solid;text-decoration-color:#000000;letter-spacing:normal;word-spacing:normal;text-transform:none;writing-mode:lr-tb;direction:ltr;text-orientation:mixed;dominant-baseline:auto;baseline-shift:baseline;text-anchor:start;white-space:normal;shape-padding:0;clip-rule:nonzero;display:inline;overflow:visible;visibility:visible;opacity:1;isolation:auto;mix-blend-mode:normal;color-interpolation:sRGB;color-interpolation-filters:linearRGB;solid-color:#000000;solid-opacity:1;vector-effect:none;fill:#000000;fill-opacity:1;fill-rule:nonzero;stroke:none;stroke-width:1.5;stroke-linecap:butt;stroke-linejoin:miter;stroke-miterlimit:4;stroke-dasharray:none;stroke-dashoffset:0;stroke-opacity:1;paint-order:normal;color-rendering:auto;image-rendering:auto;shape-rendering:auto;text-rendering:auto;enable-background:accumulate"
       d="m 25.75,1022.7871 -11.189453,6.8242 1.048828,0.6407 10.140625,6.1855 v -3.3301 h 9 v -6.9902 h -9 z m -1.5,2.6719 v 2.1582 h 9 v 3.9902 h -9 v 2.1582 l -6.810547,-4.1523 z m -8,-12.3477 v 0.75 32.25 h 22.5 v -33 z m 1.5,1.5 h 19.5 v 30 h -19.5 z m -6.5,-6.0001 c 0,1.25 0,2.5001 0,3.7501 h 1.5 v -2.25 h 3.75 v -1.5 c -1.75,-10e-5 -3.5,2e-4 -5.25,-10e-5 z m 6.75,1.5001 h 4.5 v -1.5 H 18 Z m 6,0 h 4.5 v -1.5 H 24 Z m 6,0 h 2.25 v 0.75 h 1.5 v -1.5 -0.75 H 33 30 Z m 2.25,3.9859 h 1.5 v -1.7359 h -1.5 z m -21,4.2641 h 1.5 v -4.5 h -1.5 z m 0,6 h 1.5 v -4.5 h -1.5 z m 0,6 h 1.5 v -4.5 h -1.5 z m 0,6 h 1.5 v -4.5 h -1.5 z m 0,4.5 v 0.75 H 12 13.5 v -1.5 h -0.75 v -2.25 h -1.5 z m 3.75,0.75 h 2.46327 v -1.5 H 15 Z"
       inkscape:connector-curvature="0" />
  </g>
  <g
     inkscape:groupmode="layer"
     id="layer3"
     inkscape:label="Hand"
     sodipodi:insensitive="true"
     transform="translate(0,2)" />
</svg>
