<?xml version="1.0" encoding="UTF-8" standalone="no"?>
<!-- Created with Inkscape (http://www.inkscape.org/) -->

<svg
   xmlns:dc="http://purl.org/dc/elements/1.1/"
   xmlns:cc="http://creativecommons.org/ns#"
   xmlns:rdf="http://www.w3.org/1999/02/22-rdf-syntax-ns#"
   xmlns:svg="http://www.w3.org/2000/svg"
   xmlns="http://www.w3.org/2000/svg"
   xmlns:sodipodi="http://sodipodi.sourceforge.net/DTD/sodipodi-0.dtd"
   xmlns:inkscape="http://www.inkscape.org/namespaces/inkscape"
   width="50"
   height="50"
   viewBox="0 0 50 50.000001"
   id="svg2"
   version="1.1"
   inkscape:version="0.92.4 (5da689c313, 2019-01-14)"
   sodipodi:docname="DIN3766_Betriebsdauer.svg"
   inkscape:export-filename="P:\Files\Axialis\Library\Baldwin\Inkscape-png-export\DIN3766_Betriebsdauer.png"
   inkscape:export-xdpi="92.160004"
   inkscape:export-ydpi="92.160004">
  <defs
     id="defs4" />
  <sodipodi:namedview
     id="base"
     pagecolor="#ffffff"
     bordercolor="#666666"
     borderopacity="1.0"
     inkscape:pageopacity="0.0"
     inkscape:pageshadow="2"
     inkscape:zoom="9.7209677"
     inkscape:cx="-4.4945811"
     inkscape:cy="23.323417"
     inkscape:document-units="px"
     inkscape:current-layer="layer1"
     showgrid="true"
     units="px"
     showborder="true"
     borderlayer="false"
     inkscape:showpageshadow="true"
     inkscape:window-width="1624"
     inkscape:window-height="1011"
     inkscape:window-x="281"
     inkscape:window-y="0"
     inkscape:window-maximized="0">
    <inkscape:grid
       type="xygrid"
       id="grid17990" />
  </sodipodi:namedview>
  <metadata
     id="metadata7">
    <rdf:RDF>
      <cc:Work
         rdf:about="">
        <dc:format>image/svg+xml</dc:format>
        <dc:type
           rdf:resource="http://purl.org/dc/dcmitype/StillImage" />
        <dc:title />
      </cc:Work>
    </rdf:RDF>
  </metadata>
  <g
     inkscape:label="Ebene 1"
     inkscape:groupmode="layer"
     id="layer1"
     transform="translate(0,-1002.3622)">
    <path
       style="color:#000000;font-style:normal;font-variant:normal;font-weight:normal;font-stretch:normal;font-size:medium;line-height:normal;font-family:sans-serif;font-variant-ligatures:normal;font-variant-position:normal;font-variant-caps:normal;font-variant-numeric:normal;font-variant-alternates:normal;font-feature-settings:normal;text-indent:0;text-align:start;text-decoration:none;text-decoration-line:none;text-decoration-style:solid;text-decoration-color:#000000;letter-spacing:normal;word-spacing:normal;text-transform:none;writing-mode:lr-tb;direction:ltr;text-orientation:mixed;dominant-baseline:auto;baseline-shift:baseline;text-anchor:start;white-space:normal;shape-padding:0;clip-rule:nonzero;display:inline;overflow:visible;visibility:visible;opacity:1;isolation:auto;mix-blend-mode:normal;color-interpolation:sRGB;color-interpolation-filters:linearRGB;solid-color:#000000;solid-opacity:1;vector-effect:none;fill:#000000;fill-opacity:1;fill-rule:nonzero;stroke:none;stroke-width:1.5;stroke-linecap:butt;stroke-linejoin:miter;stroke-miterlimit:4;stroke-dasharray:none;stroke-dashoffset:0;stroke-opacity:1;color-rendering:auto;image-rendering:auto;shape-rendering:auto;text-rendering:auto;enable-background:accumulate"
       d="m 9.2558594,1027.3613 c -3e-7,5.624 3.0006146,10.8248 7.8710936,13.6367 4.870479,2.812 10.875615,2.812 15.746094,0 4.870479,-2.8119 7.871094,-8.0127 7.871094,-13.6367 h -1.5 c 0,5.0905 -2.712634,9.7927 -7.121094,12.3379 -4.40846,2.5452 -9.837634,2.5452 -14.246094,0 -4.408459,-2.5452 -7.121094,-7.2474 -7.121094,-12.3379 z"
       id="path3336"
       inkscape:connector-curvature="0" />
    <path
       style="color:#000000;font-style:normal;font-variant:normal;font-weight:normal;font-stretch:normal;font-size:medium;line-height:normal;font-family:sans-serif;font-variant-ligatures:normal;font-variant-position:normal;font-variant-caps:normal;font-variant-numeric:normal;font-variant-alternates:normal;font-feature-settings:normal;text-indent:0;text-align:start;text-decoration:none;text-decoration-line:none;text-decoration-style:solid;text-decoration-color:#000000;letter-spacing:normal;word-spacing:normal;text-transform:none;writing-mode:lr-tb;direction:ltr;text-orientation:mixed;dominant-baseline:auto;baseline-shift:baseline;text-anchor:start;white-space:normal;shape-padding:0;clip-rule:nonzero;display:inline;overflow:visible;visibility:visible;opacity:1;isolation:auto;mix-blend-mode:normal;color-interpolation:sRGB;color-interpolation-filters:linearRGB;solid-color:#000000;solid-opacity:1;vector-effect:none;fill:#000000;fill-opacity:1;fill-rule:nonzero;stroke:none;stroke-width:1.5;stroke-linecap:butt;stroke-linejoin:miter;stroke-miterlimit:4;stroke-dasharray:1.5, 1.5;stroke-dashoffset:0;stroke-opacity:1;color-rendering:auto;image-rendering:auto;shape-rendering:auto;text-rendering:auto;enable-background:accumulate"
       d="m 30.403422,1012.5733 -0.03426,-0.014 -0.03596,-0.011 -0.103515,-0.033 -0.441219,1.4332 0.06404,0.02 1.250108,0.5284 0.583416,-1.3818 z m 1.952979,2.5972 0.124968,0.069 1.05707,0.7257 0.847415,-1.2368 -1.08793,-0.7473 -0.03086,-0.021 -0.03432,-0.019 -0.155761,-0.086 z m -4.990226,-3.3778 -0.0359,-0.01 h -0.03676 l -0.118081,-0.012 -0.148661,1.4922 0.0726,0.01 1.324355,0.2671 0.296584,-1.4706 z m 7.26932,5.0805 0.108696,0.094 0.891089,0.9211 1.077115,-1.0434 -0.925636,-0.9573 -0.02655,-0.026 -0.02916,-0.025 -0.127249,-0.1093 z m -10.329762,-5.2431 -0.03669,-4e-4 h -0.03664 l -0.195433,0.018 0.14313,1.4945 0.1745,-0.015 h 1.250932 l 0.0027,-1.4999 z m 12.224891,7.3675 0.02576,0.032 0.75455,1.1631 1.257494,-0.8152 -0.764415,-1.1831 -0.01964,-0.031 -0.0231,-0.029 -0.05685,-0.071 z m -15.225052,-6.9414 -0.03398,0.01 -0.03567,0.011 -0.295847,0.087 0.426283,1.4383 0.274972,-0.08 1.120469,-0.2176 -0.286095,-1.4725 z m 16.630282,9.3389 0.517753,1.2894 0.01186,0.038 1.438279,-0.4263 -0.02289,-0.078 -0.01181,-0.034 -0.01181,-0.034 -0.529454,-1.3146 z m -19.482343,-8.353 -0.03299,0.014 -0.0321,0.017 -0.381722,0.1972 0.690411,1.3317 0.347875,-0.1811 0.960978,-0.3858 -0.559303,-1.392 z m 20.407646,11.0521 0.240183,1.2399 0.01617,0.164 1.491847,-0.1423 -0.01929,-0.2024 -0.0022,-0.036 -0.0074,-0.034 -0.246774,-1.2756 z m -23.028105,-9.5356 -0.03119,0.02 -0.02851,0.023 -0.425287,0.3367 0.932916,1.1756 0.398472,-0.3172 0.772537,-0.4986 -0.816117,-1.2601 z m 23.39778,12.361 5.33e-4,1.1521 -0.0278,0.273 1.492243,0.1486 0.03097,-0.2974 0.003,-0.038 3.78e-4,-0.037 5.86e-4,-1.1994 z m -25.704947,-10.3437 -0.02761,0.026 -0.02234,0.028 -0.402492,0.4736 1.145068,0.9701 0.374941,-0.4435 0.607975,-0.5891 -1.043415,-1.0771 z m 25.507883,13.1835 -0.223722,1.1046 -0.08792,0.285 1.43326,0.4413 0.102986,-0.3342 0.01088,-0.036 0.0074,-0.038 0.226043,-1.1272 z m -27.415673,-10.6955 -0.02143,0.031 -0.01876,0.034 -0.301856,0.5526 1.315571,0.7205 0.286553,-0.5209 0.469565,-0.6842 -1.236054,-0.8491 z m 26.655579,13.4346 -0.44878,1.063 -0.702664,1.283 1.315567,0.7206 0.720575,-1.3156 -0.657332,-0.3589 0.690484,0.2904 0.464024,-1.099 z m -27.69684,-11.4063 -0.365822,0.8644 -0.01524,0.036 -0.01088,0.036 -0.164045,0.5368 1.433257,0.4412 0.154085,-0.4982 0.35052,-0.8328 z m 25.739075,14.9267 -0.920176,1.0867 1.145908,0.9683 0.941662,-1.1132 0.02495,-0.029 0.02143,-0.031 0.02228,-0.033 -0.94951,-0.6521 -0.265049,-0.2235 z m -26.701937,-11.9342 -0.1826256,0.9118 -0.00826,0.035 -0.00299,0.038 -0.057926,0.5686 1.4940076,0.1495 0.05306,-0.5405 0.175382,-0.8654 z m 23.718217,14.8348 -0.02512,0.016 h 9.11e-4 l -0.01384,0.011 0.119044,0.1486 0.710854,1.0965 0.04416,-0.029 0.02943,-0.021 0.03028,-0.022 1.131444,-0.9 -0.933765,-1.1738 z m -24.0626288,-11.7125 -8.78e-4,0.8499 -3.866e-4,0.037 0.00399,0.037 0.06103,0.6455 1.4944694,-0.1431 -0.05966,-0.608 0.0022,-0.8168 z m 21.6953928,13.0912 -0.132073,0.053 0.559316,1.3919 0.153788,-0.062 0.03476,-0.014 0.03124,-0.015 1.185039,-0.6159 -0.690412,-1.3317 z m -21.4117032,-9.9669 0.1415956,0.7258 0.00745,0.034 0.0092,0.035 0.2158936,0.7291 1.439181,-0.4237 -0.209535,-0.7108 -0.131305,-0.6753 z m 18.8180042,10.8715 -0.243962,0.047 0.286091,1.4724 0.280549,-0.055 0.03572,-0.01 0.03482,-0.01 1.162445,-0.3449 -0.424518,-1.4374 z m -17.920935,-7.8671 0.230408,0.5734 0.01441,0.033 0.01527,0.031 0.406185,0.7842 1.33166,-0.6904 -0.382855,-0.7382 -0.223147,-0.5526 z m 15.211187,8.258 -0.36251,5e-4 -0.0027,1.4999 0.399204,-10e-5 0.0367,4e-4 h 0.03664 l 1.094874,-0.1064 -0.142214,-1.4918 z m -13.738964,-5.4876 0.274705,0.4235 0.01963,0.031 0.02309,0.029 0.619264,0.7788 1.173799,-0.9338 -0.597932,-0.7511 -0.253314,-0.3915 z m 10.968849,5.3481 -0.428339,-0.088 -0.296579,1.4706 0.466846,0.093 0.03681,0.01 h 0.0376 l 1.018167,0.1017 0.14867,-1.4923 z m -8.975381,-2.9244 0.298477,0.307 0.02571,0.028 0.02825,0.022 0.819035,0.6932 0.968302,-1.146 -0.784538,-0.6612 -0.278115,-0.2863 z m 6.230975,2.2247 -0.416395,-0.1753 -0.58342,1.3819 0.448902,0.1888 0.03601,0.015 0.03511,0.013 0.967475,0.2963 0.441219,-1.4333 z m -3.787487,-0.2473 0.342979,0.2374 0.03171,0.02 0.03256,0.018 0.950369,0.5202 0.720584,-1.3156 -0.91782,-0.5022 -0.311204,-0.2134 z"
       id="path3336-1"
       inkscape:connector-curvature="0" />
    <path
       style="fill:#000000;fill-opacity:1;stroke:#000000;stroke-width:0;stroke-miterlimit:4;stroke-dasharray:none;stroke-dashoffset:0;stroke-opacity:1"
       d="m 24.25,14.261719 v 9.441406 A 1.4999996,1.5000521 0 0 0 23.703125,24.25 h -5.832031 v 1.5 h 5.832031 A 1.4999996,1.5000521 0 0 0 25,26.5 1.4999996,1.5000521 0 0 0 26.5,25 1.4999996,1.5000521 0 0 0 25.75,23.703125 v -9.441406 z"
       transform="translate(0,1002.3622)"
       id="path4193"
       inkscape:connector-curvature="0" />
  </g>
</svg>
