<?xml version="1.0" encoding="UTF-8" standalone="no"?>
<!-- Created with Inkscape (http://www.inkscape.org/) -->

<svg
   xmlns:dc="http://purl.org/dc/elements/1.1/"
   xmlns:cc="http://creativecommons.org/ns#"
   xmlns:rdf="http://www.w3.org/1999/02/22-rdf-syntax-ns#"
   xmlns:svg="http://www.w3.org/2000/svg"
   xmlns="http://www.w3.org/2000/svg"
   xmlns:sodipodi="http://sodipodi.sourceforge.net/DTD/sodipodi-0.dtd"
   xmlns:inkscape="http://www.inkscape.org/namespaces/inkscape"
   width="50"
   height="50"
   viewBox="0 0 50 50.000001"
   id="svg2"
   version="1.1"
   inkscape:version="0.92.4 (5da689c313, 2019-01-14)"
   sodipodi:docname="DIN3764_Ausschaltzeit.svg"
   inkscape:export-filename="P:\Files\Axialis\Library\Baldwin\Inkscape-png-export\DIN3764_Ausschaltzeit.png"
   inkscape:export-xdpi="92.160004"
   inkscape:export-ydpi="92.160004">
  <defs
     id="defs4" />
  <sodipodi:namedview
     id="base"
     pagecolor="#ffffff"
     bordercolor="#666666"
     borderopacity="1.0"
     inkscape:pageopacity="0.0"
     inkscape:pageshadow="2"
     inkscape:zoom="9.7209677"
     inkscape:cx="-4.4945811"
     inkscape:cy="23.323417"
     inkscape:document-units="px"
     inkscape:current-layer="layer1"
     showgrid="true"
     units="px"
     showborder="true"
     borderlayer="false"
     inkscape:showpageshadow="true"
     inkscape:window-width="1624"
     inkscape:window-height="1011"
     inkscape:window-x="281"
     inkscape:window-y="0"
     inkscape:window-maximized="0">
    <inkscape:grid
       type="xygrid"
       id="grid16880" />
  </sodipodi:namedview>
  <metadata
     id="metadata7">
    <rdf:RDF>
      <cc:Work
         rdf:about="">
        <dc:format>image/svg+xml</dc:format>
        <dc:type
           rdf:resource="http://purl.org/dc/dcmitype/StillImage" />
        <dc:title />
      </cc:Work>
    </rdf:RDF>
  </metadata>
  <g
     inkscape:label="Ebene 1"
     inkscape:groupmode="layer"
     id="layer1"
     transform="translate(0,-1002.3622)">
    <path
       style="color:#000000;font-style:normal;font-variant:normal;font-weight:normal;font-stretch:normal;font-size:medium;line-height:normal;font-family:sans-serif;font-variant-ligatures:normal;font-variant-position:normal;font-variant-caps:normal;font-variant-numeric:normal;font-variant-alternates:normal;font-feature-settings:normal;text-indent:0;text-align:start;text-decoration:none;text-decoration-line:none;text-decoration-style:solid;text-decoration-color:#000000;letter-spacing:normal;word-spacing:normal;text-transform:none;writing-mode:lr-tb;direction:ltr;text-orientation:mixed;dominant-baseline:auto;baseline-shift:baseline;text-anchor:start;white-space:normal;shape-padding:0;clip-rule:nonzero;display:inline;overflow:visible;visibility:visible;opacity:1;isolation:auto;mix-blend-mode:normal;color-interpolation:sRGB;color-interpolation-filters:linearRGB;solid-color:#000000;solid-opacity:1;vector-effect:none;fill:#000000;fill-opacity:1;fill-rule:nonzero;stroke:none;stroke-width:1.5;stroke-linecap:butt;stroke-linejoin:miter;stroke-miterlimit:4;stroke-dasharray:none;stroke-dashoffset:0;stroke-opacity:1;color-rendering:auto;image-rendering:auto;shape-rendering:auto;text-rendering:auto;enable-background:accumulate"
       d="m 25,1011.6172 v 1.5 c 5.763632,0 10.95451,3.4681 13.160156,8.793 2.205647,5.3249 0.987613,11.4479 -3.08789,15.5234 -4.075504,4.0755 -10.198536,5.2935 -15.523438,3.0879 -5.324902,-2.2057 -8.792969,-7.3965 -8.792969,-13.1602 H 9.2558594 c -3e-7,6.366 3.8373166,12.1107 9.7187496,14.5469 5.881434,2.4362 12.656749,1.0893 17.158203,-3.4121 4.501455,-4.5015 5.850232,-11.2787 3.414063,-17.1602 -2.436169,-5.8814 -8.180857,-9.7187 -14.546875,-9.7187 z"
       id="path3336"
       inkscape:connector-curvature="0" />
    <path
       style="color:#000000;font-style:normal;font-variant:normal;font-weight:normal;font-stretch:normal;font-size:medium;line-height:normal;font-family:sans-serif;font-variant-ligatures:normal;font-variant-position:normal;font-variant-caps:normal;font-variant-numeric:normal;font-variant-alternates:normal;font-feature-settings:normal;text-indent:0;text-align:start;text-decoration:none;text-decoration-line:none;text-decoration-style:solid;text-decoration-color:#000000;letter-spacing:normal;word-spacing:normal;text-transform:none;writing-mode:lr-tb;direction:ltr;text-orientation:mixed;dominant-baseline:auto;baseline-shift:baseline;text-anchor:start;white-space:normal;shape-padding:0;clip-rule:nonzero;display:inline;overflow:visible;visibility:visible;opacity:1;isolation:auto;mix-blend-mode:normal;color-interpolation:sRGB;color-interpolation-filters:linearRGB;solid-color:#000000;solid-opacity:1;vector-effect:none;fill:#000000;fill-opacity:1;fill-rule:nonzero;stroke:none;stroke-width:1.5;stroke-linecap:butt;stroke-linejoin:miter;stroke-miterlimit:4;stroke-dasharray:1.5, 1.5;stroke-dashoffset:0;stroke-opacity:1;color-rendering:auto;image-rendering:auto;shape-rendering:auto;text-rendering:auto;enable-background:accumulate"
       d="m 22.831524,1011.7683 h -0.02729 l -0.02898,0.01 -0.508943,0.09 0.265857,1.478 0.48556,-0.088 0.944975,-0.096 -0.153199,-1.4913 z m -2.285494,0.4924 -0.02703,0.01 -0.02678,0.01 -1.043836,0.3532 -0.02691,0.01 -0.02471,0.011 -0.17151,0.072 0.582669,1.3833 0.119893,-0.053 h 0.01339 l 1.013277,-0.3415 0.169374,-0.044 -0.373751,-1.4516 z m -3.18427,1.3332 -0.02458,0.013 -0.02263,0.013 -0.85123,0.5169 0.775799,1.2827 0.836264,-0.5062 0.41682,-0.2128 -0.681373,-1.3358 z m -2.796058,1.9795 -0.02238,0.017 -0.01835,0.019 -0.527306,0.5019 1.036942,1.0837 0.50688,-0.4848 0.574276,-0.4717 -0.955597,-1.1575 z m -2.311282,2.545 -0.01823,0.021 -0.01408,0.024 -0.248107,0.3703 1.247783,0.8333 0.240942,-0.36 0.0072,-0.01 0.61453,-0.7874 -1.183038,-0.9216 z m -1.220893,1.9735 -0.01408,0.024 -0.01201,0.026 -0.476743,1.0114 -0.012,0.026 -0.01005,0.026 -0.04193,0.1084 1.402722,0.5356 0.02991,-0.082 0.440479,-0.9366 h 0.0017 l 0.128161,-0.2276 -1.304228,-0.7377 z m -1.2697959,3.3057 -0.00798,0.028 -0.00616,0.026 -0.1847269,0.8359 1.4651258,0.3202 0.180511,-0.8103 0.173314,-0.5886 -1.4369658,-0.4295 z m -0.5007073,3.4555 -0.00213,0.028 -1.872e-4,0.027 0.00455,0.5243 1.4986484,-0.01 -0.0033,-0.5047 0.06461,-0.9378 -1.4959553,-0.1009 z m 29.9820622,0.6604 -0.01693,0.3436 1.49797,0.071 0.01723,-0.369 0.0021,-0.028 -0.0018,-0.027 -0.0301,-1.1313 -1.500404,0.042 z m -29.9009442,1.4717 0.012661,0.1655 0.00176,0.027 0.00567,0.027 0.1655801,1.0774 0.00371,0.027 0.00554,0.025 0.05461,0.2392 1.4618821,-0.3352 -0.04316,-0.1832 -0.0028,-0.014 -0.159797,-1.0485 -0.01027,-0.1286 z m 29.7177972,0.6597 -0.0016,0.01 -0.201172,1.0053 -0.0016,0.01 -0.0029,0.016 0.214156,0.043 1.233563,0.341 0.01125,-0.038 0.0062,-0.026 0.006,-0.028 0.215873,-1.0806 0.0041,-0.028 0.0041,-0.028 0.04358,-0.3552 -1.48956,-0.1835 z m -29.0736989,2.4302 0.1267509,0.4165 0.0075,0.025 0.0096,0.027 0.385183,0.9928 1.399546,-0.5426 -0.378329,-0.9776 -0.116561,-0.38 z m 28.2435339,0.5613 -0.329408,0.7474 1.372046,0.6061 0.343238,-0.7757 0.01006,-0.026 0.01018,-0.024 0.218582,-0.615 -1.414351,-0.5036 z m -27.002862,2.3412 0.353446,0.6231 0.01333,0.024 0.01516,0.023 0.435622,0.653 1.247593,-0.8343 -0.422663,-0.6341 -0.335834,-0.5929 z m 25.540591,0.4093 -0.0053,0.01 -0.311348,0.4214 1.208305,0.8886 0.343533,-0.4684 0.01615,-0.023 0.0142,-0.022 0.489791,-0.7793 -1.270849,-0.7965 z m -23.745858,2.1932 0.703797,0.7746 0.01893,0.02 0.02075,0.018 0.329504,0.3134 1.03152,-1.0885 -0.306548,-0.2913 -0.68694,-0.756 z m 22.468263,-0.582 -0.733055,0.7403 -0.203813,0.1775 0.987093,1.1301 0.226065,-0.1966 0.0203,-0.019 0.0203,-0.019 0.769642,-0.7798 0.02018,-0.021 0.01823,-0.021 0.06732,-0.079 -1.141359,-0.9733 z m -20.22336,2.7307 0.237629,0.194 0.0227,0.018 0.02245,0.014 0.918297,0.6413 0.02245,0.014 0.02452,0.016 0.06307,0.037 0.763901,-1.2923 -0.04062,-0.023 -0.885473,-0.6179 -0.0082,-0.01 -0.194298,-0.1596 z m 17.88371,-0.6848 -0.01509,0.01 -0.900073,0.5788 0.809748,1.2628 0.91516,-0.5875 0.02251,-0.015 0.0225,-0.015 0.330366,-0.2484 -0.901598,-1.2002 z m -15.216053,2.3795 0.572123,0.2819 0.0244,0.014 0.0261,0.01 0.797973,0.3242 0.565834,-1.3891 -0.787971,-0.3208 -0.01012,-0.01 -0.521765,-0.2599 z m 12.375537,-0.8454 -0.642653,0.2314 0.506217,1.4117 0.665667,-0.2387 0.02678,-0.01 0.02665,-0.012 0.722868,-0.3228 -0.611142,-1.3696 z m -9.425355,1.9756 0.890948,0.2184 0.02597,0.01 h 0.02766 l 0.573925,0.098 0.250707,-1.4801 -0.536261,-0.091 -0.87693,-0.2135 z m 6.360535,-1.1257 h -0.0096 l -0.318509,0.038 0.184377,1.4892 0.372709,-0.048 h 0.02716 0.02716 l 1.082016,-0.2168 0.02704,-0.01 0.02703,-0.01 0.01911,-0.01 -0.275412,-0.9902 -0.09054,-0.4619 z m -3.301415,1.6404 0.09651,0.01 h 0.02754 l 0.02741,10e-5 1.089849,0.025 0.02742,2e-4 h 0.02729 l 0.312229,-0.014 -0.07341,-1.4984 -0.300536,0.014 -0.01364,9e-4 -1.019303,-0.024 -0.01572,-10e-4 -0.04143,-0.01 z"
       id="path3336-1"
       inkscape:connector-curvature="0" />
    <path
       style="fill:#000000;fill-opacity:1;stroke:#000000;stroke-width:0;stroke-miterlimit:4;stroke-dasharray:none;stroke-dashoffset:0;stroke-opacity:1"
       d="m 24.25,14.261719 v 9.441406 A 1.4999996,1.4999996 0 0 0 23.703125,24.25 h -5.832031 v 1.5 h 5.832031 A 1.4999996,1.4999996 0 0 0 25,26.5 1.4999996,1.4999996 0 0 0 26.5,25 1.4999996,1.4999996 0 0 0 25.75,23.703125 v -9.441406 z"
       transform="translate(0,1002.3622)"
       id="path4193"
       inkscape:connector-curvature="0" />
  </g>
</svg>
